<?xml version="1.0" encoding="UTF-8"?>
<svg id="Calque_2" data-name="Calque 2" xmlns="http://www.w3.org/2000/svg" viewBox="0 0 130.73 116.3">
  <defs>
    <style>
      .cls-1 {
        fill: #fff;
      }

      .cls-2 {
        fill: #e58e00;
        stroke: #d8d8d8;
        stroke-miterlimit: 10;
        stroke-width: 4px;
      }
    </style>
  </defs>
  <g id="Layer_1" data-name="Layer 1">
    <g>
      <path class="cls-2" d="m92.31,114.3l-54.8-.4c-3,0-5.9-1.7-7.4-4.3L3.11,61.9c-1.5-2.7-1.5-5.9.1-8.5L31.01,6.2c1.5-2.6,4.4-4.2,7.4-4.2l54.8.4c3,0,5.9,1.7,7.4,4.3l27,47.7c1.5,2.7,1.5,5.9-.1,8.5l-27.8,47.2c-1.5,2.7-4.4,4.3-7.4,4.2Z"/>
      <path class="cls-1" d="m96.78,51.94c-.18-.01-.38-.02-.58-.02-1.03,0-2.02.19-2.93.54l.06-.02c-.27.11-.69.11-.73.45.15.14.17.37.29.57.25.42.56.78.92,1.08h0c.37.3.75.58,1.14.83.69.43,1.48.68,2.16,1.11.39.25.78.57,1.17.83.19.13.32.37.57.46v-.05c-.12-.16-.16-.39-.28-.57-.18-.18-.36-.34-.53-.51-.53-.69-1.14-1.29-1.83-1.78l-.03-.02c-.57-.39-1.82-.93-2.05-1.59l-.03-.04c.47-.07.88-.16,1.28-.3h-.05c.61-.15,1.16-.11,1.79-.27.28-.07.57-.16.85-.25v-.16c-.32-.32-.56-.76-.89-1.05-.87-.77-1.84-1.49-2.85-2.14l-.1-.06c-.56-.36-1.27-.59-1.86-.89-.21-.11-.57-.16-.69-.34-.28-.39-.52-.85-.72-1.33l-.02-.05c-.52-1.02-1.01-2.05-1.46-3.1-.31-.82-.61-1.49-.96-2.14l.05.1c-1.68-2.82-4.01-5.08-6.8-6.62l-.09-.05c-.66-.33-1.43-.58-2.23-.72h-.05c-.45-.03-.89-.06-1.33-.08-.31-.2-.58-.41-.83-.63h0c-1.01-.63-3.64-2.02-4.38-.19-.48,1.16.71,2.3,1.12,2.89.33.39.63.83.89,1.29l.02.04c.13.31.16.63.29.95.31.96.62,1.76.98,2.52l-.06-.13c.21.42.43.79.68,1.13l-.02-.03c.14.19.39.29.45.61-.18.39-.33.83-.41,1.3v.03c-.23.71-.37,1.53-.37,2.37,0,1.33.33,2.57.9,3.67l-.02-.04c.29.44.96,1.42,1.87,1.05.8-.32.62-1.33.85-2.23.05-.21.02-.35.13-.5v.04c.25.5.5.98.73,1.48.64.93,1.41,1.72,2.29,2.37l.03.02c.43.32.77.88,1.3,1.07v-.05h-.04c-.12-.13-.26-.25-.4-.35h0c-.33-.33-.64-.68-.92-1.05l-.02-.02c-.7-.94-1.36-2-1.93-3.12l-.06-.13c-.29-.56-.54-1.16-.77-1.72-.11-.21-.11-.53-.29-.64-.32.35-.6.75-.84,1.17l-.02.03c-.27.8-.45,1.72-.5,2.67v.02c-.07.02-.04,0-.07.04-.57-.14-.77-.73-.98-1.23-.29-.78-.46-1.69-.46-2.63,0-.76.11-1.49.31-2.19v.06c.11-.37.65-1.55.43-1.91-.11-.34-.46-.53-.66-.81-.23-.33-.45-.7-.62-1.1l-.02-.04c-.43-1-.64-2.1-1.1-3.1-.28-.52-.57-.97-.9-1.39v.02c-.34-.41-.66-.86-.94-1.34l-.02-.04c-.09-.19-.21-.52-.07-.73.03-.12.12-.22.25-.24h0c.23-.19.89.06,1.12.16.68.26,1.26.56,1.8.91l-.03-.02c.25.18.52.51.84.6h.37c.57.13,1.21.04,1.75.19.98.33,1.83.74,2.61,1.25l-.04-.03c2.36,1.52,4.24,3.58,5.52,6.01l.04.09c.21.41.31.79.5,1.21.37.88.83,1.77,1.21,2.62.36.91.79,1.7,1.3,2.43l-.03-.04c.27.37,1.34.57,1.82.76.51.18.91.35,1.3.54l-.08-.03c.61.37,1.21.8,1.79,1.21.29.2,1.18.65,1.24,1.01h0Zm-25.02,15.61s0,.07,0,.1c0,1.19-.53,2.26-1.37,2.97h0c-.92.76-2.11,1.21-3.41,1.21-.1,0-.2,0-.3,0h.01c-1.58-.02-3.03-.53-4.22-1.39h.02s.63-1.25.63-1.25c.92.51,2,.83,3.16.88h.01c.06,0,.12,0,.19,0,.71,0,1.37-.22,1.91-.6h-.01c.49-.36.8-.95.8-1.6v-.04h0c0-.88-.61-1.62-1.73-2.25-1.04-.57-3.1-1.75-3.1-1.75-1.02-.63-1.69-1.74-1.69-3.01,0-.04,0-.09,0-.13h0s0-.08,0-.13c0-1.1.48-2.09,1.25-2.76h0c.82-.7,1.88-1.12,3.04-1.12.07,0,.15,0,.22,0h-.01.07c1.36,0,2.63.41,3.69,1.11h-.03s-.57,1.25-.57,1.25c-.83-.38-1.81-.6-2.83-.61h0c-.05,0-.11,0-.17,0-.6,0-1.15.21-1.58.56h0c-.4.33-.66.83-.66,1.39h0c0,.88.62,1.63,1.78,2.27,1.05.57,3.17,1.79,3.17,1.79,1.04.61,1.73,1.73,1.73,3,0,.04,0,.08,0,.12h0s-.01-.01-.01-.01Zm4.42,1.13c-.58-1.16-.92-2.53-.92-3.98,0-.23,0-.45.03-.68v.03c0-3.72,1.13-5.57,3.39-5.57.06,0,.12,0,.19,0,1.01,0,1.9.53,2.41,1.33h0c.58,1.17.92,2.53.92,3.98,0,.22,0,.44-.02.66v-.03c0,3.75-1.13,5.62-3.39,5.62-.06,0-.12,0-.19,0-1.01,0-1.91-.53-2.41-1.33h0s0-.02,0-.02Zm8.78,3.31l-2.71-1.33c.25-.21.47-.42.67-.66h0c1.09-1.48,1.75-3.34,1.75-5.35,0-.23,0-.46-.03-.69v.03c0-4.88-1.91-7.32-5.75-7.33-.09,0-.19,0-.29,0-1.64,0-3.11.72-4.11,1.86h0c-1.09,1.48-1.75,3.34-1.75,5.35,0,.23,0,.45.03.67v-.03c-.02.22-.03.47-.03.72,0,1.87.58,3.59,1.58,5.01l-.02-.03c.96,1.02,2.32,1.66,3.82,1.66.14,0,.28,0,.42-.02h-.02s.04,0,.07,0c.66,0,1.31-.1,1.91-.27h-.05s3.53,2.07,3.53,2.07l.96-1.66h-.01Zm8.85-.36h-7.02v-14.75h2.36v12.94h4.66v1.81Zm-32.87-10.88c-.61,4.45-2.01,8.46-4.07,12.06l.09-.16c-.82,1.58-2.38,2.68-4.2,2.86h-.02c-.55-.03-1.07-.16-1.53-.38h.03s0-1.31,0-1.31c.29.04.63.07.97.07h.06,0s.07,0,.11,0c.62,0,1.18-.22,1.62-.6h0c.47-.38.77-.96.79-1.61h0c-.11-.94-.33-1.79-.64-2.59l.03.07-2.7-8.42h2.43l1.94,6.29c.35.89.55,1.92.55,2.99h0c1.03-2.69,1.81-5.83,2.21-9.09l.02-.2h2.35Zm-10.71,10.88h-2.47c-.07-3.93-.31-7.85-.72-11.76h-.02l-3.76,11.76h-1.88l-3.74-11.76h-.03c-.29,3.91-.47,7.84-.52,11.76h-2.25c.15-5.24.51-10.16,1.09-14.75h3.07l3.56,10.84h.02l3.59-10.84h2.92c.65,5.37,1.03,10.29,1.14,14.75h0Zm28.37-35.19h-.02c-.25,0-.5.03-.73.09h.02s0,.03,0,.03h.04c.18.27.37.51.57.73h0c.14.28.27.57.41.85l.04-.04c.23-.18.38-.47.38-.78,0-.04,0-.07,0-.11h0c-.11-.12-.12-.25-.21-.37-.11-.18-.34-.27-.48-.41h0Z"/>
    </g>
  </g>
</svg>