<?xml version="1.0" encoding="UTF-8"?>
<svg id="Calque_2" data-name="Calque 2" xmlns="http://www.w3.org/2000/svg" viewBox="0 0 130.73 116.3">
  <defs>
    <style>
      .cls-1 {
        fill: #e44d26;
        stroke: #d8d8d8;
        stroke-miterlimit: 10;
        stroke-width: 4px;
      }

      .cls-2 {
        fill: #f9f9f9;
      }
    </style>
  </defs>
  <g id="Layer_1" data-name="Layer 1">
    <g>
      <path class="cls-1" d="m92.31,114.3l-54.8-.4c-3,0-5.9-1.7-7.4-4.3L3.11,61.9c-1.5-2.7-1.5-5.9.1-8.5L31.01,6.2c1.5-2.6,4.4-4.2,7.4-4.2l54.8.4c3,0,5.9,1.7,7.4,4.3l27,47.7c1.5,2.7,1.5,5.9-.1,8.5l-27.8,47.2c-1.5,2.7-4.4,4.3-7.4,4.2Z"/>
      <g id="c133de6af664cd4f011a55de6b000d0b">
        <path class="cls-2" d="m48.87,29.55h2.58v2.55h2.36v-2.55h2.58v7.71h-2.58v-2.58h-2.36v2.58h-2.58v-7.71h0Zm10.91,2.56h-2.27v-2.56h7.12v2.56h-2.27v5.16h-2.58v-5.16h0Zm5.98-2.56h2.69l1.65,2.71,1.65-2.71h2.69v7.71h-2.57v-3.82l-1.77,2.74h-.04l-1.78-2.74v3.82h-2.52v-7.71h0Zm9.97,0h2.58v5.16h3.63v2.55h-6.21v-7.71Zm-30.62,11.24l3.69,41.37,16.55,4.59,16.6-4.6,3.69-41.36h-40.53Zm32.84,9.82l-.23,2.57-.1,1.14h-19.42l.46,5.2h18.49l-.12,1.36-1.19,13.36-.08.86-10.38,2.88h0s-.02,0-.02,0l-10.39-2.89-.71-7.97h5.09l.36,4.05,5.65,1.53h0s5.66-1.53,5.66-1.53l.59-6.58h-17.58l-1.25-13.98-.12-1.36h25.41l-.12,1.36Z"/>
      </g>
    </g>
  </g>
</svg>