<?xml version="1.0" encoding="UTF-8"?>
<svg id="Calque_2" data-name="Calque 2" xmlns="http://www.w3.org/2000/svg" viewBox="0 0 130.73 116.3">
  <defs>
    <style>
      .cls-1, .cls-2 {
        fill: #fff;
      }

      .cls-2 {
        fill-rule: evenodd;
      }

      .cls-3 {
        fill: #264de4;
        stroke: #d8d8d8;
        stroke-miterlimit: 10;
        stroke-width: 4px;
      }
    </style>
  </defs>
  <g id="Layer_1" data-name="Layer 1">
    <g>
      <path class="cls-3" d="m92.31,114.3l-54.8-.4c-3,0-5.9-1.7-7.4-4.3L3.11,61.9c-1.5-2.7-1.5-5.9.1-8.5L31.01,6.2c1.5-2.6,4.4-4.2,7.4-4.2l54.8.4c3,0,5.9,1.7,7.4,4.3l27,47.7c1.5,2.7,1.5,5.9-.1,8.5l-27.8,47.2c-1.5,2.6-4.4,4.3-7.4,4.2Z"/>
      <g>
        <path class="cls-2" d="m44.89,45.65c.26-.29.63-.45,1.02-.45h38.89c.39,0,.76.16,1.02.45.26.29.39.67.36,1.06l-2.78,33.1c-.05.55-.42,1.03-.95,1.2l-16.67,5.56c-.29.1-.59.1-.88,0l-16.67-5.56c-.53-.18-.9-.65-.94-1.2l-2.78-33.1c-.03-.39.1-.77.36-1.06Zm30.19,7.89h-19.45v2.78h16.67v5.56h-11.11v2.78h11.11v5.94l-6.94,2.31-6.94-2.31v-3.17h-2.78v5.17l9.72,3.24,9.72-3.24v-19.06Z"/>
        <g>
          <path class="cls-1" d="m52.87,29.67h7.35v3.07h-4.27v3.07h4.27v3.07h-7.35v-9.22h0Z"/>
          <path class="cls-1" d="m61.69,29.67h7.35v2.67h-4.27v.53h4.27v6.15h-7.35v-2.81h4.27v-.53h-4.27v-6.01h0Z"/>
          <path class="cls-1" d="m70.51,29.67h7.35v2.67h-4.27v.53h4.27v6.15h-7.35v-2.81h4.27v-.53h-4.27v-6.01h0Z"/>
        </g>
      </g>
    </g>
  </g>
</svg>