<?xml version="1.0" encoding="UTF-8"?>
<svg id="Calque_2" data-name="Calque 2" xmlns="http://www.w3.org/2000/svg" viewBox="0 0 130.73 116.3">
  <defs>
    <style>
      .cls-1 {
        fill: #f9f9f9;
        stroke-width: 2px;
      }

      .cls-1, .cls-2 {
        stroke: #d8d8d8;
        stroke-miterlimit: 10;
      }

      .cls-2 {
        fill: #222;
        stroke-width: 4px;
      }
    </style>
  </defs>
  <g id="Layer_1" data-name="Layer 1">
    <g>
      <path class="cls-2" d="m92.31,114.3l-54.8-.4c-3,0-5.9-1.7-7.4-4.3L3.11,61.9c-1.5-2.7-1.5-5.9.1-8.5L31.01,6.2c1.5-2.6,4.4-4.2,7.4-4.2l54.8.4c3,0,5.9,1.7,7.4,4.3l27,47.7c1.5,2.7,1.5,5.9-.1,8.5l-27.8,47.2c-1.5,2.7-4.4,4.3-7.4,4.2Z"/>
      <path class="cls-1" d="m31.82,63.66v-7.57h9.45v-.44h-9.45v-6.9h10.04v-.44h-10.49v15.79h10.57v-.44h-10.13Zm18.65-10.93l-3.92,5.15-3.83-5.15h-.58l4.14,5.49-4.53,5.88h.53l4.27-5.55,4.29,5.55h.55l-4.56-5.88,4.16-5.49h-.53Zm2.26,15.26v-7.08h.04c.27,1.03.79,1.86,1.57,2.49.78.63,1.78.94,2.99.94.78,0,1.47-.16,2.08-.48s1.11-.75,1.52-1.29c.41-.55.72-1.18.93-1.9.21-.72.32-1.48.32-2.28,0-.86-.11-1.64-.33-2.37-.22-.72-.54-1.35-.96-1.88s-.93-.94-1.53-1.24c-.6-.29-1.27-.44-2.02-.44-.58,0-1.11.08-1.6.25-.49.17-.93.41-1.32.72-.38.31-.72.67-1,1.1-.28.42-.49.88-.64,1.38h-.04v-3.19h-.44v15.26h.44Zm4.6-4.07c-1.39,0-2.5-.48-3.34-1.43-.84-.95-1.26-2.32-1.26-4.1,0-.74.1-1.44.31-2.1s.51-1.25.9-1.75c.39-.5.87-.9,1.45-1.19.58-.29,1.22-.44,1.95-.44s1.38.15,1.94.44c.55.29,1.01.7,1.37,1.21.36.51.63,1.09.82,1.75.18.66.28,1.35.28,2.09,0,.66-.08,1.32-.25,1.98-.17.66-.43,1.25-.79,1.77-.35.52-.81.95-1.36,1.28-.55.33-1.22.5-2,.5h0Zm7.28.18v-6.44c0-.62.09-1.22.27-1.81s.45-1.11.82-1.56c.37-.45.84-.8,1.4-1.06.57-.26,1.24-.37,2.02-.32v-.44c-.68-.01-1.27.06-1.78.22-.51.16-.95.38-1.32.66-.37.28-.66.61-.88.98-.22.38-.38.78-.49,1.21h-.04v-2.81h-.44v11.37h.44Zm5.07-5.6h9.51c.03-.78-.05-1.53-.23-2.26-.18-.72-.48-1.36-.88-1.92-.41-.56-.93-1.01-1.57-1.35s-1.4-.51-2.29-.51c-.63,0-1.25.13-1.86.4s-1.14.65-1.59,1.16-.83,1.13-1.11,1.87-.42,1.58-.42,2.52c0,.84.1,1.63.29,2.36.19.73.49,1.36.88,1.9.4.54.91.95,1.54,1.25.63.29,1.38.44,2.27.42,1.3,0,2.39-.36,3.27-1.1s1.41-1.76,1.57-3.09h-.44c-.19,1.25-.68,2.19-1.47,2.82s-1.78.94-2.98.94c-.81,0-1.5-.14-2.06-.42-.56-.28-1.02-.66-1.37-1.15-.35-.49-.62-1.06-.79-1.71-.17-.66-.26-1.37-.28-2.13h0Zm9.07-.44h-9.07c.04-.8.19-1.51.44-2.15.25-.63.58-1.18.98-1.63.41-.45.88-.79,1.42-1.03.54-.24,1.12-.35,1.74-.35.74,0,1.39.14,1.95.41.56.27,1.03.65,1.4,1.12.38.47.66,1.02.85,1.65.19.63.29,1.29.29,1.98h0Zm9.62-1.97h.44c0-1.27-.37-2.19-1.11-2.77s-1.74-.86-3.01-.86c-.71,0-1.31.09-1.79.27-.49.18-.88.41-1.19.69s-.53.59-.66.93c-.13.34-.2.66-.2.97,0,.62.11,1.11.33,1.48s.57.66,1.04.86c.32.15.69.28,1.11.4s.89.24,1.44.38c.49.12.97.24,1.44.35.47.12.89.28,1.25.48s.66.45.88.76c.23.31.34.72.34,1.22s-.11.9-.34,1.24c-.23.34-.52.62-.87.83-.35.21-.75.37-1.18.46-.44.1-.86.14-1.27.14-1.34,0-2.37-.3-3.09-.9s-1.07-1.54-1.07-2.82h-.44c0,1.43.39,2.48,1.16,3.14.77.66,1.92,1,3.44,1,.49,0,.98-.06,1.47-.17.49-.11.94-.29,1.33-.54.39-.25.71-.58.95-.97.24-.4.37-.88.37-1.46s-.11-.99-.32-1.33c-.21-.34-.49-.62-.84-.84-.35-.22-.74-.39-1.17-.52-.44-.13-.87-.25-1.32-.37-.62-.16-1.16-.3-1.63-.42-.46-.12-.9-.26-1.29-.42-.38-.16-.69-.39-.92-.7-.23-.3-.34-.73-.34-1.29,0-.1.03-.29.09-.55s.2-.53.42-.81c.22-.27.56-.52,1.02-.73s1.08-.32,1.88-.32c.55,0,1.04.06,1.49.18.45.12.84.31,1.16.56.32.26.58.59.75.98s.27.88.27,1.46h0Zm10.24,0h.44c0-1.27-.37-2.19-1.11-2.77-.74-.58-1.74-.86-3.01-.86-.71,0-1.31.09-1.79.27-.49.18-.88.41-1.19.69s-.53.59-.66.93c-.13.34-.2.66-.2.97,0,.62.11,1.11.33,1.48s.57.66,1.04.86c.32.15.69.28,1.11.4.41.12.89.24,1.44.38.49.12.97.24,1.44.35.47.12.89.28,1.25.48.36.2.66.45.88.76.23.31.34.72.34,1.22s-.11.9-.34,1.24c-.23.34-.52.62-.87.83-.35.21-.75.37-1.18.46s-.86.14-1.27.14c-1.34,0-2.37-.3-3.09-.9-.72-.6-1.07-1.54-1.07-2.82h-.44c0,1.43.39,2.48,1.16,3.14.77.66,1.92,1,3.44,1,.49,0,.98-.06,1.47-.17s.94-.29,1.33-.54c.39-.25.71-.58.95-.97.24-.4.37-.88.37-1.46s-.11-.99-.32-1.33c-.21-.34-.49-.62-.84-.84-.35-.22-.74-.39-1.17-.52-.44-.13-.87-.25-1.32-.37-.62-.16-1.16-.3-1.63-.42s-.9-.26-1.29-.42c-.38-.16-.69-.39-.92-.7-.23-.3-.34-.73-.34-1.29,0-.1.03-.29.09-.55s.2-.53.42-.81.56-.52,1.02-.73c.46-.21,1.08-.32,1.88-.32.55,0,1.04.06,1.49.18.45.12.84.31,1.16.56.32.26.58.59.75.98.18.4.27.88.27,1.46h0Z"/>
    </g>
  </g>
</svg>