<?xml version="1.0" encoding="UTF-8"?>
<svg id="Calque_2" data-name="Calque 2" xmlns="http://www.w3.org/2000/svg" viewBox="0 0 130.73 116.3">
  <defs>
    <style>
      .cls-1 {
        fill: #fff;
      }

      .cls-2 {
        fill: #8993be;
        stroke: #d8d8d8;
        stroke-miterlimit: 10;
        stroke-width: 4px;
      }
    </style>
  </defs>
  <g id="Layer_1" data-name="Layer 1">
    <g>
      <path class="cls-2" d="m92.31,114.3l-54.8-.4c-3,0-5.9-1.7-7.4-4.3L3.11,61.9c-1.5-2.7-1.5-5.9.1-8.5L31.01,6.2c1.5-2.6,4.4-4.2,7.4-4.2l54.8.4c3,0,5.9,1.7,7.4,4.3l27,47.7c1.5,2.7,1.5,5.9-.1,8.5l-27.8,47.2c-1.5,2.7-4.4,4.3-7.4,4.2Z"/>
      <path class="cls-1" d="m45.82,53.01c1.45-.18,2.91.22,4.06,1.12.74,1.15.92,2.57.48,3.86-.19,1.57-.95,3.02-2.14,4.07-1.43.92-3.12,1.35-4.82,1.23h-3.26l2-10.26,3.67-.02Zm-13.03,20.67h5.35l1.27-6.51h4.58c1.69.04,3.37-.17,4.99-.64,1.33-.44,2.55-1.17,3.56-2.14,1.75-1.58,2.93-3.69,3.36-6.01.68-2.34.21-4.86-1.28-6.8-1.79-1.77-4.26-2.66-6.77-2.44h-10.27l-4.79,24.54Z"/>
      <path class="cls-1" d="m59.82,42.62h5.31l-1.29,6.51h4.72c2.17-.23,4.35.32,6.15,1.56,1.21,1.38,1.6,3.3,1.01,5.04l-2.22,11.42h-5.37l2.11-10.86c.3-.84.2-1.77-.27-2.53-.77-.55-1.72-.79-2.66-.67h-4.24l-2.73,14.06h-5.32l4.79-24.54Z"/>
      <path class="cls-1" d="m87.55,53.01c1.45-.18,2.91.22,4.06,1.12.74,1.15.92,2.57.48,3.86-.19,1.57-.95,3.02-2.14,4.07-1.43.92-3.13,1.35-4.82,1.23h-3.25l2-10.27h3.68Zm-13.03,20.66h5.35l1.27-6.51h4.58c1.69.04,3.37-.17,5-.64,1.33-.44,2.55-1.17,3.56-2.14,1.75-1.58,2.93-3.69,3.35-6.01.68-2.34.21-4.86-1.28-6.8-1.79-1.77-4.26-2.66-6.77-2.43h-10.28l-4.77,24.53Z"/>
    </g>
  </g>
</svg>