<?xml version="1.0" encoding="UTF-8"?>
<svg id="Calque_2" data-name="Calque 2" xmlns="http://www.w3.org/2000/svg" viewBox="0 0 130.73 116.3">
  <defs>
    <style>
      .cls-1 {
        fill: #fff;
      }

      .cls-2 {
        fill: #563d7c;
        stroke: #d8d8d8;
        stroke-miterlimit: 10;
        stroke-width: 4px;
      }
    </style>
  </defs>
  <g id="Layer_1" data-name="Layer 1">
    <g>
      <path class="cls-2" d="m92.31,114.3l-54.8-.4c-3,0-5.9-1.7-7.4-4.3L3.11,61.9c-1.5-2.7-1.5-5.9.1-8.5L31.01,6.2c1.5-2.6,4.4-4.2,7.4-4.2l54.8.4c3,0,5.9,1.7,7.4,4.3l27,47.7c1.5,2.7,1.5,5.9-.1,8.5l-27.8,47.2c-1.5,2.7-4.4,4.3-7.4,4.2Z"/>
      <path class="cls-1" d="m55.26,53.32v-11.88h10.45c1,0,1.96.08,2.88.25s1.74.46,2.45.89c.71.43,1.28,1.02,1.71,1.78.43.76.64,1.73.64,2.92,0,2.13-.64,3.67-1.92,4.62-1.28.95-2.92,1.42-4.91,1.42h-11.31Zm-11.17-20.55v50.78h24.61c2.28,0,4.49-.28,6.65-.85,2.16-.57,4.08-1.45,5.76-2.63,1.68-1.19,3.02-2.71,4.02-4.59s1.49-4.09,1.49-6.65c0-3.18-.77-5.89-2.31-8.14-1.54-2.25-3.88-3.83-7-4.73,2.28-1.09,3.99-2.49,5.16-4.2,1.16-1.71,1.74-3.84,1.74-6.4,0-2.37-.39-4.36-1.17-5.97-.78-1.61-1.88-2.9-3.31-3.88-1.42-.97-3.13-1.67-5.12-2.1s-4.2-.64-6.61-.64h-23.89Zm11.17,42.1v-13.94h12.16c2.42,0,4.36.56,5.83,1.67,1.47,1.11,2.2,2.97,2.2,5.58,0,1.33-.23,2.42-.68,3.27-.45.85-1.05,1.53-1.81,2.03-.76.5-1.64.85-2.63,1.07s-2.04.32-3.13.32h-11.95Z"/>
    </g>
  </g>
</svg>