<?xml version="1.0" encoding="UTF-8"?>
<svg id="Calque_2" data-name="Calque 2" xmlns="http://www.w3.org/2000/svg" viewBox="0 0 130.6 116.37">
  <defs>
    <style>
      .cls-1 {
        fill: #f9f9f9;
      }

      .cls-2 {
        fill: #090b0c;
        stroke: #d8d8d8;
        stroke-miterlimit: 10;
        stroke-width: 4px;
      }
    </style>
  </defs>
  <g id="Layer_1" data-name="Layer 1">
    <path class="cls-2" d="m92.23,114.37l-54.77-.44c-3.05-.02-5.85-1.67-7.35-4.33L3.11,61.95c-1.5-2.65-1.48-5.9.07-8.53L30.94,6.21c1.55-2.63,4.38-4.23,7.42-4.21l54.77.44c3.05.02,5.85,1.67,7.35,4.33l27,47.65c1.5,2.65,1.48,5.9-.07,8.53l-27.77,47.21c-1.55,2.63-4.38,4.23-7.42,4.21Z"/>
    <path class="cls-1" d="m65.3,31.49c15.12,0,27.37,12.25,27.37,27.37,0,11.76-7.5,22.2-18.64,25.96-1.37.27-1.88-.58-1.88-1.3,0-.92.03-3.87.03-7.53,0-2.57-.86-4.21-1.85-5.06,6.09-.68,12.49-3.01,12.49-13.51,0-3.01-1.06-5.44-2.8-7.35.27-.68,1.23-3.49-.27-7.25,0,0-2.29-.75-7.53,2.8-2.19-.62-4.52-.92-6.84-.92s-4.65.31-6.84.92c-5.23-3.52-7.53-2.8-7.53-2.8-1.51,3.76-.55,6.57-.27,7.25-1.74,1.92-2.8,4.38-2.8,7.35,0,10.47,6.36,12.83,12.45,13.51-.79.68-1.51,1.88-1.74,3.66-1.57.72-5.51,1.88-7.97-2.26-.51-.82-2.05-2.84-4.21-2.8-2.29.03-.92,1.3.03,1.81,1.16.65,2.5,3.08,2.8,3.87.55,1.54,2.33,4.48,9.2,3.22,0,2.29.03,4.45.03,5.1,0,.72-.51,1.54-1.88,1.3-11.18-3.72-18.72-14.18-18.71-25.96,0-15.12,12.25-27.37,27.37-27.37Z"/>
  </g>
</svg>