<?xml version="1.0" encoding="UTF-8"?>
<svg id="Calque_2" data-name="Calque 2" xmlns="http://www.w3.org/2000/svg" viewBox="0 0 130.6 116.37">
  <defs>
    <style>
      .cls-1 {
        fill: #5fa04e;
        stroke: #d8d8d8;
        stroke-miterlimit: 10;
        stroke-width: 4px;
      }

      .cls-2 {
        fill: #f9f9f9;
      }
    </style>
  </defs>
  <g id="Layer_1" data-name="Layer 1">
    <g>
      <path class="cls-1" d="m92.23,114.37l-54.77-.44c-3.05-.02-5.85-1.67-7.35-4.33L3.11,61.95c-1.5-2.65-1.48-5.9.07-8.53L30.94,6.21c1.55-2.63,4.38-4.23,7.42-4.21l54.77.44c3.05.02,5.85,1.67,7.35,4.33l27,47.65c1.5,2.65,1.48,5.9-.07,8.53l-27.77,47.21c-1.55,2.63-4.38,4.23-7.42,4.21Z"/>
      <path class="cls-2" d="m65.67,82.26c-.68,0-1.31-.18-1.9-.5l-6-3.59c-.9-.5-.45-.68-.18-.77,1.22-.41,1.44-.5,2.71-1.23.14-.09.32-.05.45.05l4.6,2.77c.18.09.41.09.54,0l18-10.49c.18-.09.27-.27.27-.5v-20.93c0-.23-.09-.41-.27-.5l-18-10.44c-.18-.09-.41-.09-.54,0l-18,10.44c-.18.09-.27.32-.27.5v20.93c0,.18.09.41.27.5l4.92,2.86c2.66,1.36,4.33-.23,4.33-1.82v-20.66c0-.27.23-.54.54-.54h2.3c.27,0,.54.23.54.54v20.66c0,3.59-1.94,5.68-5.32,5.68-1.04,0-1.85,0-4.15-1.13l-4.74-2.72c-1.17-.68-1.9-1.95-1.9-3.31v-20.93c0-1.36.72-2.63,1.9-3.31l18-10.49c1.13-.64,2.66-.64,3.79,0l18,10.49c1.17.68,1.89,1.95,1.89,3.31v20.93c0,1.36-.72,2.63-1.89,3.31l-18,10.49c-.54.23-1.22.41-1.9.41Z"/>
      <path class="cls-2" d="m71.27,67.86c-7.9,0-9.52-3.63-9.52-6.72,0-.27.23-.54.54-.54h2.35c.27,0,.5.18.5.45.36,2.41,1.4,3.59,6.18,3.59,3.79,0,5.42-.86,5.42-2.91,0-1.18-.45-2.04-6.36-2.63-4.92-.5-7.99-1.59-7.99-5.54,0-3.68,3.07-5.86,8.21-5.86,5.78,0,8.62,2,8.98,6.36,0,.14-.04.27-.13.41-.09.09-.23.18-.36.18h-2.39c-.22,0-.45-.18-.5-.41-.54-2.5-1.94-3.31-5.64-3.31-4.15,0-4.65,1.45-4.65,2.54,0,1.32.59,1.73,6.18,2.45,5.55.73,8.17,1.77,8.17,5.68s-3.29,6.27-8.98,6.27Z"/>
    </g>
  </g>
</svg>