<?xml version="1.0" encoding="UTF-8"?>
<svg id="Calque_2" data-name="Calque 2" xmlns="http://www.w3.org/2000/svg" viewBox="0 0 130.73 116.3">
  <defs>
    <style>
      .cls-1 {
        fill: #fff;
      }

      .cls-2 {
        fill: #222;
        stroke: #d8d8d8;
        stroke-miterlimit: 10;
        stroke-width: 4px;
      }
    </style>
  </defs>
  <g id="Layer_1" data-name="Layer 1">
    <g>
      <path class="cls-2" d="m92.31,114.3l-54.8-.4c-3,0-5.9-1.7-7.4-4.3L3.11,61.9c-1.5-2.7-1.5-5.9.1-8.5L31.01,6.2c1.5-2.6,4.4-4.2,7.4-4.2l54.8.4c3,0,5.9,1.7,7.4,4.3l27,47.7c1.5,2.7,1.5,5.9-.1,8.5l-27.8,47.2c-1.5,2.7-4.4,4.3-7.4,4.2Z"/>
      <path class="cls-1" d="m82.03,33.78c-3.66.13-6.86,2.15-9.24,4.94-2.63,3.06-4.39,6.69-5.65,10.4-2.26-1.85-4-4.25-7.63-5.29-2.8-.8-5.74-.47-8.45,1.54-1.28.96-2.16,2.4-2.58,3.76-1.09,3.53,1.14,6.68,2.16,7.81l2.21,2.37c.46.47,1.56,1.68,1.02,3.42-.58,1.89-2.86,3.12-5.2,2.4-1.05-.32-2.55-1.1-2.21-2.19.14-.45.46-.78.63-1.17.16-.33.23-.58.28-.73.43-1.4-.16-3.21-1.65-3.67-1.39-.43-2.82-.09-3.38,1.71-.63,2.04.35,5.74,5.58,7.36,6.13,1.88,11.31-1.45,12.05-5.81.46-2.73-.77-4.75-3.02-7.35l-1.84-2.03c-1.11-1.11-1.49-3.01-.34-4.46.97-1.23,2.36-1.75,4.62-1.14,3.31.9,4.78,3.19,7.24,5.05-1.02,3.33-1.68,6.68-2.28,9.68l-.37,2.24c-1.76,9.23-3.1,14.29-6.59,17.2-.7.5-1.71,1.25-3.22,1.3-.79.02-1.05-.52-1.06-.76-.02-.56.45-.81.76-1.06.47-.25,1.17-.68,1.12-2.03-.05-1.6-1.37-2.98-3.29-2.92-1.43.05-3.62,1.4-3.53,3.86.09,2.55,2.46,4.46,6.04,4.34,1.91-.07,6.19-.85,10.4-5.85,4.9-5.74,6.28-12.32,7.31-17.14l1.15-6.36c.64.08,1.32.13,2.07.15,6.11.13,9.16-3.04,9.21-5.34.03-1.39-.91-2.76-2.24-2.73-.95.03-2.13.66-2.42,1.96-.28,1.28,1.94,2.44.21,3.57-1.23.8-3.45,1.36-6.56.9l.57-3.13c1.16-5.94,2.58-13.24,7.99-13.42.39-.02,1.84.02,1.87.97,0,.32-.07.4-.44,1.13-.38.57-.52,1.05-.51,1.61.05,1.52,1.2,2.51,2.87,2.45,2.23-.07,2.87-2.25,2.84-3.36-.09-2.62-2.85-4.28-6.51-4.16h0Z"/>
    </g>
  </g>
</svg>