<?xml version="1.0" encoding="UTF-8"?>
<svg id="Calque_2" data-name="Calque 2" xmlns="http://www.w3.org/2000/svg" xmlns:xlink="http://www.w3.org/1999/xlink" viewBox="0 0 130.73 116.3">
  <defs>
    <style>
      .cls-1 {
        fill: #fff;
      }

      .cls-2 {
        fill: #2fdd5c;
        stroke: #d8d8d8;
        stroke-miterlimit: 10;
        stroke-width: 4px;
      }

      .cls-3 {
        fill: url(#Dégradé_sans_nom_7);
      }
    </style>
    <linearGradient id="Dégradé_sans_nom_7" data-name="Dégradé sans nom 7" x1="-461.92" y1="-1094.82" x2="-462.79" y2="-1094.83" gradientTransform="translate(-3289.8 -27675.65) rotate(-161.71) scale(25.73 23.09)" gradientUnits="userSpaceOnUse">
      <stop offset=".23" stop-color="#999875"/>
      <stop offset=".56" stop-color="#9b9977"/>
      <stop offset=".68" stop-color="#a09f7e"/>
      <stop offset=".77" stop-color="#a9a889"/>
      <stop offset=".84" stop-color="#b7b69a"/>
      <stop offset=".9" stop-color="#c9c7b0"/>
      <stop offset=".95" stop-color="#deddcb"/>
      <stop offset=".99" stop-color="#f8f6eb"/>
      <stop offset="1" stop-color="#fbf9ef"/>
    </linearGradient>
  </defs>
  <g id="Layer_1" data-name="Layer 1">
    <g>
      <path class="cls-2" d="m92.31,114.3l-54.8-.4c-3,0-5.9-1.7-7.4-4.3L3.11,61.9c-1.5-2.7-1.5-5.9.1-8.5L31.01,6.2c1.5-2.6,4.4-4.2,7.4-4.2l54.8.4c3,0,5.9,1.7,7.4,4.3l27,47.7c1.5,2.7,1.5,5.9-.1,8.5l-27.8,47.2c-1.5,2.7-4.4,4.3-7.4,4.2Z"/>
      <path class="cls-3" d="m67.56,91.88l-1.83-.61s.24-9.26-3.11-9.91c-2.19-2.55.32-109.03,8.34-.36-1.52.77-2.69,2.1-3.25,3.71-.3,2.38-.35,4.78-.16,7.17Z"/>
      <path class="cls-1" d="m68.55,82.93c9.95-7.49,14.69-20.03,12.19-32.23-3.58-15.8-12.07-21-12.98-22.98-.79-1.24-1.46-2.54-2.01-3.9l.68,44.03s-1.4,13.46,2.13,15.08Z"/>
      <path class="cls-1" d="m64.8,83.52s-14.92-10.16-14.05-28.13c.16-10.96,5.07-21.32,13.45-28.39.98-.83,1.53-2.07,1.48-3.36.93,2,.78,29.84.87,33.09.38,12.67-.7,24.39-1.75,26.78Z"/>
    </g>
  </g>
</svg>