<?xml version="1.0" encoding="UTF-8"?>
<svg id="Calque_2" data-name="Calque 2" xmlns="http://www.w3.org/2000/svg" viewBox="0 0 130.73 116.3">
  <defs>
    <style>
      .cls-1 {
        fill: #f9f9f9;
      }

      .cls-2 {
        fill: #007acc;
        stroke: #d8d8d8;
        stroke-miterlimit: 10;
        stroke-width: 4px;
      }
    </style>
  </defs>
  <g id="Layer_1" data-name="Layer 1">
    <g>
      <path class="cls-2" d="m92.31,114.3l-54.8-.4c-3,0-5.9-1.7-7.4-4.3L3.11,61.9c-1.5-2.7-1.5-5.9.1-8.5L31.01,6.2c1.5-2.6,4.4-4.2,7.4-4.2l54.8.4c3,0,5.9,1.7,7.4,4.3l27,47.7c1.5,2.7,1.5,5.9-.1,8.5l-27.8,47.2c-1.5,2.7-4.4,4.3-7.4,4.2Z"/>
      <path class="cls-1" d="m83.69,40.53c1.86.43,3.55,1.41,4.86,2.8.72.75,1.34,1.59,1.86,2.5.02.1-3.35,2.37-5.4,3.63-.07.05-.37-.27-.7-.76-.76-1.31-2.14-2.13-3.65-2.18-2.35-.16-3.87,1.07-3.86,3.13-.02.51.1,1.01.33,1.45.52,1.07,1.48,1.71,4.5,3.02,5.56,2.39,7.94,3.97,9.41,6.21,1.68,2.87,2.02,6.33.91,9.46-1.53,3.46-4.82,5.81-8.59,6.15-1.97.23-3.95.21-5.92-.06-3-.49-5.77-1.94-7.9-4.12-.8-.9-1.48-1.91-2.02-2.99.23-.17.47-.32.71-.45.35-.2,1.65-.95,2.88-1.66l2.24-1.31.47.68c.79,1.13,1.79,2.09,2.95,2.82,2.39,1.31,5.31,1.16,7.55-.38,1.17-1.14,1.36-2.96.44-4.31-.6-.86-1.83-1.59-5.34-3.11-2.75-.93-5.25-2.46-7.32-4.49-.99-1.12-1.71-2.45-2.13-3.88-.31-1.63-.36-3.31-.14-4.95.84-3.88,4.02-6.83,7.96-7.37,1.96-.23,3.94-.17,5.88.18Zm-18.22,3.24l.02,3.18h-10.11v28.72h-7.13v-28.71h-10.11v-3.12c-.03-1.07,0-2.14.09-3.2.04-.05,6.19-.07,13.64-.06l13.57.04.04,3.16Z"/>
    </g>
  </g>
</svg>