<?xml version="1.0" encoding="UTF-8"?>
<svg id="Calque_2" data-name="Calque 2" xmlns="http://www.w3.org/2000/svg" viewBox="0 0 130.6 116.37">
  <defs>
    <style>
      .cls-1 {
        fill: #dd0031;
        stroke: #d8d8d8;
        stroke-miterlimit: 10;
        stroke-width: 4px;
      }

      .cls-2 {
        fill: #fff;
      }
    </style>
  </defs>
  <g id="Layer_1" data-name="Layer 1">
    <g>
      <path class="cls-1" d="m92.23,114.37l-54.77-.44c-3.05-.02-5.85-1.67-7.35-4.33L3.11,61.95c-1.5-2.65-1.48-5.9.07-8.53L30.94,6.21c1.55-2.63,4.38-4.23,7.42-4.21l54.77.44c3.05.02,5.85,1.67,7.35,4.33l27,47.65c1.5,2.65,1.48,5.9-.07,8.53l-27.77,47.21c-1.55,2.63-4.38,4.23-7.42,4.21Z"/>
      <path class="cls-2" d="m65.34,33.12l-20.9,46.87h7.79l4.2-10.49h17.74l4.2,10.49h7.79l-20.83-46.87h0Zm6.11,29.92h-12.21l6.11-14.69,6.11,14.69Z"/>
    </g>
  </g>
</svg>