<?xml version="1.0" encoding="UTF-8"?>
<svg id="Calque_2" data-name="Calque 2" xmlns="http://www.w3.org/2000/svg" viewBox="0 0 130.73 116.3">
  <defs>
    <style>
      .cls-1 {
        fill: #dd0031;
        stroke: #d8d8d8;
        stroke-miterlimit: 10;
        stroke-width: 4px;
      }

      .cls-2 {
        fill: #fff;
        fill-rule: evenodd;
      }
    </style>
  </defs>
  <g id="Layer_1" data-name="Layer 1">
    <path class="cls-1" d="m92.31,114.3l-54.8-.4c-3,0-5.9-1.7-7.4-4.3L3.11,61.9c-1.5-2.7-1.5-5.9.1-8.5L31.01,6.2c1.5-2.6,4.4-4.2,7.4-4.2l54.8.4c3,0,5.9,1.7,7.4,4.3l27,47.7c1.5,2.7,1.5,5.9-.1,8.5l-27.8,47.2c-1.5,2.6-4.4,4.3-7.4,4.2Z"/>
    <path class="cls-2" d="m69.82,33.18c-.36,0-.7.08-1.01.18.66.44,1.02,1.02,1.2,1.68.01.09.04.16.05.25.01.08.03.16.03.23.05,1.14-.3,1.28-.54,1.96-.38.87-.27,1.8.18,2.55.04.09.09.19.16.28-.49-3.28,2.24-3.77,2.75-4.79.04-.89-.7-1.49-1.28-1.9-.56-.34-1.06-.44-1.53-.44h0Zm4.12.74c-.05.3-.01.22-.03.38-.01.1-.01.23-.03.34-.03.1-.05.21-.09.31-.03.1-.06.21-.1.31-.05.1-.09.19-.14.3-.04.05-.06.1-.1.16-.03.04-.05.08-.08.12-.06.09-.13.18-.19.26-.08.08-.14.17-.23.23h0c-.08.08-.16.16-.25.22-.27.21-.58.36-.87.56-.09.06-.18.12-.26.19-.09.06-.17.13-.25.21-.09.08-.16.16-.23.25-.06.08-.14.17-.19.26-.06.09-.13.18-.18.27-.05.1-.09.19-.14.3-.04.1-.08.19-.1.3-.04.12-.06.22-.09.32-.01.05-.01.12-.03.17-.01.05-.01.1-.03.16,0,.1-.01.22-.01.32,0,.08,0,.16.01.23,0,.1.01.21.04.32.01.1.04.21.06.31.04.1.06.21.1.31.03.06.06.13.09.18l-2.98-1.15c-.51-.14-1-.27-1.5-.39-.27-.06-.54-.13-.82-.19-.78-.16-1.57-.27-2.36-.35-.03,0-.04-.01-.06-.01-.78-.08-1.54-.12-2.32-.12-.57,0-1.14.03-1.7.06-.79.05-1.58.16-2.37.28-.19.03-.39.06-.58.1-.4.08-.79.17-1.17.26-.19.05-.39.1-.58.16-.19.08-.38.17-.56.25-.14.06-.28.13-.43.19-.03.01-.05.01-.06.03-.13.06-.25.12-.36.18-.04.01-.06.03-.09.04-.14.06-.28.14-.4.21-.09.04-.18.09-.26.13-.04.03-.09.05-.12.06-.12.06-.23.13-.34.19-.12.06-.22.13-.31.19-.09.06-.18.12-.26.18-.01.01-.03.01-.04.03-.08.05-.17.12-.25.18,0,0-.01.01-.03.03-.06.05-.13.1-.19.16-.03.01-.05.04-.08.05-.06.05-.13.12-.19.17-.01.03-.04.04-.05.05-.08.08-.16.14-.23.22-.01,0-.01.01-.03.03-.08.06-.16.14-.23.22-.01.01-.01.03-.03.03-.06.06-.13.13-.19.21-.03.03-.06.05-.09.08-.06.08-.14.16-.22.23-.01.03-.04.04-.05.06-.1.1-.19.21-.3.31-.01.01-.03.03-.04.04-.21.22-.43.44-.66.63-.23.21-.48.4-.73.57-.26.18-.51.34-.78.49-.26.14-.53.27-.82.39-.27.12-.56.22-.84.31-.54.12-1.1.34-1.58.38-.1,0-.22.03-.32.04-.12.03-.22.05-.32.08-.1.04-.21.08-.31.12-.1.04-.21.09-.31.14-.09.06-.19.12-.28.18-.09.06-.18.14-.26.22-.09.06-.18.16-.26.23-.08.09-.16.17-.22.26-.06.1-.14.19-.19.3-.06.09-.13.19-.18.3-.05.12-.1.22-.14.34-.04.1-.08.22-.12.34-.03.1-.05.21-.06.31,0,.01-.01.03-.01.04-.03.12-.03.27-.04.35-.01.09-.03.17-.03.26,0,.05,0,.12.01.17.01.09.03.17.05.25.03.08.05.16.09.23h0c.04.09.09.17.14.25.05.08.1.16.17.23.06.06.14.14.22.21.08.08.16.14.25.21.31.27.39.36.79.57.06.04.13.06.21.1.01,0,.03.01.04.01,0,.03,0,.04.01.06.01.1.04.21.06.31.03.12.06.22.1.31.04.08.06.16.1.23.01.03.03.05.04.06.05.1.1.19.16.28.06.09.13.18.19.27.06.08.14.17.22.25.08.08.16.14.25.22,0,0,.01.01.03.01.08.06.16.13.23.18.09.06.18.12.28.17.09.05.19.1.3.14.08.04.17.06.26.09.01.01.03.01.05.03.05.01.12.03.17.04-.04.7-.05,1.36.05,1.59.12.26.69-.53,1.26-1.44-.08.89-.13,1.94,0,2.25.14.32.92-.69,1.59-1.8,9.18-2.12,17.56,4.22,18.44,13.18-.17-1.4-1.89-2.18-2.68-1.98-.39.96-1.05,2.19-2.11,2.95.09-.85.05-1.74-.13-2.59-.28,1.19-.84,2.31-1.61,3.26-1.23.09-2.46-.51-3.11-1.4-.05-.04-.06-.12-.1-.17-.04-.09-.08-.18-.1-.27-.04-.09-.06-.18-.08-.27-.01-.09-.01-.18-.01-.28v-.19c.01-.09.04-.18.06-.27.03-.09.05-.18.09-.27.05-.09.09-.18.16-.27.22-.62.22-1.13-.18-1.42-.08-.05-.16-.09-.25-.13-.05-.01-.12-.04-.17-.05-.04-.01-.06-.03-.1-.04-.09-.03-.18-.05-.27-.06-.09-.03-.18-.04-.27-.04-.09-.01-.19-.03-.28-.03-.06,0-.13.01-.19.01-.1,0-.19.01-.28.04-.09.01-.18.03-.27.05-.09.03-.18.05-.27.09-.09.04-.17.08-.26.12-.08.04-.16.09-.25.13-3.02,1.97-1.22,6.58.84,7.91-.78.14-1.57.31-1.79.48-.01.01-.03.03-.03.03.56.34,1.14.62,1.75.87.83.27,1.71.52,2.1.62h0c1.07.23,2.16.31,3.26.25,5.74-.4,10.44-4.77,11.29-10.52.03.12.05.22.08.34.04.23.09.48.12.73h0c.03.13.04.25.05.35v.05c.01.12.03.23.03.34.01.14.03.28.03.43v.21c0,.06.01.14.01.21,0,.08-.01.16-.01.23v.18c0,.09-.01.17-.01.26,0,.05,0,.1-.01.17,0,.09-.01.18-.01.28-.01.04-.01.08-.01.12-.01.1-.03.19-.04.3,0,.04,0,.08-.01.12-.01.13-.04.25-.05.38h0v.03c-.03.12-.05.25-.08.36v.04c-.03.12-.05.23-.08.35,0,.01-.01.04-.01.05-.03.12-.05.23-.09.35v.04c-.04.13-.08.25-.1.36-.01.01-.01.03-.01.03-.04.13-.08.26-.12.39-.05.13-.09.25-.14.38-.05.13-.09.26-.14.38-.05.13-.1.25-.16.38h-.01c-.05.12-.1.25-.17.36-.01.04-.03.06-.04.09-.01.01-.01.03-.03.04-.84,1.7-2.09,3.19-3.64,4.35-.1.06-.21.14-.31.22-.03.03-.06.04-.09.06-.09.06-.18.13-.28.19l.04.08h.01c.18-.03.36-.05.54-.08h.01c.34-.05.67-.12,1.01-.18.09-.01.19-.04.28-.06.06-.01.12-.03.18-.04.09-.01.18-.04.27-.05.08-.03.16-.04.23-.06,1.3-.31,2.55-.74,3.76-1.24-2.06,2.81-4.82,5.08-8.04,6.57,1.49-.1,2.98-.35,4.42-.76,5.22-1.54,9.61-5.05,12.24-9.78-.53,2.99-1.72,5.84-3.48,8.33,1.26-.83,2.41-1.79,3.46-2.88,2.9-3.03,4.8-6.88,5.45-11.01.44,2.05.57,4.16.38,6.24,9.35-13.04.78-26.56-2.81-30.12-.01-.03-.03-.04-.03-.06t-.01.03s0-.01-.01-.03c0,.16-.01.31-.03.47-.04.3-.08.58-.13.87-.06.28-.14.57-.22.85-.09.27-.19.56-.31.83-.12.26-.25.53-.39.79-.14.25-.3.51-.47.74-.17.25-.35.48-.53.7-.19.23-.4.44-.61.65-.13.12-.25.22-.38.32-.1.09-.19.17-.3.26-.23.18-.47.35-.73.51-.25.16-.51.31-.76.44-.27.13-.54.25-.82.36-.27.1-.56.19-.84.27-.28.08-.58.14-.87.19-.3.05-.6.08-.88.1-.21.01-.41.03-.62.03-.3,0-.6-.03-.88-.05-.3-.03-.6-.06-.88-.13-.3-.05-.58-.13-.87-.22h-.01c.28-.03.57-.05.85-.1.3-.05.58-.12.87-.19.28-.08.57-.17.84-.27.28-.1.56-.23.82-.36.27-.13.52-.27.78-.43.25-.17.49-.34.73-.52.23-.18.45-.38.66-.58.22-.19.41-.41.61-.63.19-.23.38-.47.54-.7.03-.04.05-.09.08-.13.13-.21.26-.41.38-.62.14-.26.27-.52.39-.79.12-.27.22-.54.31-.83.09-.27.16-.56.22-.84.05-.3.1-.58.13-.87.03-.3.05-.6.05-.88,0-.21-.01-.41-.03-.62-.03-.3-.06-.58-.1-.87-.05-.3-.12-.58-.19-.87-.09-.27-.18-.56-.28-.83-.1-.27-.23-.54-.36-.8-.14-.26-.28-.52-.44-.76-.17-.25-.34-.48-.52-.71-.19-.22-.39-.44-.6-.66-.1-.1-.22-.22-.34-.32-.58-.45-1.19-.88-1.8-1.27-.09-.05-.17-.09-.26-.13-.43-.27-.83-.41-1.23-.54h0Z"/>
  </g>
</svg>