<?xml version="1.0" encoding="UTF-8"?>
<svg id="Calque_2" data-name="Calque 2" xmlns="http://www.w3.org/2000/svg" viewBox="0 0 1275.96 1567.54">
  <defs>
    <style>
      .cls-1 {
        fill: #282828;
      }
    </style>
  </defs>
  <g id="OBJECT">
    <path class="cls-1" d="m1275.28,0h-47.2c-1.05,1.32-1.92,2.4-2.43,2.91-3.15-.35-6.41-.72-9.67-1.08.27-.6.55-1.22.81-1.83h-34.75c1.8,7.28,8.1,7.77-6.14,24.89,4.13-11.66,1.95-16.32-6.13-14.41-4.83,14.84-9.99,13.84-15,21.22,4.51-11.27,2.9-15.77,3.4-22.57-8.03,11.69-1.84-6.26-3.22-9.13h-1.4c-.74.54-1.79,1.68-3.22,3.64-1.94,13.21-3.58,15.13-7.14,26.7-8.79-1.51-27.1,32.07-24.87,10.94,8.12-12.01,6.88-18.07,16.65-34.83-3.95-3.81-7.55,8.25-11.43,7.87,1.17-4.64,2.55-9.52,3.86-14.32h-5.94c-.66,1.56-1.32,3.13-1.97,4.69-.29-2.13-.69-3.65-1.21-4.69h-6.36c-4.15,3.12-9.57,9.27-15.43,11.21l4.71-11.21H265.77c-1.16,21.33-28.17,77.91-30.41,98.3-5.92,2.11-21.69,27.12-21.17,32.17,1.74-3.24,12.16-11.59,7.68-3.28-2.28,10.6-13.62,16.31-9.64,20.65,1.07-2.33,3.76-4.49,1.9.3-8.95,15.44-17.93,15.64-26.89,22.51-6.61,1.26.14-21.95-9.57-10.27,1.37,10.82-29.08,46.52-40.33,55.71,6.69-17.06,2.29-32.01,17.29-50.29-5.05-7.86-3.27-14.01,3.81-30.22-.15,8.09,6.46-.2,11.51-7.09-10.88,3.07-10.53-2.94-3.83-5-8.88-1.46,7.3-17.68-.01-17.55-14.12,20.38-6.41,25.6-19.18,41.13,1.66-22.01,22.23-52.5,11.46-64.17,11.18-24.26,16.16-31.64,24.9-44.61-11.74,10.48,5.99-21.93,5.66-25.48-5.76-5.12-11.41,11.46-17.24,6.32-3.41,9.25-5.94,22.85-13.41,24.33,5.28-16.72,13.45-28.6,19.69-43.46h-26.26c.79,3.84,1.01,8.41.7,12.08-15.06,9.97-22.7,46.52-40.23,51.07.66,4.47,2.67,7.56,1.99,13.37-12.5,19.01-21.49,31.96-24.94,18.24-4.45,10.27-8.89,12.38-13.37,15.5.55-5.62,12.64-31.93,19.08-32.15,4.58-10.26,2.31-13.2,9.57-20.47-.49-6.83-2.31-12.31-3.92-18.03,13.5-19.99,6.49-20.75,17.15-36.78-4.53-.64-8.98-1.26-13.46-1.89-7.23,9.78-2.25,17.74-9.55,20.44,3.55-13.14-.11-23.34-9.68-14.47.25-2.57.72-4.79,1.52-6.91h-15.27c-2.47,3.44-4.95,5.01-7.42,3.93-4.02,7.61-2.01,9.28-5.68,16.59-3.22-.81-6.39.04-9.55,2.92,4.4-11.99-.57-15.67-4.46-23.44h-4.66c-.86.46-1.72.52-2.59.08-2.14,16.69-15.06,17.85-11.36,28.74-11.63,6.4-11.4,1.7-15.37-2.2,5.01-5.06,9.58-14.76,5.66-16.54-6.77,15.82-13.16,30.04-11.21,41.72-1,1.12-2.57,3.19-4.35,5.48v82.98c2.85-3.07,5.71.71,8.53-9.41,6.38,8.18,7.75,14.22,13.5,23.89-17.1,19.47-14.62,41.71-21.12,58-2.68.99.02,1353.2-.91,1354.8h485.68c15-24.49-14.7,3.29,5.43-26.51,6.29,3.71,19.93-15.38,13.22,2.88,14.26-18.75,5.11-17.76,17.18-34.66,1.89.42,3.83.85,5.67,1.25,9.5-12.74-.14-9.29,9.34-22,16.35-16.38,32.71-31.96,50-46.82-15.38,19.15-21.83,44.18-40.1,58.55,4.35-9.7,13.11-23.16,10.03-26.59-18.11,19.42-7.79,29.86-28.81,46.52-5.58,16.78-16.55,32.79-26.97,47.38h17.94c9.75-9.84,16.55-18.07,15.9-24.93-1.01,5.79-13.25,21.45-15.33,18.93-.5-4.3-2.09-7.64,4.79-18.18,17.37-13.01,11.24-15.49,28.12-41.91-2.38,13.47,20.4-20.6,11.39,2.42,9.5-8.63,18.12-38.82,29.3-36.93-4.31,9.06-19.58,27.35-16.46,30.07,9.32-13.92-4.37,17.75,7.58,1.61,5.21-21.82,24.96-25.71,30.43-46.42,2.26.76-.62,6.07,3.16,5.49,5.74-13.84,5.72-11.47,14.45-20.99-4.41-6.03-12.44,15.45-17.01,10.86,26.96-46.86,31.42-60.09,57.17-79.36-2.66,5.06-7.48,12.1-5.61,13.19,3.91-5.2,7.57-8.23,10.69-7.37,13.24-19.98,13.79-28.73,16.87-39.66,46.18-58.24,97.41-125.43,131.95-199.05,3.75.82-4.13,12.29,2.85,10.07,10.5-21.45,11.78-40.7-5.24-24.72,4.99-10.55,8.68-8.74,13.87-21.23-3.83-.69-7.62-1.37-11.5-2.07,11.41-18.97,11.95-27.89,7.16-31.92-8.59,7.91-15.26-3.22-24.39,9.86-.86,12.86-5.52,20.88-17.15,34.8,4.48,2.2,17.51-3.48,4.3,15.01-3.31-14.34-4.86-4.73-16.67,11.16-6.13-5.77,2.78-30.28,18.11-44.13-2.57-.46-5.06-.91-7.64-1.38-13.65,25.49-19.28,37.49-23.38,57.41-2.77-4.5,2.33-16.24,2.42-23.35-13.78,15.83-75.59,146.87-104.37,136.92-13.92,16.52-29.07,34.76-38.77,58.95,3.91,4.95,10.45-10.29,15.12-11.31-7.51,19.83-19.17,36.05-32.57,41.11,7.78.43-8.42,28.2-15.58,30.21,4.93,4.78-6.68,25.06-15.6,30.22,1.49-3.36,1.32-5.28-1.27-5.04,3.4-6.46,9.88-15.58,8.07-17.42-9.13,12.34-12.08,14.97-15.67,15.84-2.07,8.54-8.55,14.34-6.81,22.5,5.59-7.37,4.83-18.82,12.5-21.29-.37,7.84,2.11,13.24-5.54,27.54-27.67,20.56-22.83,3.66,2.27-47.31,11.1-8.68,17.48-14.49,25.64-32.89-1.45-6.54-15.17,10.85-9.47-1.95,7.02-12.79,15.48-13.06,16.81-25.1-3.52-7.76-11.46,18.88-15.02,11.16.67-17.39,17.86-30.94,24.16-52.16,2.66-.25,4.98,1.79,8.2-3.13,9.96-31.84,31.22-55.42,47.94-90.23,3.98,4.95,10.39-13.62,14.69-11.35,7.92-24.5,27.16-50.19,31.38-60.48-11.28,38.81-38.9,88.45-67.22,119.92,12.28-7,26.33-31.88,37.74-40.12,8.77-12.95-.64-9.28,8.09-22.16,10.26-5.76,19.78-16.82,13.36,2.47,9.32-16.99,12.16-20.57,11.36-35.77-6.22,7.66-2.25,15.4-9.49,17.16-4.36-8.53,17.66-29.86,25.67-42.57-6.47-.05-14.72,17.49-21.39,19.7,11.38-17.33,10.89-18.11,21.35-38.61-3.16-.9-6.46-.15-10.03,2.87,9.24-28.21,35.9-65.68,33.15-78.86-6.86,3.63-14.52,15.69-21.4,19.66,11.11-21.81,37.88-44.35,49.11-66.54-.2,6.84-10.1,22.3-16.77,34.68,15.57-9.56,18.83-24.14,20.94-38.69,7.26-7.08,14.39-3.87,12.15-7.27,7.79-15.36-11.11,8.07-3.48-5.3l4.56-8.66c-.59,5.33,7.97,3.08,13.71-2.32-3.25-1.94,2.4-12.37-.86-14.3-5.42,10.86-3.42,14.15-10.96,16.98,7.13-19.29,15.76-27.17,21.05-48.18,5.68,3.27,23.1-17.22,23.45-28.89-5.29,10.73-10.6,21-15.11,20.95,10.64-16.62,16.05-41.19,19.74-57.69-6.22-3.08-13.51,7.67-20.5,15.32,4.93,3.09,12.84-14.04,11.84-2.71-13.89,21.56-23.36,34.03-27.42,56.37-10.01,10.59-21.97,1.77-26.29,14.36,4.46-8.37-7.6-2.99-5.02-10.32-6.13,13.62-12.87,14.62-12.16,7.33-4.91,13.85-6.49,11.23-9.35,21.86-12.09,5.96-24.09,12.45-37.19,31.09,4.64,1.39,20.4-16.3,17.93-6.29-5.99,11.57-10.99,8.28-17.35,20.44,6.03,8.7,35.14-44.96,39.72-35.32-7.58,14.12-13.87,15.6-22.04,33.74-6.11-4.72-21.57,22.48-34.2,31.43,3.03-7.76,15.41-16.7,11.81-21.31-12.23,15.58,1.97-9.84-1.04-9.57-1.05-.67-11.81,8.73-10.01,2.93,4.63-7.73,9.15-15.93,12.95-24.36,9.29-20.17,19.31-50.15,23.33-67.73-12.21,12.86-27.56,100.07-52.17,75.22,1.14,12.31-12.8,13.53-17.97,24.83,2.8.95,6.94.64,1.01,9.59-2.53-.46-5.07-.92-7.65-1.38,8.26-20.6,21.22-36.69,28.5-55.77-2.91,4.73-5.62,6.29-8.3,7.89,5.05-13.71,10.81-13.48,9.65-26.41,22.2-5.07,35.98-55.1,59.53-73.94-8.93,19.32,3.28,13.77-1.01,13.87-.65-6.5,16.41-32.41,21.47-29.07-6.39,17.36-11,9.42-16.97,20.47,8.07,1.06,17.13-11.88,21.18-24.5-8.93,2.06-6.83-6.38-.61-18.75,5.69,1.69,12.36-10.36,17.88-6.33,15.72-33.1,16.65-19.83,23.43-28.86,12.15-19.74-8.04,5.1-1.27-9.49,16.52-30.49,34.88-41.77,44.58-67.51,3.52.18,5.48,1.89,5.57,5.51,6.67-15.72,23.21-30.3,22.46-24.52-2.85,11.26-14.14,9.12-10.53,17.08,3.5-5.36,6.88-8.49,10.08-7.81,3.9-14.71,8.87-21.56,16.65-25.37-2.01-7.12,19.9-40.67,29.63-51.46,6.94.46-5.07,19.75-1.07,23.13,4.32-9.53,8.37-13.57,12.18-12.11-2.22,5.11-6.43,12.24-4.51,13.27,5.54-10.65,10.66-20.87,10.98-26.34-24.13,13.54,1.85-29.71-2.12-37.51,9.93-11.63,12.26-17.28,19.08-34.41-9.29,5.73-9.57-1.32-5.12-14.69-14.64-.4-23.66-9.36-12.66-29.65-2.7,5.01-5.28,4.34-7.82,3.55-3.51,7.74-6.96,25.93-14.69,30.26.4-8.71,5.06-7.6,10.63-21.58-8.75,4.48,5.12-14.29-3.62-9.8-6.64,13.69-14,25.58-20.32,24.83-10.25,26.68-7.22,34.87-22.18,61.61-1.96-.24-.56-3.84-1.72-4.89-8.3,20.89-21.78,42.98-24.39,65.99-1.91-.32-4,3.13-5.98,3.73-5.94-9.41,3.01-12.57-2.96-19.09,13.06-9.97,2.81-13.98,16.45-20.67-3.38-1.07,5.74-14.47.64-13.85-5.69,7.28-14.79,22.66-14.1,11.8-9.2,17.68-9.04,27.32-18.99,34.22,8.43-13.5,6.39-16.56,6.83-22.16,7.28-3.93,17.23-24.77,4.23-8.6,10.61-17.53,14.61-25.86,17.08-34.51-2,5.32-12.92,14-7.9,3.41,7.06-13.22,13.47-12.15,20.29-20.1.65-8.65-8.88,4.98-3.43-9.81-.79,13.56,8.69-9.89,14.52-20.97-10.14,1.66-.86-7.87,4.68-17.83-14.2-13.26-20.96-29.61-15.85-53.12,6.86-10.3,4.96-9.17,14.07-25.7,2.34-7.66-9.27-.99-5.57-10.04,4.48,1.3,9.03-1.08,13.67-7.3,1.62-6.15-7.12-1.67-3.67-9.71,13.57-15.8,14.42.99,27.48-19.23-3.82-2.41-7.87,7.3-11.65,2.99,14.81-27.18,18.52-42.75,34.23-64.41,7.62,6.24,15.7-8.6,23.69-19.87,9.82,9.68-.37,11.4,17.47-2.27-2.72,6.54-8.17,15.94-6.18,17.62,6.01-9.14,11.94-14.7,17.67-11.47-2.68,6.55-8.18,15.97-6.19,17.63,9.54-21.98,18.17-2.62,27.66-24.02-10.95,7.52-15.58-8.26-15.01-24.97-2.67,5.06-5.41,12.36-8,12.72,11.78-28.49-6.08-26.92,12.01-62.91,3.87-5.88,7.73.29,11.59-7.69-7.55-8.09-5.26-26.69-1.96-46.25,7.08-9.68,14.17-13,21.27-20.35-1.39,5.32-2.32,10.14-1.94,13.53,8.6-24,21.17-31.19,19.29-15.97,9.24-19.03,4.41-23.06,11.6-39.93,4.51,4.55,8.99-10.8,13.5-12.12,6.12,8.41-11.24,32.01-11.55,39.94,18.08-11.58-18.14,54.57-15.46,67.1,17.83-4.14,11.23-28.08,23.21-52.38,5.66-10.21,15.52-17.22,15.48-7.33,8.63-27.25,12.54-49.35,30.97-69.84,2.15-11.02-9.35,7.16-5.84-5.26,3.2-5.05,6.47-9.72,9.68-12.67-3.43,7.52-3.45,11.35-1.94,13.57,5.45-10.72,12.15-24.05,22.98-29.5-4.7,1.66,2.22-20.89,7.28-22.21-2.42,5.85,1.69,4.45.19,9.24-10.8,24.73-19.33,45.92-11.03,49.33,17.58-16.35,34.49-31.29,51.49-53.94-7.7,20.36-15.71,26.42-18.84,25.52,4.37,4.85-12.77,19.7-5.51,22.39,9.13-10.3,17.57-28.12,26.62-29.18,7.84-3.19-.79,11.84,2.21,14.04,12.34-18.75,31.03-44.54,37.95-37.25,7.12-13.38-1.77-9.05,5.34-22.42,9.37-5.4,7.22,13.74,15.52,1.71-.11-1.41-.36-2.67-.67-3.87ZM6.63,69.53c-7.32,2.15,4.2-14.38-5.79-9.57,3.8-8.09,7.65-4.38,11.39-15.69-1.41,7.97-1.85,14.95-5.59,25.26ZM35.1,12.82c4.57-1.37,2.45,13.74,9.6-2.96,2.01,1.65-3.18,10.43-5.68,16.56-.11-8.16-4.6-1.12-9.6-1.37,1.9-4.09,3.78-8.14,5.68-12.23Zm-7.16,107.84c4.42-18.41-20.99,6.33-5.82-22.75,8.64.95,15.98,3.12,5.82,22.75Zm1.61-69.48c4.41-12.68,8.88-14.57,13.32-24.22,1,8.48-6.01,24.95-1.77,30.2-5.39,8.02-8.94-4.02-11.55-5.98Zm11.68,36.54c3.91-16.47,3.6-22.72,15.21-36.98,1.5-4.8,1.44-10.89-1.94-4.66-8.82,9.45,6.57-12.89,9.55-16.07,7.69,10.12,14.04,10.3,15.43,24.06-12.74,15.35-25.5,19.34-38.26,33.65Zm19.28,20.29c-1.32-3.09.51-9.32,3.75-16.89,2.65.39,5.22.76,7.73,1.12-3.82,13.54-7.65,2.16-11.48,15.77Zm97.81-60.16c6.97-1.1-7.34,19-3.82,21.41-3.43,6.65-6.01-5.51-13.44-1.99,5.72-11.99,11.5-11.22,17.26-19.42Zm-9.48,108.32c-6.57,16.03-4.72,14.94-13.39,24.35-5.71-1.01,8.04-30.04,13.39-24.35Zm-1.94,70.2c-7.33,11.9,1.6-10.02-5.74-5.3,5.76-6.68,11.5-15.61,17.26-15.05-2.86,13.48-15,15.79-11.51,20.35Zm36.48-21.03c-2.87-.32,2.02-18.28-5.78-.84,3.52-39.38,23.49-25.83,23.08-27.45,1.99-.55,1.06,1.86,0,4.39,1.26.23,2.56.36,3.83.58-7.06,10.56-14.1,12.76-21.13,23.32Zm637.64,867.39c4.12,4.16,9.38-3.14,13.87-2.3l-9.58,17.31c-4.02-4.99-10.43,13.5-15.23,16.15,8.35-14.06-2.4-8.38,10.94-31.16Zm-22.91,52.75c6.38.45.44,12.24-4.26,22.94-4.26-2.43-.19-12.54,4.26-22.94Zm-194.88,310.01c11.99.69-3.15,14.67-7.49,27.21-7.78.03,3.43-16.81,7.49-27.21Zm32.22-354.18c6.33,4.97-7.55,19.1-6.96,31.58-.12-4.81-4.75-5.47-4.86-10.29,3.95-7.11,7.88-14.2,11.81-21.29Zm-24.94,56.44c-.82-4.15,1.82-11.48,7.99-22.01,1.87.37,3.77.74,5.68,1.07-4.87,10.4-8.59,8.6-13.67,20.94Zm10.09,53.89c-10.55,11.54,3.95-17.49,4.25-22.82,10.58-11.62-3.88,17.41-4.25,22.82Zm78.31-84.44c.5-6.78,5.26-17.48,12.8-30.7,7.49-1.97,4.51,5.69,9.05,6.38-7.78,13.16-13.5,5.52-21.85,24.32Zm51.73-70.71c-4.92,11.78-10,24.22-17.06,34.62-.26-2.55-.6-5.08-3.33-5.34,7.14-13.32,13.64-20.04,20.39-29.28Zm-62.77-34.8c4.8-9.25,7.87-.73,11.95-2.53-2.92,3.24-5.83,6.56-9.03,12.46-6.89,2.13.86-9.16-2.92-9.93Zm-2.22,23.08c3.75,1.44,9.22-14.95,13.71-20.98,3.71.1,1.14,5.94,5.28,5.63-6.11,9.87-13.47,16.94-14.15,25.6,5.54-3.73,12.26-19.5,17.52-20.27-3.27,10.87-10.89,20.94-21.25,38.38,10.11-10.43,19.07-9.19,30.38-32.07,8.13-3.27-1.91,10.14-5.63,17.77,4.68,3.64,10.33-6.94,9.58,1.72,4.41-12.37,10.08-22.63,18.91-34.2,4.55,4.12-12.01,24.4,2.47,14.55-5.92,14-10.34,12.82-15.18,16.02-2.47,5.1,1.47,4.26,3.33,5.4-5.97,8.66-7.99,8.49-8.09,3.19-3.85,9.13-2.19,14.81-9.94,21.77-3.75.62-1.04-4.69-3.35-5.35-19.31,19.43-25.89,50.85-44.99,81.25,4.65-1.11,10.23-11.54,14.25-6.7-7.07,12.49-12.43,7.98-19.93,24.55-4.78-9.47-15.03,13.13-23.71,23.88-7.39-3.07-7.8-12.5,3.3-32.5-3.86-.63-8.9,11.21-12.36,7.13,23.31-50.1,43.72-73.26,61.89-115.66-18.89,16.92,1.31-16.31-17.2-3.12-5.16,11.05-8.15,20.13-8.43,26.63-9.69,13.13-7.08-2.29-19.42,19.92-4.21-3.14-2.37-11.83-6.28-15.28,9.95-16.75,3.97,6.04,12.8-11.73,5.54-.85-.16,8.6,7.17,6.07-4.83-5.39,8.58-27.49,11.69-40.13,7.94,10.86,17.91-15.14,17.64-1.47Zm239.98-427.48c-5.59,11.42-15.21,26.84-4.91,22.49-5.18,13.42-9.78,15.45-14.8,25.67-4.32-4.03-9.19,3.35-13.67,2.56,11.76-17.73,15.88-48.46,33.38-50.72Zm-29.3,4.86c5.69,3.84-4.31,20.65-10.9,26.24-3.98-1.17,8.25-18.49,10.9-26.24Zm148.74-445.87c-6.68-4.42,7.62-27.54,13.45-39.62-.71,9.04-7.6,32.25-13.45,39.62Zm131.6-89.89c-7.54,1.15-10.11-2.93-13.6-6.19,10.95-18.21,14.76-17.53,22.44-34.19,3.87,5.9-1.95,22.63-8.84,40.38Zm57.33-30.3c-9.67-1.27,3.52-13.13,9.09-31.26,7.39,4.14-2.76,14.08-9.09,31.26Z"/>
  </g>
</svg>