<?xml version="1.0" encoding="UTF-8"?>
<svg id="Calque_2" data-name="Calque 2" xmlns="http://www.w3.org/2000/svg" viewBox="0 0 744.29 888.32">
  <defs>
    <style>
      .cls-1 {
        fill: #161314;
        fill-rule: evenodd;
      }
    </style>
  </defs>
  <g id="ink_splash" data-name="ink splash">
    <g>
      <path class="cls-1" d="m272.87.45c.31-.08,2.02-.66,3.59-.36,5.82,1.12,13.97,11.47,12.57,21.9-.54,3.99-2.98,8.04-7.18,8.62-7.15.97-14.34-7.82-15.44-14.36-1.2-7.15,1.92-14.64,6.46-15.8Z"/>
      <path class="cls-1" d="m555.08,32.04c1.29-.34.64,1.55.36,1.8-1.13-.25-.47-.96-.36-1.8Z"/>
      <path class="cls-1" d="m356.53,37.79c3.67,1.54,6.61,7.21,3.59,10.41-4.86-.27-5.38-7.47-3.59-10.41Z"/>
      <path class="cls-1" d="m384.53,57.53c4.13.76,4.48,9.21.36,8.98-3.43-.19-3.96-7.67-.36-8.98Z"/>
      <path class="cls-1" d="m401.77,59.33c8.34-1.28,12.65,14.75,7.54,22.62-1.35,2.08-4.58,3.99-6.82,3.95-5.05-.09-8.67-6.66-8.62-12.57.06-6.63,3.38-12.17,7.9-14Z"/>
      <path class="cls-1" d="m384.89,68.3c11-2.93,11.63,22.41,3.59,23.7-5.79.93-11.81-5.85-11.49-12.93.18-4.03,4.01-9.74,7.9-10.77Z"/>
      <path class="cls-1" d="m313.8,81.59c8.42-2.85,11.35,13.36,4.31,14.36-6.72.96-10-10.48-4.31-14.36Z"/>
      <path class="cls-1" d="m409.31,97.75c1.55.03,2.18,2.4,1.44,3.59-1.39.31-1.28-.88-2.15-1.08-.23-1.31.24-1.91.72-2.51Z"/>
      <path class="cls-1" d="m382.74,103.49c4.35-.47,8.21,4.4,6.46,10.05-5.74,5.72-12.77-6.88-6.46-10.05Z"/>
      <path class="cls-1" d="m333.55,132.57c2.33,3.24,10.73,6.64,8.98,13.64-1.05,4.18-7.32,3.14-9.69-.36-2.12-3.13-2-7.91-2.15-12.21-11.1-.37-15.25-11.03-12.57-21.9,2.08-1.9,2.28-4.62,5.75-5.03,7.7-.91,14.12,8.35,14,16.16-.06,4.04-2.27,6.79-4.31,9.69Z"/>
      <path class="cls-1" d="m372.33,113.9c1.94-.17,2.65,3.58.36,3.59-1.05-.35-1.69-3.01-.36-3.59Z"/>
      <path class="cls-1" d="m365.14,115.34c5.43-1.96,8.94,9.05,3.23,9.69-3.85.43-8.56-7.77-3.23-9.69Z"/>
      <path class="cls-1" d="m405,146.22c-2.08,6.42-10.61,7.8-15.8,2.87-3.09-2.93-4.94-8.96-4.31-13.28.41-2.8,3.23-6.62,5.74-7.18,4.7-1.05,9.9,2.26,11.85,5.03,2.39,3.4,2.6,6.91,2.51,12.57Z"/>
      <path class="cls-1" d="m410.02,128.98c5.83-1.95,7.96,11.66,1.44,11.49-4.91-.13-5.83-10.02-1.44-11.49Z"/>
      <path class="cls-1" d="m426.54,130.42c3.7,1.67,3.09,9.61-1.08,8.98-3.48-.53-2.81-8.47,1.08-8.98Z"/>
      <path class="cls-1" d="m446.29,150.52c.64-.04.76.44,1.43.36.04,1.5-.7,1.96-1.79,1.44-.11-.83.06-1.38.36-1.8Z"/>
      <path class="cls-1" d="m438.39,150.88c1.23-.04,1.82,3.43,0,3.23-1.69-.08-1.23-3.07,0-3.23Z"/>
      <path class="cls-1" d="m421.51,158.78c.63.09.82.62.72,1.44h-1.08c-.15-.75.24-.95.36-1.44Z"/>
      <path class="cls-1" d="m348.27,160.94c4.15-3.05,12.23,9.87,5.03,10.41-4.25.32-5.62-6.2-5.03-10.41Z"/>
      <path class="cls-1" d="m385.61,162.73c-.73-.35-.78-1.38-.72-2.51,1.09.22,1.84.8,1.8,2.15l-.66-.18-.42.54Z"/>
      <path class="cls-1" d="m386.51,165.78l.54.18c.78.43,2.41,1.88,1.44,2.87.24,1.55-2.52.12-2.87,1.08l-.42-.54-.66.18c.09-1.71,1.1-2.49,1.44-3.95l.54.18Z"/>
      <path class="cls-1" d="m384.35,171.17l.54-.18c.22,5.76-1.78,11.53.36,17.23.58,1.56,1.9,2.59,2.51,3.95,1.23,2.73,1.25,6.52,2.51,9.33,1.65,3.69,6.28,6.42,6.46,12.21.12,3.82-2.2,8.4-6.46,8.26-2.2-.07-4.67-1.91-5.39-2.51-2.07-1.75-3.81-5.1-4.31-8.98-.28-2.17.6-4.57,0-6.82-.51-1.93-2.1-2.72-2.87-4.31-7.01-.77-8.77-6.79-12.21-11.13-5.56-.02-8.45-5.88-6.46-11.13,2.36-.44,2.76,1.07,4.67,1.08,1.59-4.21,3.41-9.48,7.54-9.69,3.95-.2,8.23,6.24,12.93,2.15l.18.54Z"/>
      <path class="cls-1" d="m186.7,167.76c-1.36-.2-2.08-1.03-2.15-2.51,1.56-1.2,3.74,1.56,2.15,2.51Z"/>
      <path class="cls-1" d="m424.03,166.68h1.08v1.44c-.75.15-.95-.25-1.44-.36.19-.29.38-.58.36-1.08Z"/>
      <path class="cls-1" d="m398.18,169.91c3.83-2.46,6.31,5.11,2.87,6.1-3,.87-5.87-4.18-2.87-6.1Z"/>
      <path class="cls-1" d="m584.88,172.43c-.32.16-.64.32-.72.72-1.15-.05-1.58-.81-1.44-2.15,1.42-.34,2.14-.33,2.16,1.44Z"/>
      <path class="cls-1" d="m427.62,177.45v.72c-1.75.36-.66-1.91,0-.72Z"/>
      <path class="cls-1" d="m441.98,178.17c2.79,3.68-.44,10.71-4.67,7.18-2.19-3.66.5-9.82,4.67-7.18Z"/>
      <path class="cls-1" d="m352.58,183.92c3.21-.42,3.48,5.46.36,5.74-2.2.2-4.71-5.17-.36-5.74Z"/>
      <path class="cls-1" d="m441.26,196.48c-.42-.06-.64.08-.72.36-1.56.37-1.65-.74-2.51-1.08-1.1-5.86,5.72-3.92,3.23.72Z"/>
      <path class="cls-1" d="m576.98,193.25c11.45-2.53,10.86,20.19-1.08,19.75-3.43-.13-7.41-3.65-6.46-10.77.57-4.26,3.16-6.41,7.54-8.98Z"/>
      <path class="cls-1" d="m357.25,195.05c4.01-1.1,8.42,2.19,8.98,6.46.49,3.77-1.37,8.73-6.82,7.9-2.1-.32-5.05-2.45-5.74-5.74-.83-3.92.38-7.73,3.59-8.62Z"/>
      <path class="cls-1" d="m191.37,199.35c-.42.53-.9,1.01-1.44,1.44-1.94-.1-2.94-1.13-2.87-3.23,1.67-1.33,4.19-.44,4.31,1.79Z"/>
      <path class="cls-1" d="m421.87,200.79c7.52-1.75,9.98,10.75,3.23,11.85-6.23,1.01-11.31-9.97-3.23-11.85Z"/>
      <path class="cls-1" d="m401.05,201.87c2.24-.36,3.74,3.63,1.08,3.95-1.05-.74-1.64-2.64-1.08-3.95Z"/>
      <path class="cls-1" d="m463.16,210.13c2.49,1.8,1.64,7.13-1.08,7.18-3.59.07-3.52-7.22,1.08-7.18Z"/>
      <path class="cls-1" d="m371.97,215.15c-.42-.06-.64.08-.72.36-5.73-1.47,2.31-8.02.72-.36Z"/>
      <path class="cls-1" d="m447.01,211.92c.67.68.04.9,0,1.8,4.49,3.77,2.97,13.22-3.23,12.21-4.8-.79-4.74-9.15-1.08-11.85,1.56-.24,2.94-.65,3.23-2.15h1.08Z"/>
      <path class="cls-1" d="m314.52,216.95c.94.18,2.02,1.17,1.08,2.15-1.61.49-1.74-1.45-1.08-2.15Z"/>
      <path class="cls-1" d="m419.72,223.41c.74,4.25-3.68,3.48-3.95,1.44-.26-1.95,2.15-3.44,3.95-1.44Z"/>
      <path class="cls-1" d="m491.17,224.13c1.91,2.39.65,6.51-1.79,7.54-2.64-1.18-2.81-8.51,1.79-7.54Z"/>
      <path class="cls-1" d="m424.39,225.56c3.49-.56,7.34,2.45,7.18,7.18-.1,3.04-2.31,6.16-6.46,5.75-3.28-.33-8.83-7.04-4.31-11.49.69-.68,2.39-1.24,3.59-1.44Z"/>
      <path class="cls-1" d="m310.57,229.51c-1.14.96-2.62-.04-2.51-1.44,1-.83,2.86-.2,2.51,1.44Z"/>
      <path class="cls-1" d="m370.53,230.23c1.6-.29,1.99.64,2.15,1.8-1.38,1.12-3.05-.52-2.15-1.8Z"/>
      <path class="cls-1" d="m394.23,235.98c2.61-1.21,5.26-2.4,6.82-4.67,3.55.29,5.29,5.45,2.51,7.9,3.28,12.92-13.56,7.62-9.34-3.23Z"/>
      <path class="cls-1" d="m439.83,237.05c-.88-.65-1.46-1.34-1.44-2.15.14-4.91,7.23.64,1.44,2.15Z"/>
      <path class="cls-1" d="m332.11,234.18c1.01.07,1.53.62,1.44,1.79-1.2.86-2.33-.71-1.44-1.79Z"/>
      <path class="cls-1" d="m510.56,235.98h1.08v1.08c-.78.07-1.14-.29-1.08-1.08Z"/>
      <path class="cls-1" d="m371.97,250.34c-1.43-3.82-3.33-5.89-2.87-9.34.98-7.32,10.32-4.58,11.49.36,1.44,6.1-3.77,8.13-8.62,8.98Z"/>
      <path class="cls-1" d="m229.07,238.85c1.01.07,1.53.62,1.44,1.8-1.03-.05-1.7-.45-1.44-1.8Z"/>
      <path class="cls-1" d="m211.12,244.59c-2.55,1.03-5.2-.72-5.03-3.59,2.82-1.41,6.33.84,5.03,3.59Z"/>
      <path class="cls-1" d="m297.65,241.72c3.25-.44,4.5,3.48,2.15,4.67-2.04-.09-3.17-2.69-2.15-4.67Z"/>
      <path class="cls-1" d="m482.55,242.08c1.11,1.86-.43,3.77-1.8,4.31-3.3-.41-1.53-6.56,1.8-4.31Z"/>
      <path class="cls-1" d="m457.78,243.52c.3.42.47.96.36,1.8-1.34.38-1.16-.75-1.8-1.08.09-.63.62-.82,1.44-.72Z"/>
      <path class="cls-1" d="m256,244.23c1.13.07,1.73.67,1.8,1.8-.32.16-.64.31-.72.72-.84-.12-1.55-.37-1.79-1.08-.26-.98.71-.72.72-1.44Z"/>
      <path class="cls-1" d="m477.88,244.95c.51.48.51,2.03,0,2.51-1.13.17-1.47-.45-1.79-1.08.07-1.01.62-1.53,1.79-1.44Z"/>
      <path class="cls-1" d="m280.77,252.49c-.86,1.04-1.98,1.26-3.59.72-1.8,1.17-1.23,3.35-3.23,3.95-3.65,1.09-7.54-2.67-7.54-6.46,2.22-4.43,8.17.24,11.13-2.15,2,.4,3.26,1.53,3.23,3.95Z"/>
      <path class="cls-1" d="m445.21,249.98c.49.46.49,1.69,0,2.15-.67-.4-1.73-.42-1.44-1.79.32-.28.81-.39,1.44-.36Z"/>
      <path class="cls-1" d="m477.16,250.7c1.54-.43,2.52,1.76,1.08,2.15-1.11.03-1.07-1.09-1.08-2.15Z"/>
      <path class="cls-1" d="m485.06,264.7c-.67,2.95-3.4,6.58-6.46,3.95-1.32-3.41,1.07-5.75,2.51-7.54,1.72.44,2.6,1.71,3.59,2.87-.02-4.41,1.38-8.72,4.67-11.49,1.48-1.24,1.68-1.97,4.31-1.79,7.85,6.24-3.04,25.33-8.62,14Z"/>
      <path class="cls-1" d="m475.37,255.36c-1.98-.32-1.79-2.08-1.44-3.95,2.62-1.56,3.35,3.07,1.44,3.95Z"/>
      <path class="cls-1" d="m307.34,270.09c-2.44.17-3.42-1.13-4.31-2.51-6.06,1.39-9.12-3-10.41-7.54-1.45-1.42-2.81-2.93-2.51-6.1,1.65-1.06,3.71-2.53,6.46-1.44,7.92-4.35,15.9,4.56,11.13,11.85.92,1.85,1.66,4.56-.36,5.75Z"/>
      <path class="cls-1" d="m478.6,253.93c1.05-.53,1.05,1.6,0,1.08v-1.08Z"/>
      <path class="cls-1" d="m472.86,254.65c.98,3.29-1.03,6.28-2.52,8.26-2.79-1.11-2.25-11.27,2.52-8.26Z"/>
      <path class="cls-1" d="m379.15,254.65c1.03-.07,1.96-.04,1.79,1.08-.69.7-2.2.38-1.79-1.08Z"/>
      <path class="cls-1" d="m437.67,262.91c-.75-.2-.94.31-1.43.36-6.75.7-3.85-11.05,1.43-7.9,2.04,1.21,1.74,6.37,0,7.54Z"/>
      <path class="cls-1" d="m482.19,255.01c.9,1.57-.23,3.77-1.8,2.87-.88-1.23-.23-3.41,1.8-2.87Z"/>
      <path class="cls-1" d="m458.49,258.24h1.44c.56,1.15.13,1.58-1.44,1.44v-1.44Z"/>
      <path class="cls-1" d="m421.51,261.47c1.76-.2,1.71-2.04,3.23-2.15,3.54-.26,4,3.7,5.38,7.18.91,2.28,2.19,3.63,2.16,4.67-.08,2.3-2.23,4.92-5.75,3.95-.9-.25-1.33-1.46-2.51-2.87-2-2.39-4.66-6.26-2.51-10.77Z"/>
      <path class="cls-1" d="m551.85,260.75c5.62-1.2,4.87,8.82-.36,8.62-5.4-.21-3.62-7.77.36-8.62Z"/>
      <path class="cls-1" d="m443.06,261.47c.94-.1,1.54.13,1.43,1.08-.67.7-1.73.21-1.43-1.08Z"/>
      <path class="cls-1" d="m734.24,263.98c.34,1.63-1.51,2.26-2.51,1.44-.08-1.37,1.48-2.29,2.51-1.44Z"/>
      <path class="cls-1" d="m285.8,266.5c3.08-3.38,7.92-1.1,7.54,2.51-.47,4.51-8.21,3.28-7.54-2.51Z"/>
      <path class="cls-1" d="m356.89,265.42c.16.91-3.11,1.3-2.87,0,.52-.53,2.35-.53,2.87,0Z"/>
      <path class="cls-1" d="m392.79,265.78c.78-.07,1.14.29,1.08,1.08h-1.08v-1.08Z"/>
      <path class="cls-1" d="m732.8,270.44h1.08v.72h-1.08v-.72Z"/>
      <path class="cls-1" d="m465.32,270.8c.69,1.59.45,4.22-1.44,4.31-1.32-1.12-.93-4.71,1.44-4.31Z"/>
      <path class="cls-1" d="m422.59,280.14c.49,1.09.58,2.96-.36,3.59-1.66.23-2.59-.28-3.23-1.08-1.71.92-2.82,2.44-5.03,2.87.56,2.66,1.25,5.87-1.44,6.82-1.83-.2-.87-3.2-2.15-3.95-1.49-.64-1.91,2.54-3.23,3.23-9.76,2.66-8.98-15.2-.36-10.77,1.56-1.06,1.55-1.79,1.44-3.23-.11-1.38-1.39-2.01-1.44-2.87-.33-6.64,6.96-2.42,7.54,1.8,2.46,1.82,5.63,2.85,8.26,3.59Z"/>
      <path class="cls-1" d="m596.01,272.6c1.82,2.46-.02,5.69-1.8,5.74-3.65.12-3.12-6.46,1.8-5.74Z"/>
      <path class="cls-1" d="m472.5,273.68c1.21.18,1.7,2.34,1.08,3.23-.9-.49-1.71-2.33-1.08-3.23Z"/>
      <path class="cls-1" d="m422.59,275.11c.05-.14.76-.63,1.08-.36.71.62-1.58,1.71-1.08.36Z"/>
      <path class="cls-1" d="m398.18,282.29c.42,1.91-1.56,1.03-2.87,1.44-1.12.34-1.49,1.21-2.51,1.08-1.86-.24-3.81-1.84-3.95-3.59-.3-3.83,5.17-5.81,6.46-.72,1.73-.17,2.48.63,2.87,1.8Z"/>
      <path class="cls-1" d="m429.41,277.98c1.24-.25,1.29,1.26.72,1.8-1.24.25-1.29-1.26-.72-1.8Z"/>
      <path class="cls-1" d="m292.98,278.7c3.11-1.24,6.48,4,2.87,5.39-2.15.83-7.41-3.58-2.87-5.39Z"/>
      <path class="cls-1" d="m426.18,283.01c-.11-1.43-.02-2.65.72-3.23,2.7.57,2.65,2.08,5.75,1.79,3.75,2.24,7.65,8.66,4.31,13.64-6.15,2.52-9.08-3.64-8.62-10.05.15-1.59-2.09-.78-2.16-2.15Z"/>
      <path class="cls-1" d="m118.84,281.93c.58-.1.62.34,1.08.36.11.95-.5,1.18-1.44,1.08-.15-.75.25-.95.36-1.44Z"/>
      <path class="cls-1" d="m285.8,293.06c-2.74.35-3.98-.8-3.95-3.23,1.99-1.86,5.53.47,3.95,3.23Z"/>
      <path class="cls-1" d="m75.04,296.29c.49-1.14.35,1.27.36,1.8-.49,1.14-.35-1.27-.36-1.8Z"/>
      <path class="cls-1" d="m421.51,302.4c-.71-4.72,6.58-8.99,7.54-3.59.58,3.26-4.28,7.19-7.54,3.59Z"/>
      <path class="cls-1" d="m94.07,296.65c1.7.55-.61,3.11,0,0h0Z"/>
      <path class="cls-1" d="m416.85,296.65c.95-.11.93.75,1.08,1.44-1.28.29-1.78-.76-1.08-1.44Z"/>
      <path class="cls-1" d="m129.25,297.73c-.13.47-.63.56-.72,1.08-.89-.15-.02-1.39.72-1.08Z"/>
      <path class="cls-1" d="m414.69,299.17c2.41-.02,3.11,1.67,3.23,3.95-.73.11-.7.97-1.44,1.08-2.42.04-3.22-3.35-1.8-5.03Z"/>
      <path class="cls-1" d="m444.49,304.19c-.33.26-.54.65-.72,1.08-1.24.29-1.52-.4-2.16-.72-.59-2.82,3-2.59,2.87-.36Z"/>
      <path class="cls-1" d="m433.36,307.78c-1.08.87-1.94,1.64-3.59,1.08-4.06-3.22,3.74-9.18,3.59-1.08Z"/>
      <path class="cls-1" d="m423.31,304.91c.25.8,1.08,1.8.36,2.51-1.16-.28-1.88-.99-2.15-2.15.42-.3.96-.47,1.79-.36Z"/>
      <path class="cls-1" d="m447.01,305.63c-.14-.7,1.63-.52,1.08.36h-.72c.06-.31-.14-.34-.36-.36Z"/>
      <path class="cls-1" d="m128.9,316.04c-4.44-2.98-10.93-3.91-12.57-9.69,6.15-.63,10.96,3.15,14.36,6.46.09,1.52-.03,2.84-1.08,3.23l-.36-.18-.36.18Z"/>
      <path class="cls-1" d="m425.82,314.25c3.11.26,2.96-1.76,5.38-1.44,5.32.71,5.05,12.21-2.51,9.69-1.79.59-1.81,2.27-3.59,2.51-3.29.45-6.09-3.17-6.1-6.82-1.91-2.02-4.34-4.18-3.95-7.54.42-3.63,3.85-4.49,6.82-2.51,2.25,1.49,2.24,4.59,3.95,6.1Z"/>
      <path class="cls-1" d="m114.89,311.73c-.13,1.18-.84,1.79-1.44,2.51v-.36h-.36c-.01-.35-.44-.28-.72-.36.13-1.07.62-1.77,1.44-2.15l.44.49.64-.13Z"/>
      <path class="cls-1" d="m229.07,309.22v1.44c-.94.1-1.54-.13-1.44-1.08.32-.28.81-.39,1.44-.36Z"/>
      <path class="cls-1" d="m249.53,309.22c.78-.06,1.14.29,1.08,1.08h-1.08v-1.08Z"/>
      <path class="cls-1" d="m12.21,311.37c-.85,1.15-1.45-1.26,0,0h0Z"/>
      <path class="cls-1" d="m2.87,312.45c3.15-1.24,5.64.45,5.74,3.23.2,5.3-7.82,5.48-8.26.72-.12-1.26.26-3.06,2.51-3.95Z"/>
      <path class="cls-1" d="m254.92,319.63c-1.5,1.67-1.3,3.11-1.08,6.1-2.9,3.21-8.13-.02-7.54-4.67,1.11-1.48,3.92-.24,5.74-.72,1.37-.36,1.33-1.36,2.51-1.44l-.18.54.54.18Z"/>
      <path class="cls-1" d="m146.13,314.25c.12-.43.96-.29,1.08,0,.32.78-1.31.83-1.08,0Z"/>
      <path class="cls-1" d="m332.11,318.2c-2.04,2.23-5.94.33-5.75-2.87,2.09-1.48,6.65-.85,5.75,2.87Z"/>
      <path class="cls-1" d="m40.21,318.56c1.29.15,1.73,1.14,1.8,2.51-1.58.03-2.35-.76-2.51-2.15l.54.18.18-.54Z"/>
      <path class="cls-1" d="m529.58,323.22c-.41-.92-.89-.95-1.08-1.44-1.98-5.22,6.97-5.38,5.39-.36-.36,1.15-1.39,1.88-4.31,1.8Z"/>
      <path class="cls-1" d="m563.34,318.92c.58-.1.62.34,1.08.36.11.94-.5,1.18-1.43,1.08-.15-.75.24-.95.36-1.44Z"/>
      <path class="cls-1" d="m569.08,319.63c1.63-.19,2.34.53,2.15,2.15-1.54,1.12-3.32-.66-2.15-2.15Z"/>
      <path class="cls-1" d="m273.23,323.94c-.19.29-.37.58-.36,1.08-.94.1-1.54-.13-1.44-1.08.47-.46,1.32-.46,1.79,0Z"/>
      <path class="cls-1" d="m269.28,327.53c-1.11,1.4-3.02,2.01-4.67,2.87-.41-1.98-1.83-2.96-1.44-5.75,2.23-1.78,4.47.79,6.1,1.8l-.18.54.18.54Z"/>
      <path class="cls-1" d="m294.77,328.97c.17,1.12-.31,1.6-1.44,1.44.04-.91.52-1.39,1.44-1.44Z"/>
      <path class="cls-1" d="m419.72,332.2c-.49-4.22,4.12-3.34,4.31-1.08.16,1.96-2.65,2.81-4.31,1.08Z"/>
      <path class="cls-1" d="m532.1,329.33c.31.29.21.98.72,1.08-1.29,1.46-1.68,3.82-4.31,3.95-.11-2.02.41-3.42,1.08-4.67,1.25.29,1.38-.54,2.51-.36Z"/>
      <path class="cls-1" d="m166.59,333.99c-2.31,1.6-6.84.15-6.46-3.23,3.09-1.23,6.04.61,6.46,3.23Z"/>
      <path class="cls-1" d="m140.39,332.2c1.03-.66,1.12-.58,2.51-.36.14,1.34-1.63,1.85-2.51,1.08l.18-.36-.18-.36Z"/>
      <path class="cls-1" d="m267.84,338.66c-2.45-.4-4.51-1.31-4.67-3.23-.06-.7.87-2.89,1.44-3.23,3.32-2.02,7.73,3.66,3.23,6.46Z"/>
      <path class="cls-1" d="m296.93,332.2c.11,1.78-1.43,1.92-2.15,2.87-.75-.21-1.02-.89-2.15-.72.86-1.15,2.54-3.07,4.31-2.15Z"/>
      <path class="cls-1" d="m405.72,332.56c.58-.1.62.34,1.08.36-.07.29-.36.36-.36.72h-.72v-1.08Z"/>
      <path class="cls-1" d="m287.59,334.71h2.15c-.25.95-1.63.76-1.79,1.79-.78.06-.16-1.27-.36-1.79Z"/>
      <path class="cls-1" d="m429.41,336.15c3.17,5.08-4.35,6.55-4.67,2.51-.15-1.94,1.81-3.69,4.67-2.51Z"/>
      <path class="cls-1" d="m430.85,336.15c.05-.14.76-.63,1.08-.36.71.62-1.59,1.73-1.08.36Z"/>
      <path class="cls-1" d="m20.47,340.82c1.47-.85.99-2.92,2.51-3.59,3.15-1.39,5.77,2.7,3.23,5.39-1.98.64-3.71-.41-5.39-1.08l-.18-.36-.18-.36Z"/>
      <path class="cls-1" d="m15.26,341.35l.18.54c-2.43-.21-5.82.56-7.18-.72,1.04-2.39,4.72-.24,6.82-.36l.18.54Z"/>
      <path class="cls-1" d="m528.15,337.23c2.9,3.87-.93,8.09-3.95,10.41-3.75,2.88-7.11,3.54-10.77-.36.36-1.31.94-2.41,2.87-2.15,2.89-3.69,5.35-7.82,11.85-7.9Z"/>
      <path class="cls-1" d="m510.2,338.66c-.1.83-.96.82-1.43.36.1-.83.96-.83,1.43-.36Z"/>
      <path class="cls-1" d="m603.19,370.62c-6.48,1.05-11.81,2.13-17.59-1.79-2.24-1.52-5-4.94-5.74-6.82-1.73-4.36-1.64-9.36,0-13.29,1.39-3.32,2.54-5.05,5.74-7.18,1.36-.9,3.28-2.19,4.31-2.51,11.11-3.46,23.04,5.32,22.62,16.52-.25,6.52-4.41,11.16-9.33,15.08Z"/>
      <path class="cls-1" d="m435.16,340.1c1.76,3.4-3.38,4.79-4.31,1.8-.28-2.5,2.75-3.21,4.31-1.8Z"/>
      <path class="cls-1" d="m418.64,341.53c-.95.38-2.04.27-2.15-1.08.71-.67,2.64-.53,2.15,1.08Z"/>
      <path class="cls-1" d="m195.32,340.82c1.83-.9,4.41.61,3.95,2.87-1.02,4.98-8.57-.6-3.95-2.87Z"/>
      <path class="cls-1" d="m128.9,342.25c-.65.54-2.59.2-2.51-1.08.52-.41,2.46-.07,2.51,1.08Z"/>
      <path class="cls-1" d="m185.26,341.53c-1.58,1.32-1.36-.99,0,0h0Z"/>
      <path class="cls-1" d="m498.71,342.97c-.1.83-.96.83-1.43.36.1-.83.96-.82,1.43-.36Z"/>
      <path class="cls-1" d="m140.03,344.77c.16-.59,2.71-.59,2.87,0,.47,1.33-2.13,1.43-2.51.72l.18-.54-.54-.18Z"/>
      <path class="cls-1" d="m126.74,344.77c-.16.44-.46.74-1.08.72-.17-.77.51-.68,1.08-.72Z"/>
      <path class="cls-1" d="m20.11,354.1c-.09.63-.62.82-1.44.72.09-.63.62-.82,1.44-.72Z"/>
      <path class="cls-1" d="m15.08,354.82c-.16.44-.46.74-1.08.72-.17-.77.51-.68,1.08-.72Z"/>
      <path class="cls-1" d="m11.85,355.18c.03,1.11-1.08,1.07-2.15,1.08-.13-1.21,1.56-.6,2.15-1.08Z"/>
      <path class="cls-1" d="m263.18,355.54h.72v.72h-.72v-.72Z"/>
      <path class="cls-1" d="m0,357.69v-.72c1.27-.12.88-.99,2.15-.36l-.18.54.54.18c0,1.04-2.03.85-2.51.36Z"/>
      <path class="cls-1" d="m406.07,355.9c.19.53.53.91.72,1.44-.01,1.31-1.06,1.58-2.51,1.44-.84-1.19-.5-3.68,1.8-2.87Z"/>
      <path class="cls-1" d="m643.4,359.13c-.74,4.62-5.93,9.97-11.85,8.62-2.54-.58-4.12-3.09-3.59-6.1.86-4.95,12.18-8,15.44-2.51Z"/>
      <path class="cls-1" d="m558.31,374.57c.09,1.05-.67,1.24-1.08,1.79-.63-.33-1.25-.67-1.08-1.79.46-.49,1.69-.49,2.15,0Z"/>
      <path class="cls-1" d="m590.26,378.87c2.13-.48,1.73,2.57-.36,1.8-.11-.83.06-1.38.36-1.8Z"/>
      <path class="cls-1" d="m686.13,379.23c.83-.11,1.38.06,1.79.36.17,1.12-.77,1.15-1.79,1.08v-1.44Z"/>
      <path class="cls-1" d="m43.08,383.54h1.08v1.44c-.95.11-1.18-.5-1.08-1.44Z"/>
      <path class="cls-1" d="m606.78,385.7c3.2-.66,9.06.63,9.69,4.31,1.37,8.01-17.57,14.87-18.67,4.67-.31-2.86,1.38-4.92,2.87-6.1,1.48-1.18,3.69-2.37,6.1-2.87Z"/>
      <path class="cls-1" d="m620.06,385.7c1.61,1.78-.19,4.17-2.51,2.87-.72-1.54.24-3.27,2.51-2.87Z"/>
      <path class="cls-1" d="m420.08,393.95c-4.89,1.46-8.71-2.13-6.46-6.1,1.99-1.54,6.12-1.19,7.54,1.44.27,2.19-.25,3.59-1.08,4.67Z"/>
      <path class="cls-1" d="m46.32,389.29c.93.72.16,2.77-1.08,2.51-.46-1.65.65-1.74,1.08-2.51Z"/>
      <path class="cls-1" d="m595.65,391.08c.16,1.12-.31,1.6-1.44,1.44-1.12-.99.45-2.55,1.44-1.44Z"/>
      <path class="cls-1" d="m629.4,392.88c-.2,1.03-1.69,1.46-1.79,0,.47-.46,1.32-.46,1.79,0Z"/>
      <path class="cls-1" d="m623.65,393.59c-.25,2.74-1.88,4.11-4.67,4.31-2.38-2.66,1.89-6.75,4.67-4.31Z"/>
      <path class="cls-1" d="m694.03,395.75c2.73-.54,8.85-.56,9.33,2.51.74,4.69-12.84,7.86-14,2.15-.67-3.28.91-3.92,4.67-4.67Z"/>
      <path class="cls-1" d="m417.56,396.11v1.08c-2.43,1.54-2.43-2.62,0-1.08Z"/>
      <path class="cls-1" d="m631.19,396.11c.58-.1.62.34,1.08.36.11.95-.5,1.18-1.44,1.08-.15-.75.25-.95.36-1.44Z"/>
      <path class="cls-1" d="m734.95,398.26c2.03-.13,9.22.99,9.34,4.31.13,3.57-9.15,8.29-14.72,6.1-1.67-.66-3.46-2.86-3.59-4.31-.36-3.98,3.88-5.76,8.97-6.1Z"/>
      <path class="cls-1" d="m51.34,402.57c-.98-.1-1.69-.46-2.15-1.08.23-1.44.89-2.46,2.87-2.15.56.52.32,1.84.36,2.87l-.66-.18-.42.54Z"/>
      <path class="cls-1" d="m622.22,407.96c-.1-.82.09-1.35.72-1.44-7.39-2.64,2.23-9.74,6.1-5.39.91,5.22-4.94,3.67-5.74,7.18l-.54-.18-.54-.18Z"/>
      <path class="cls-1" d="m610.37,410.47v-.36c0-.59-2.03.58-2.51-.36-.62-2.04.83-3.38,2.16-3.23,1.52.17,3.2,3.29,1.08,4.31l-.18-.54-.54.18Z"/>
      <path class="cls-1" d="m606.42,410.83c1.7.55-.61,3.11,0,0h0Z"/>
      <path class="cls-1" d="m641.6,411.91c-.12.47-.63.57-.72,1.08-.89-.15-.02-1.39.72-1.08Z"/>
      <path class="cls-1" d="m33.03,418.73c.06.78-1.27.16-1.8.36.33-.62,1.26-.93,1.8-.36Z"/>
      <path class="cls-1" d="m641.25,430.22c-4.44-2.98-10.93-3.91-12.57-9.69,6.15-.63,10.96,3.15,14.36,6.46.09,1.52-.03,2.84-1.08,3.23l-.36-.18-.36.18Z"/>
      <path class="cls-1" d="m627.24,425.91c-.13,1.18-.84,1.79-1.44,2.51v-.36h-.36c0-.35-.44-.28-.72-.36.13-1.07.62-1.77,1.44-2.15l.44.49.64-.13Z"/>
      <path class="cls-1" d="m658.48,428.42c.12-.43.96-.29,1.08,0,.33.78-1.32.83-1.08,0Z"/>
      <path class="cls-1" d="m27.65,429.14c2.29,4.18-.88,9.95-4.67,9.34-5.79-.94-1.67-12.98,4.67-9.34Z"/>
      <path class="cls-1" d="m233.38,437.4c.53-1.91-.97-3.07-.36-3.95,2.92-1.8,3.45,4.29.36,3.95Z"/>
      <path class="cls-1" d="m260.66,437.04c-3.67,1.7-5.93-.58-6.46-3.95,2.81.66,5.61,1.33,6.82,3.59l-.54-.18.18.54Z"/>
      <path class="cls-1" d="m262.64,436.86l-.54-.18c.5-.69.2-2.2,1.79-1.8.83.87-.36,1.74-.36,2.87-.51.03-1.02.06-1.08-.36l.18-.54Z"/>
      <path class="cls-1" d="m19.39,437.4c1.56.15-.38,2.08,0,0h0Z"/>
      <path class="cls-1" d="m274.67,451.76c-1.43.21.07-1.48.36-1.79-.87-1.42-1.48-2.91-1.44-4.31.13-4.14,3.99-5.42,8.26-3.59,3.55,3.79-.17,10.8-5.74,8.62-.73.11-.96.72-1.44,1.08Z"/>
      <path class="cls-1" d="m40.57,443.86h1.08c-.31.53-.54,1.14-1.44,1.08.19-.29.37-.58.36-1.08Z"/>
      <path class="cls-1" d="m678.95,448.17c-2.31,1.6-6.84.15-6.46-3.23,3.09-1.22,6.04.61,6.46,3.23Z"/>
      <path class="cls-1" d="m34.47,445.3c1.64-.6-.35,1.41-.72.36-.11-.32.54-.3.72-.36Z"/>
      <path class="cls-1" d="m652.74,446.37c1.03-.66,1.12-.58,2.51-.36.14,1.34-1.63,1.85-2.51,1.08l.18-.36-.18-.36Z"/>
      <path class="cls-1" d="m28.72,446.37c-.15.8-1.77.15-2.51.36.5-.55,1.86-1.02,2.51-.36Z"/>
      <path class="cls-1" d="m703,451.04c-2.52,2.78-10.74,2.22-11.13-1.44-.5-4.67,10.76-3.71,11.13,1.44Z"/>
      <path class="cls-1" d="m19.39,448.53c-.16.32-.31.64-.72.72.11.84.57,1.35.36,2.51-1.89-1.37-6.14.62-7.18-2.15,1.33-2.94,3.81-2.07,7.18-1.79l-.18.54.54.18Z"/>
      <path class="cls-1" d="m50.98,448.17c.77,3.85-.78,7.6-3.23,9.34-2.31-.33-3.16-2.11-4.67-3.23-1.59-.2-2.86-.73-3.59-1.79.93-4.72,6.51-6.62,11.49-4.31Z"/>
      <path class="cls-1" d="m227.99,452.84c1.37-.27.78,2.33-.36,1.79-.3-1.01.51-.93.36-1.79Z"/>
      <path class="cls-1" d="m55.65,455.71v2.15c-.49.8-2.71,1.06-3.59.36-.81-3.02,2.02-3.94,3.59-2.51Z"/>
      <path class="cls-1" d="m226.55,455.71c.8.16.15,1.77.36,2.51-1.08-.61-.4-1.31-.36-2.51Z"/>
      <path class="cls-1" d="m270,456.43c2.1,1.03,3.08,4.22,2.15,7.18-3.85.28-2.89-4.68-2.15-7.18Z"/>
      <path class="cls-1" d="m646.99,458.94c2.64-.74,6.3-2.66,9.33-1.43,1.52.61,2.49,2.28,2.87,3.95-2.34,2.14-9.8,2.26-10.05-1.8h-1.8l.18-.54-.54-.18Z"/>
      <path class="cls-1" d="m11.85,458.22c.98-.26.72.71,1.44.72-.19.29-.37.58-.36,1.08h-1.08c-.25-1.11-.25-.69,0-1.8Z"/>
      <path class="cls-1" d="m639.09,458.94c-.16.44-.46.74-1.08.72-.17-.77.51-.68,1.08-.72Z"/>
      <path class="cls-1" d="m654.89,463.97c1.55,2.98-1.53,5.3-4.31,3.95-1.6-3.03,1.32-5.51,4.31-3.95Z"/>
      <path class="cls-1" d="m28.72,471.87c.37,1.21-1.12.56-1.8.71.31-.53.9-.77,1.8-.71Z"/>
      <path class="cls-1" d="m74.32,474.74c-.46.62-.74,1.41-1.8,1.44.07-1.01.62-1.53,1.8-1.44Z"/>
      <path class="cls-1" d="m271.43,475.1c.82,1.02,1.22,1.66.72,3.23-3.3,2.33-4.83-4.03-.72-3.23Z"/>
      <path class="cls-1" d="m15.44,477.25c-.79,1.1-2.3-.41,0,0h0Z"/>
      <path class="cls-1" d="m390.64,477.61h.72v.72h-.72v-.72Z"/>
      <path class="cls-1" d="m19.03,486.23c1.9,2.73-.27,5.38-2.51,5.03-3.79-.6-2.51-7.44,2.51-5.03Z"/>
      <path class="cls-1" d="m75.4,489.82c.63,2.08,0,3.9-1.44,4.31-5.24,1.48-4.07-7.97,1.44-4.31Z"/>
      <path class="cls-1" d="m254.56,490.89c.24,2.03-.26,3.33-1.44,3.95-6.76.61-2.74-8.31,1.44-3.95Z"/>
      <path class="cls-1" d="m628.32,490.54c.35-1.1.96.41,1.44.36-.35,1.1-1.21-.16-1.44-.36Z"/>
      <path class="cls-1" d="m65.7,494.84c1.05,3.13-1.52,5.3-4.67,5.39-1.93-2.74.83-6.11,4.67-5.39Z"/>
      <path class="cls-1" d="m89.76,495.92c-1.06,3.78-8.19,4.73-11.85,3.59v-1.44c.85-1.78,4.13-1.13,5.39-2.51,2.09.19,4.95-.4,6.46.36Z"/>
      <path class="cls-1" d="m645.2,503.82c1.52.03,2.26.85,2.15,2.51-1.61.17-1.9-.97-2.51-1.79l.54-.18-.18-.54Z"/>
      <path class="cls-1" d="m290.1,500.23c2.05-.4,6.78.12,7.18,2.87.84,5.79-11.62,6.16-11.85,1.08-.08-1.72,1.46-3.33,4.67-3.95Z"/>
      <path class="cls-1" d="m612.52,500.59c.75.32,1.09,1.06,1.08,2.15-.75-.33-1.1-1.06-1.08-2.15Z"/>
      <path class="cls-1" d="m603.19,501.67c.52.44.68,1.23.72,2.15-.63-.33-.79-1.12-.72-2.15Z"/>
      <path class="cls-1" d="m665.66,503.82h.72v.72h-.72v-.72Z"/>
      <path class="cls-1" d="m299.8,504.18c1.12-.17,1.28.9.72,1.44-.29-.19-.58-.37-1.08-.36.19-.29.37-.58.36-1.08Z"/>
      <path class="cls-1" d="m99.45,514.23c0,1.68-.43,2.92-2.15,2.87-.03-1.59.52-2.59,1.44-3.23l.18.54.54-.18Z"/>
      <path class="cls-1" d="m21.9,509.2c-.07,3.88-1.94,5.96-3.95,7.9-1.53-1.34-1.36-4.38-1.44-7.18,1.01-.89,3.79-1.56,5.39-.72Z"/>
      <path class="cls-1" d="m76.83,516.39c-.63,4.5-2.31,9.51-7.18,8.62-1.82-4.54,3.02-7.75,7.18-8.62Z"/>
      <path class="cls-1" d="m20.11,518.18c1.47.2,1.49,3.1-.72,2.51v-2.15c.42.06.64-.08.72-.36Z"/>
      <path class="cls-1" d="m292.26,521.05c.04,3.37-5.19,4.57-7.9,2.87.16-3.52,5.42-4.85,7.9-2.87Z"/>
      <path class="cls-1" d="m594.57,525.36c1.6-.16,1.96.92,1.79,2.51-1.8.24-2.15-.96-2.87-1.79l.61-.25.47-.47Z"/>
      <path class="cls-1" d="m612.88,527.52c.51-1.42,2.82-1.76,4.67-2.51,2.17-.88,9.8-3.71,10.41.72.62,4.47-13.71,8.74-15.08,1.79Z"/>
      <path class="cls-1" d="m152.59,523.93c1.46.7.39,3.92.72,5.75-3.33.42-1.14-4.48-.72-5.75Z"/>
      <path class="cls-1" d="m161.93,524.64c.14-.68.46.23.36.72-.14.69-.46-.23-.36-.72Z"/>
      <path class="cls-1" d="m176.29,529.31c.8.15.15,1.77.36,2.51-.46-.59-.93-1.95-.36-2.51Z"/>
      <path class="cls-1" d="m144.69,533.98c.17,1.12-.31,1.6-1.44,1.43-.17-1.12.31-1.6,1.44-1.43Z"/>
      <path class="cls-1" d="m273.95,534.34c.24,2.12-2.51,2.21-2.15,0,1.05-.32,1.1-.32,2.15,0Z"/>
      <path class="cls-1" d="m602.47,534.34h.72v.72h-.72v-.72Z"/>
      <path class="cls-1" d="m49.91,537.21c.84,2.09,3.27,4.11,3.23,7.18-.02,1.8-1.54,2.82-2.15,4.31-.82,2-.58,5.32-2.87,5.39-2.81.09-2.96-4.83-3.59-8.26-.64-3.46,1.96-7.03,3.23-8.62h2.15Z"/>
      <path class="cls-1" d="m615.04,542.6c-.42-.06-.64.08-.72.36-1.55-.37-2.79-1.04-2.51-3.23,1.95-1.94,4.89.29,3.23,2.87Z"/>
      <path class="cls-1" d="m163.72,540.8c.6.52,1.05,2.14.36,2.87-.81-.27-.14-2.01-.36-2.87Z"/>
      <path class="cls-1" d="m323.85,550.14c1.49-.06,3-.12,3.59.72.27,1.43.47,2.26,0,3.23-1.04,2.14-4.07,1.32-6.82,1.79-2.66.46-4.94,2.27-7.9.72-1.27-5.52,4.92-6.52,6.82-10.05,2.97-.34,2.7,2.56,4.31,3.59Z"/>
      <path class="cls-1" d="m607.14,549.06c.96,0,.78,1.13,1.79,1.08-.56.99-1.76-.36-1.79-1.08Z"/>
      <path class="cls-1" d="m146.13,558.04c.04,1.23.19,2.58-.72,2.87-.77-.21-1.13-2.67-.36-3.23l.42.54.66-.18Z"/>
      <path class="cls-1" d="m85.09,550.14c1.17,1.32-.39,4.66-1.44,4.67-2.34.02-1.79-4.93,1.44-4.67Z"/>
      <path class="cls-1" d="m282.21,554.8c-.07,3.39-4.65,3.69-7.9,5.03-1.74.71-2.96,2.47-5.03,1.8-.45-2.5,2.99-2.81,5.03-3.95,2.54-1.42,4.28-3.97,7.9-2.87Z"/>
      <path class="cls-1" d="m604.62,557.68h1.08c-.27,1.56.81,2.22-.36,2.87-1.58.26-1.43-1.2-1.44-2.51l.54.18.18-.54Z"/>
      <path class="cls-1" d="m166.95,563.06c.86.7,1.15,3.69,0,4.31-1.63-.05-.92-2.44-1.08-3.95l.66.18.42-.54Z"/>
      <path class="cls-1" d="m310.57,555.88c.42,3.06-2.49,2.78-2.87,5.03,4.79-.57,12.18.55,17.23-.72,1.38,2.02-.05,4.88-1.8,5.75-.5.24-2.33.04-3.95.36-1.77.35-3.63,1.23-6.1,1.44-1.41.12-2.88-.32-4.31,0-4.81,1.07-5.78,6.38-10.05,6.46.16-3.9,3.89-4.25,5.39-6.82-.49-1.9.08-4.87-1.44-5.74,2.1-2.45,3.92-5.18,7.9-5.75Z"/>
      <path class="cls-1" d="m205.73,561.27c-.41,4.26-6.02,3.32-7.54,6.46-1.58-2.31-6.4-1.22-6.82-3.95-.62-4.02,12.34-6.26,14.36-2.51Z"/>
      <path class="cls-1" d="m157.98,561.27c1.93,3.49,1.74,12.24-1.79,13.64-4.8-2.27-1.75-11.19.72-13.64h1.08Z"/>
      <path class="cls-1" d="m524.56,570.6c3.6,1.96,7.84,6.55,5.03,11.13-.59.96-2.02,1.26-2.87,2.15-.91.95-.77,2.44-2.16,2.51-.09-3.96-4.81-7.06-3.95-11.13.42-2,2.42-2.4,3.59-4.31l.54.18-.18-.54Z"/>
      <path class="cls-1" d="m182.39,566.65c2.15,2.34.34,6.19-2.51,5.74-3.73-.58-2.77-8.11,2.51-5.74Z"/>
      <path class="cls-1" d="m630.11,578.5c1.72.32,2.96,1.12,2.87,3.23-2.17.02-3.04-1.27-3.59-2.87l.54.18.18-.54Z"/>
      <path class="cls-1" d="m312.37,572.76c-.88,3.43-3.5,5.11-6.46,6.46-.16-.32-.31-.64-.72-.72,1.31-2.68,4.16-7.11,7.18-5.74Z"/>
      <path class="cls-1" d="m646.63,572.4c.12-.43.95-.29,1.08,0,.33.78-1.31.83-1.08,0Z"/>
      <path class="cls-1" d="m322.78,577.07c1.84,4.17-2.09,6.88-4.67,9.33-1.22,1.15-2.44,2.74-3.95,2.51-1.99-1.6.84-3.16,1.79-4.67.86-1.37,1.1-3.12,2.15-4.31,1.07-1.21,2.68-1.86,3.59-2.87h1.08Z"/>
      <path class="cls-1" d="m341.81,579.58c1.08,4.55-.74,8.16-2.87,10.77-1.01,1.24-1.84,2.83-3.59,2.51-1.64-1.31-1.45-4.76-.72-7.18.92-3.05,4.2-7.19,7.18-6.1Z"/>
      <path class="cls-1" d="m653.81,587.12c.26,1.1-.37,1.31-.36,2.15-1.37.17-2.29-.1-2.87-.72-.64-2.39,2.34-2.66,3.23-1.43Z"/>
      <path class="cls-1" d="m203.93,587.84c.83.1.83.96.36,1.43-.49-.11-.3-.9-.36-1.43Z"/>
      <path class="cls-1" d="m508.76,587.84h.72v1.43h-.72v-1.43Z"/>
      <path class="cls-1" d="m145.05,588.55h.72v1.44h-.72v-1.44Z"/>
      <path class="cls-1" d="m628.68,592.14c4.19,1.46,8.37,4.78,7.9,9.7-4.34-1.52-7.11-4.62-7.9-9.7Z"/>
      <path class="cls-1" d="m127.1,593.94c-1,2.35-3.59,3.12-5.39,4.67-1.28-.28-2.19-.93-2.87-1.8,1.46-2.05,5.14-3.66,8.26-2.87Z"/>
      <path class="cls-1" d="m320.26,595.38c.16,4.35-5.67,6.81-8.98,4.31-.31-4.67,5.76-6.46,8.98-4.31Z"/>
      <path class="cls-1" d="m508.4,602.91c.23,1.31-.24,1.91-.72,2.52-.89.14-1.06-2.24-.36-2.52l.54.18.54-.18Z"/>
      <path class="cls-1" d="m364.43,600.76c.59,3.27-2.04,4.66-4.67,3.59-1.76-3.55,2.39-6.01,4.67-3.59Z"/>
      <path class="cls-1" d="m375.2,601.84c-.61,2.44-5.59,2.41-4.67-1.44,1.51-1.37,4.54-.65,4.67,1.44Z"/>
      <path class="cls-1" d="m518.81,610.1c.43-3.92-1.82-7.08.36-9.69,6.05-1.9,13.33.88,12.92,5.75-.4,4.82-8.27,4.3-12.21,4.31l-.42-.54-.66.18Z"/>
      <path class="cls-1" d="m519.59,617.1l.66-.18c.21,1.29-.42,1.74-.72,2.51-.97.1-1.02-2.53-.36-2.87l.42.54Z"/>
      <path class="cls-1" d="m189.57,602.2c4.05,1.15,5.33,9.13,1.79,11.85-5.69-.2-5.74-9.66-1.79-11.85Z"/>
      <path class="cls-1" d="m149.72,609.38c-2.78-3.06,2.28-5.51,2.87-2.51.23,1.13-.06,3.06-2.87,2.51Z"/>
      <path class="cls-1" d="m517.02,612.61c1.35,1.03.88,5.7,0,6.82-1.49-.9-.37-4.42-.72-6.46l.54.18.18-.54Z"/>
      <path class="cls-1" d="m362.99,607.58c.31,1.15-.56,1.11-.72,1.79-1-.13-2.11-1.08-1.44-1.79.46-.49,1.69-.49,2.15,0Z"/>
      <path class="cls-1" d="m208.6,607.94c.31,1.38.33,2.44-1.08,2.87-.98.26-.72-.71-1.44-.72-.25-1.81.75-2.37,2.51-2.15Z"/>
      <path class="cls-1" d="m365.5,607.94c.95-.11,1.18.5,1.08,1.44h-1.44c-.15-.75.25-.95.36-1.44Z"/>
      <path class="cls-1" d="m477.88,607.94c1.8-.24,2.25.86,2.51,2.15-.68.04-.25,1.19-1.08,1.08-1.97.25-2-1.98-1.44-3.23Z"/>
      <path class="cls-1" d="m309.85,610.81c.03,6.47-8.12,8.94-13.28,6.82-3.02-4.32,8.78-10.23,13.28-6.82Z"/>
      <path class="cls-1" d="m357.96,614.4c-.24,1.2-.92,1.95-2.51,1.8-.16-.32-.32-.64-.72-.72-.47-2.55,2.88-3.25,3.23-1.08Z"/>
      <path class="cls-1" d="m384.53,617.99c1.35,3.29-1.5,6.62-4.67,5.39-1.44-3.37,1.32-6.8,4.67-5.39Z"/>
      <path class="cls-1" d="m391.35,621.59c1.35,3.13-2.71,6.3-5.39,4.31-.23-3.27,2.62-5.21,5.39-4.31Z"/>
      <path class="cls-1" d="m518.45,640.97c.07,1.03.04,1.96-1.08,1.79.1-.63-1.01-1.79,0-2.15l.42.54.66-.18Z"/>
      <path class="cls-1" d="m354.37,630.2c.9,4.23-2.81,4.59-6.46,6.46-3.68,1.89-6.8,5-10.05,2.51-3.77-7.3,8.04-17.4,12.57-10.41,2.14-.34,2.92.67,3.95,1.44Z"/>
      <path class="cls-1" d="m386.33,629.12c-.3,1.57-2.9,1.29-2.51-.72.93-.89,2.18-.07,2.51.72Z"/>
      <path class="cls-1" d="m441.62,630.56c2.92,1.04,5.06,3.97,3.95,7.18-.54,1.57-3.49,3.7-4.67,3.59-4.61-.42-3.4-9.73.72-10.77Z"/>
      <path class="cls-1" d="m543.23,631.64c4.83-3.33,7.84,5.97,3.95,7.18-3.39,1.06-7.11-5-3.95-7.18Z"/>
      <path class="cls-1" d="m394.94,631.64c.82.28.35,2.22-.72,1.79-.27-1.11.99-.69.72-1.79Z"/>
      <path class="cls-1" d="m381.66,633.79c1.75,4.72-2.72,7.93-7.18,6.46-2.56-4.18,2.89-9.17,7.18-6.46Z"/>
      <path class="cls-1" d="m469.62,642.77c.14-.68.46.23.36.72-.13.69-.45-.23-.36-.72Z"/>
      <path class="cls-1" d="m156.18,643.13c.63-.11.64,2.01-.36,1.44-.15-.75.25-.95.36-1.44Z"/>
      <path class="cls-1" d="m351.86,646c.52,4.12-3.68,7.16-6.46,4.67-.6-4.12,3.6-6.27,6.46-4.67Z"/>
      <path class="cls-1" d="m562.62,651.03c9.42-2.08,7.99,10.05,1.08,9.34-3.95-.41-6.31-7.41-1.08-9.34Z"/>
      <path class="cls-1" d="m305.54,657.13c-.74,5.14-5.58,7.02-8.98,10.05-1.58,1.41-2.63,4.37-5.39,3.59-1.38-2.56.95-4.25,2.51-5.03.74-1.72,2.5-3.45,4.31-5.03,2.12-1.85,4.35-4.42,7.54-3.59Z"/>
      <path class="cls-1" d="m173.06,687.65c-3.77-.7-1.04-5.52-.72-9.33.21-2.51-.41-5.11-.36-7.54.11-5.11,1.7-10.14,3.59-12.57.58-.1.62.34,1.08.36,1.04,1.51,1.31,4.58,1.08,7.9-.29,4.07-2.05,8.05-2.51,11.49-.5,3.66,1.54,8.21-2.15,9.69Z"/>
      <path class="cls-1" d="m359.76,660.36c.32.16.64.31.72.72-.29,4.2-3.06,7.55-5.39,10.77-.96,1.32-1.65,2.86-2.51,4.31-.77,1.3-1.43,3.51-3.59,2.87-1.36-2.89,2.19-6.04,3.95-9.33,1.93-3.61,3.71-7.93,6.82-9.33Z"/>
      <path class="cls-1" d="m378.79,661.44c.32.16.64.31.72.72-.08,1.55-.22,3.26-.72,4.67-.74,2.08-2.65,3.78-3.59,5.74-1.04,2.17-.48,6-3.59,6.11-1.23-2.57,1.3-4.72,2.15-7.18.35-1.01.1-2.07.36-2.88.77-2.35,3.03-5.21,4.67-7.18Z"/>
      <path class="cls-1" d="m231.58,678.67c.44.86,1.68,2.33.36,2.87-.81-.27-.14-2.02-.36-2.87Z"/>
      <path class="cls-1" d="m507.68,687.65c.58-.1.62.34,1.08.36.14.7-1.64.53-1.08-.36Z"/>
      <path class="cls-1" d="m341.81,698.78c-.02.97-.82,1.72-1.44,1.08.57-.28.54-1.14,1.44-1.08Z"/>
      <path class="cls-1" d="m328.16,702.01c2.5,5.22-4.35,11.62-8.62,8.98.34-5.52,3.85-7.88,8.62-8.98Z"/>
      <path class="cls-1" d="m238.76,706.68c1.11.01,1.28,1.9.72,2.51-1.03-.05-.66-1.5-.72-2.51Z"/>
      <path class="cls-1" d="m331.75,714.22c-.76,2.71-1.01,5.93-3.95,6.46.02-3.21,1.52-5.31,3.23-7.18v.72h.72Z"/>
      <path class="cls-1" d="m433.36,728.94c4.73-1.76,4.29,11.53,0,11.49-4.4-.04-2.38-10.61,0-11.49Z"/>
      <path class="cls-1" d="m269.28,736.48c.42.06.3.65.36,1.07h-1.08c.13-.47.63-.56.72-1.07Z"/>
      <path class="cls-1" d="m470.7,755.15c-5.36.19-5.2-11.79-1.43-11.85,3.24-.05,4.71,9.73,1.43,11.85Z"/>
      <path class="cls-1" d="m117.41,324.66c1.12,3.67,1.12,8.45,2.15,12.21.38,1.18,1.84,1.27,2.87,1.8,1.65,2.66.21,6.06-1.44,7.54.7,1.55,2,2.36,3.23,3.59,1.94,1.93,3.2,4.15,7.18,3.23,2.4-.56,3.98-2.43,7.54-2.87,1.79-.22,3.08.37,5.03-.36,1.24-1.39,1.76-3.5,3.95-3.95,2.03,0,1.27,2.8,2.87,3.23,2.42.5,2.67-1.16,3.23-2.51,1.37-1.27.56,1.82,2.15,1.44,1.85.05,1.23-2.36,2.15-3.23,2.22-1.85,5.35-2.79,8.26-3.95-2.12,2.15.8,4.98,1.79,7.18,2.57.7,4.7.87,6.46-.72,1.64.4,2.41,1.65,4.67,1.44.66-.92-2.54-1.04-1.8-3.23,1.24-1.88,4.31-.89,4.31,1.44,2.2.08,3.53,1.02,5.03,1.8,1.63.16,3.54-.04,5.03.72.72.37,1.32,1.84,2.15,2.51,1.46,1.18,2.97,1.2,3.59,2.15.67,1.04.24,2.73.72,3.95,1.11,2.83,3.18,4.33,6.1,5.03,1.82-1.57,1.4-5.55,4.31-6.1.9-.17,2.13-.1,3.23.72,2.21-.78,3.68-2.31,4.31-4.67,1.91-.6,2.8-2.23,4.31-3.23,2.23.68,4.17-1.7,6.1-1.44,1.33.18,1.55,1.35,2.51,2.15.8.67,2.58.74,2.15,2.15,1.52-.82.24-1.14.72-2.15,1.74,1.13,3.49.2,5.03-.72,2.36.51,5.16.58,6.46,2.15.01,1.56.21,3.33-.72,3.95-3.47,1.33-5.68-3.64-8.62-1.8.06,2.1.81,3.5,1.8,4.67,2.85-1.31,5.06.44,8.62.36.5.58.3,1.85,1.08,2.15,2.14.35,2.08-.43,2.15-1.44,1.76,1.11,3.45.56,5.74.36,4.52-.4,7.86.96,10.77-.72,3.56-2.05,6.69-6.46,9.34-8.98,6.48-6.17,15.96-9.83,21.9-15.44.58-.1.62.34,1.08.36,3.41-3.06,8.58-4.35,11.85-7.54.25-.29.56-.98,0-1.08-1.77.21.37-1.05.36,0,4.04.29,7.02.26,9.69-1.44.28-1.48-.55-1.84-.36-3.23-3.96-.71-7.1-2.24-8.98-5.03-1.96.45-3.62,1.15-5.39,0,.14,2.54-.15,4.64-1.08,6.1,1.6,1.4,3.35,4.58.36,5.74-1.8,0-2.45-1.15-3.23-2.15-7.83,4.7-17.28-.94-16.16-10.77-1.81.46-3.66.89-6.1.72-1.37-.16-1.9,2.2-3.59,2.15-1.56-.05-2.65-2-3.95-3.59-1.23-1.51-2.67-2.63-3.59-3.95-1.05-1.51-3.57-6.05-3.95-7.54-.88-3.48.95-7.67.36-10.41-.77-3.55-5.62-5.65-6.82-8.98-2.03-5.58,1.91-10.86,6.82-11.49,4.56-.58,8.64,2.52,13.64,2.51-3.84-2.54-8.49-6.06-7.18-12.57,6.6-3.4,15.86.81,15.8,8.62.42,1.38,2.17,1.42,2.15,3.23-.52.44-.54,1.37-1.08,1.8-2.92-.5-5.18-1.23-7.9-1.08.64,1.15,1.63,1.96,2.15,3.23-2.62,2.78,1.34,8.85-1.44,12.93,2.14,3.37,7.03,3,9.34,6.1.5.67.48,2.25,1.08,3.59.82,1.86,2.41,2.6,1.8,6.1,3.74.15,5.93-1.25,8.26-2.51-.22-2.33-.55-4.7.72-6.46.97-1.34,2.74-1.3,3.59-2.51.72-1.03,2.04-5.36,1.08-7.54-.91-2.08-4.88-2.5-6.46-5.03-1.24-1.97-1.18-3.58-1.08-6.82,2.81-2.92,8.21-1.14,11.49.36,2.6-.03,1.21-4.06,2.87-5.03,9.77-.67,9.16,9.03,17.59,9.69.47-1.44-2.07-2.95-2.87-4.31.34-3.33-.41-5.58-1.8-7.18-.58-1.41,1.55-.13,1.44-1.08.1-1.42.77-3.22.72-4.31-.46-1.52-1.17.33-2.51,0-2.06-1.45-4.36-4.45-3.23-7.9,1.41-.81,1.53.85,2.87,1.08-1.38-2.93-4.82-3.79-6.82-6.1-1.56-5.21,1.61-5.95,5.03-8.98,1.27-1.13,2.17-2.74,2.87-3.23,2.14-1.5,6.26-2,8.62-2.87,2.51-.92,3.56-2.44,6.46-1.44,1.83.64,2.62,3.09,3.95,4.67,2.16,2.56,5.16,4.48,5.75,8.62.69,4.94-2.49,9.11-1.8,13.64.28,1.86,1.7,3.5,2.51,5.03.92,1.73,1.6,3.56,2.87,4.67,2.41-5.72,6.02-10.26,13.28-11.13,1.95-2.38,5.59-2.07,6.46,1.08,4.68,1.83,7.73,3.76,9.69,8.62.48,1.19.14,3.34,1.79,3.95-1.7,2.96-.67,6.17-1.44,8.98-2.3,8.39-13.19,11.64-21.18,7.18-.24.45.35,3.3-.72,3.95-.42-.06-.64.08-.72.36-2.77.02-3.94-1.56-4.67-3.59-.1-1.53,1.31-1.56,1.8-2.51-1.65-3.37-4.61-5.45-3.59-11.49-1.13-.17-.81,1.1-2.15.72-1.57,3.94-4.57,6.44-6.82,9.69-.14,1.7.64,2.47.36,4.31,2.81,1.14,6.39,1.51,7.54,4.31,2.95-.21,7.07-.7,10.41-.36,6.56.66,11.63,3.91,17.59,5.39,1.22,1.05,2.36,2.19,5.03,1.8.4-3.62,5.16-5.79,10.41-5.74,2.03,1.8,4.33,3.33,4.67,6.82,1.33.25,1.54-.61,2.87-.36,1.08.83,2.04,1.79,2.87,2.87-.7,4.17,2.01,4.93,3.23,7.18,3.51-.27,5.88,1.03,6.1,4.31.06.91-.45,1.97-.36,2.87.22,2.12,1.34,4.51-.72,5.75-1.63.56-2.47.06-3.95-.36-1.02.9-.94,2.88-1.79,3.95-1.43,1.21-4.3.96-5.39,2.51.33.75,1.06,1.09,2.15,1.08,1.82-.67,1.12-2.44,3.23-2.87,2.04-.42,4.88,1.31,5.03,2.87.31,3.4-5.07,4.13-7.18,1.44-1.69.21-4.09,1.27-5.75.36-.85.94-1.18,2.41-1.44,3.95.6.47,2.48-.37,3.23.72.41,4.59,4.18,12.31-1.8,11.85-2.46-.19-4.14-2.91-3.95-6.82-1.21,1.18-1.94,2.85-2.87,4.31,2.63,3.5,6.04,4.57,5.74,8.98-.1,1.58-1.87,2.98-1.79,4.67.1,2.19,3.36,3.72,3.95,6.1.87,3.48-1.41,5.27,1.08,7.9,2.56-.52.77-3.23,1.44-4.67,2.28-4.89,8.82-1.23,10.05,2.87,1.28.3,2.15-1.04,2.51.36.77,1.63-3.47.98-3.59,2.87,3.22,3.08,7.52-.53,7.54-3.59.01-1.76-2.28-5.85-3.95-7.18-.53-.43-1.78-.59-2.51-1.08-1.77-1.17-2.05-2.18-5.03-2.15-2.06-4.31-2.29-10.97,1.08-13.64,2.83-.78,4.47-2.12,7.18-1.44,3.36.84,4.63,7.33,8.98,5.39,0,1.78,1.96,1.63,3.23,2.15,1.14.18.13-1.78,1.44-1.44-.3,2.56,2.18,2.65,3.95,2.15.68-2.19,2.81-2.94,4.31-4.31.16-2.5-2.89-3.12-3.23-5.39-.37-2.51,1.27-4.1,2.16-6.46,2.24-.33,1.37,2.46,3.23,2.51,1.71-3.08.84-8.74,6.46-7.9.11-2.26-.06-4.25-.36-6.1-.69-1.15-1.92.09-2.51-1.44-.59-2.75,2.34-1.97,3.23-3.23.42-2.16-2.14-4.27-3.59-5.75-2.29.35-2.81,2.05-1.8,3.95-1.56,0-3.23.12-4.31-.36-1.62-3.76-4.53-8.69-.72-12.21,2.26-.02,4.2-.34,6.1-.72,1.68-3.11,4.75-4.83,5.75-8.62-2.14-2.12-5.34-3.9-7.54-6.46-.95-1.11-2.24-3.12-3.23-4.67-2.19-3.44-3.71-5.51-3.23-11.13.12-1.42.9-3.06,1.08-4.67.14-1.25-.21-2.4,0-3.23.71-2.8,3.83-7.4,6.46-7.9,3.44-.65,7.59,2.05,9.34,3.95,1.22,1.32,1.7,3.5,2.87,5.39,2.67,4.3,7.81,9.35,7.9,16.16,5.23-.14,5.78-7.07,12.21-7.9,2.23-2.68,6.64-3.91,11.49-4.31,5.13-.42,9.79,1.15,13.65,2.87,3.53,1.58,5.68,3.24,8.62,5.39,1.65,1.2,3.34,2.18,3.95,2.87,2.29,2.62,3.32,9.08,7.54,8.98,1.51-.04,2.79-1.32,3.59-2.51,2.83-.9,7.75-1.81,10.77-.36,3.66,5.7-3.65,16.29-7.18,19.03-.22,1.08,2.33,1.22,1.08,2.15.17,1.63-1.68.98-2.51.72-2.04,2.33-.68,7.05-1.79,10.77-1.37,4.55-7.3,11.9-14,9.69-2.42-.8-4.03-3.48-4.67-6.82-5.29.1-3.9,6.87-9.69,6.46.07.31-.14.34-.36.36l-.18-.54-.18.54c-1.64.15-1.9,1.69-2.87,2.51.31,1.49.96,2.63,1.08,4.31,2.9,1.44,7.06,2.43,10.77,1.08.87.68,1.41,1.7,1.8,2.87,1.12.44,2.24.87,3.23,1.44,1.87,4.98,7.26,6.53,10.77,10.41,2.74,3.04,2.48,8.1,5.39,10.77.72.66,1.61.68,2.51,1.44,1.33,1.12,1.85,3.15,4.31,3.59l.18.54.54-.18c.36,2.99-2.14,3.13-3.23,4.67-.33,7.15,8.07,5.57,7.54,12.93-1.32,1.43-2.99,2.51-3.23,5.03,2.27.53,4.83-1.59,7.18-1.08,5.51,1.21,2.41,13.23-.36,15.8.64,2.47.26,5.96.36,8.98.78,1.76,2.06,1.54,2.16,3.23.13,2.32-2.52,3.35-3.95,4.67.71,2.09,2.79,3.91,4.31,3.95,3.27.08,3.83-4.34,6.1-5.75-.36-1.69,1.54-2.99.36-4.31,1.17-3.05,4.96-8.14,8.62-4.31.51,4.33-1.64,6.02-3.23,8.26l-.54.18.18.54c-1.13,2.1-2.39,4.07-2.51,7.18,1.31-.24,1.38.78,2.51.72,1.98-1.15,2.14-4.47,1.08-6.82l.54.18-.18-.54c1.92-1.45,4.08.52,5.38-.36,1.22-1.18,1.37-3.42,2.52-4.67l.36.18.36-.18c.58-.1.62.34,1.08.36.95.11,1.18-.5,1.08-1.44,1.27-.19.88,1.27,2.15,1.08,1.38-.42.45-3.15.72-4.67-3.47-.36-5.42-2.24-9.33-2.15-.86-5.03-9.84-1.17-10.41-6.1-.29-2.48,1.88-3.2,3.23-5.03-.56-2.99-1.19-7.15-.36-10.41-4.08-1.78-9.94-1.79-13.28-4.31.06-.42-.08-.64-.36-.72,0-1.69,0-3.38.72-4.67.79-1.42,7.26-5.57,10.77-6.1,2.04-.31,4.11.23,6.11,0,1.18-1.34,2.08-2.94,3.23-4.31,2.68-1.16,5.76-.54,7.9.72.64,1.03.69,2.66,1.08,3.95,3.29,2.69,7.31,1.26,10.77,2.51,1.62.58,5.04,3.95,6.11,5.39,2.37,3.2,4.46,8.87,4.67,12.57.16,2.89-.8,6.25-2.51,8.98-3.06,4.88-7.36,8.26-14.36,9.33,1.39,1.19,2.2,1.64,4.31,1.44,1.56-.15,2.78-1.96,4.31-2.15,2.66-.34,4.91,1.7,7.18,1.08,1.76-.48,2.45-2.55,2.87-3.95,1.72-.37,3.22,1.14,3.95-.36l.18.54.54.18c-.28,3.75,1.13,5.33,3.23,5.39,2.19.06,3.28-3.32,5.74-2.51.64,1.63.62,3.92,1.8,5.03,1.89.09,3.34-.25,4.67-.72l.18.54.54.18c.79,1.61,1.29,3.5,2.51,4.67,8.5-1.43,4.2,9.92,11.49,9.69l-.18.54.54.18c1.12,3.67,1.12,8.45,2.16,12.21.38,1.18,1.84,1.27,2.87,1.8,1.87,3.02-.14,6.25-1.8,7.9-.25,3.12,2.2,3.55,2.51,6.1l-.54.18.18.54c-1.73.19-2.28,1.55-3.23,2.51.78,6.76-4.58,7.39-5.75,12.21.79,1.57,1.65,4.27.72,6.46-1.89,1.04-3.33-1.03-5.03,0,2.2.88,4.26,2.77,6.82,3.95,1.76.82,5.5.64,4.67,4.31-1.72,2.29-3.61.09-6.1-.72-3.48-1.13-8.88-1.23-10.77-3.23-2.19,2.48-7.46,1.88-8.26,5.74l-.54.18.18.54c-2.21,1.82-4.31-.21-6.46-.36-3.73-.26-7.73,1.98-10.41,1.44-.94.38-1.17,1.46-1.08,2.87l-.54.18.18.54c-3.39,2.03-.95,5.41-1.43,9.34-.28,2.27-2.49,5.45-3.59,7.9-2.3,5.1-3.72,8.21-7.9,11.13-.93,5.71,4.55,5.03,3.95,10.41-4.04,3.33-6.35-2.49-8.98-3.95-1.9.61-3.02,2.01-4.31,3.23-1.45,6.45-5.7,10.1-9.7,14l-.66-.18-.42.54c-5.67-4.78-9.62,2.45-13.64,4.67l-.54-.18-.18.54c-2.48-3.66-6.51,1.38-9.69,1.79-4.08.54-4.19-1.89-7.9-3.59-2.27.36-1.47,3.8-3.59,4.31-3.03-.44-6.9-.04-8.62-1.79-2.03,2.01.69,6.78,0,8.62-.26.73-1.52,1.03-2.16.36-.52,2.48-2.17,4.63-2.51,7.18-.48,3.59.99,7.01,0,10.77-.21.79-.89,1.35-1.08,2.16-.55,2.43-.26,5.29-1.43,7.9,2.39,3.49.56,10.69,1.43,15.44.32,1.76,1.66,3.19,1.44,4.67-.29,1.96-2.62,2.7-3.23,3.95.9,2.38-.59,4.44-.72,6.82-.26,4.79,1.07,9.88.72,14.72-.11,1.52-.88,2.78-1.08,4.31-.2,1.55.16,3.68,0,5.38-.38,4.01.92,8.27.72,12.57-.22,4.66-.96,9.6-1.8,14.36l-.54-.18.18.54c1.98,4.84,1.04,9.57,1.08,14.36.02,2.48.94,5.06.72,7.54-.09,1.04-.74,2.17-.72,3.23.02,1.41.61,2.54.72,3.95.26,3.46-.88,6.47-1.08,10.05-.14,2.62.66,5.33.36,7.9-.2,1.72-1.31,3.6-1.43,5.38-.18,2.57.87,5.43.72,8.26-.15,2.68-.9,5.23-.72,7.54.06.81.6,1.71.72,2.51.36,2.57-.38,5.11-.36,7.9.04,4.4.73,8.6.36,13.64-.41,5.54-.17,11.28-.72,15.8-.56,4.61-2.12,8.96-2.51,13.64-.23,2.74-.34,5.44-.72,7.9-.38,2.46.39,5.23,0,7.54-.86,5.15-5.07,10.46-11.49,8.62-.63-1.52-1.93-2.38-3.23-3.23-1.23-2.71-2.25-4.72-2.15-8.26.04-1.6-.16-3.9,0-5.03.21-1.43,1.21-2.89,1.44-4.31.67-4.15-.45-8.33,0-12.56.28-2.61,1.3-4.96,1.43-7.54.05-.92-.35-1.94-.36-2.87-.01-1.24.68-2.62.72-3.95.04-1.44-.44-2.69-.36-3.95.15-2.46,1.01-4.81,1.08-7.18.07-2.63-.88-5.13-.72-7.54.07-1.02.75-2.21.72-3.23-.11-3.18-2-6.03-2.15-8.98-.09-1.6.65-3.09.72-4.67.23-5.19-.15-9.64-1.08-14,.89-6.36-.08-15.5,0-23.7.03-3.64.2-8.35-.36-12.93-.21-1.75-.34-4.22-.72-6.46-.2-1.18-.94-2.05-1.08-3.23-.3-2.71.76-4.59,1.08-7.18.33-2.63-.56-5.79-.36-8.97.24-3.66,1.46-7.45,1.08-11.49-.24-2.49-1.59-4.75-1.8-7.18-.38-4.65.88-9.31.36-14-.19-1.7-.47-2.83-.36-5.03.43-8.82,1.57-18.14.72-28-3.43,2.07-5.29,5.72-8.62,7.9-.46,1.69-1.02,3.29-2.15,4.31-1.51-.52-1.25-2.82-3.59-2.51-1.55,1.32-.2,5.54-1.08,7.54,1.61.02,2.44-1.56,4.31-1.44,3.06.2,4.43,3.46,4.31,7.18-1.05,2.42-6.53,3.02-8.26.72-.81,4.13-.35,8.2-.72,12.21-.27,2.98-1.21,5.71-.72,8.97.16,1.09.86,1.96,1.08,2.87,1.01,4.27-.2,8.72-.72,12.21-.26,1.72-.01,3.61-.36,5.39-.57,2.91-1.81,5.45-1.8,8.26,0,1.45.62,2.84.72,4.31.17,2.47-.53,5.2-.72,7.9-.17,2.52-.19,4.62-.72,6.82-.84,3.51,1.07,8.52,1.08,12.93,0,1.9-.48,4.99,0,7.54.37,1.98,1.33,4.07,1.08,7.54-.23,3.15-.83,6.22-.72,9.34.16,4.23.9,8.47-.72,12.21.5,1.75,1.02,3.31,1.08,5.03.03.87-.63,1.33-.72,2.15-.08.74.36,1.73.36,2.51,0,1.77-1,3.43-1.08,5.03-.22,4.46,2.25,8.84,2.16,13.29-.1,4.43-1.87,8.79-1.8,13.29.08,5.1,1.22,9.93,1.08,15.08-.19,7.19.07,17.25,0,25.49-.02,2.71-.97,5.62-.72,8.26.09.94.76,1.93.72,2.87-.12,2.35-1.51,4.53-1.8,6.82-.42,3.39.55,7.28,0,10.77-.29,1.84-1.51,3.64-1.79,5.38-.36,2.18.02,4.66-.36,6.82-.27,1.55-1.02,3.02-1.08,4.31-.08,1.91,1,3.6,1.08,5.39.35,7.97-5.53,13.96-14,10.41-2.65-3.62-4.22-7.46-3.95-12.21.05-.83.59-1.6.72-2.51.65-4.58.48-9.93,1.43-14.72,1.19-5.97,1.27-14.31,1.44-20.82.04-1.8.97-3.36,1.08-5.03.14-2.23-.91-4.04-1.08-6.1-.32-3.89,1.84-7.84,0-11.49,1.48-4.79-.93-10.95-.72-16.52.04-1.08.43-2.15.36-3.23-.04-.71-.61-1.43-.72-2.16-.72-4.97,1.83-9.93,0-14.72.22-2.55.55-5.72.36-10.05-.09-2.08-1.01-4.17-1.08-6.1-.11-3.38.27-6.96.36-10.41.11-4.23-.26-8.79,0-13.29.13-2.29.75-4.55.72-6.82-.05-3.62-.62-7.37,0-10.77.18-.98.95-1.92,1.08-2.87.6-4.59-.74-10.05-.36-14.72.14-1.78.12-2.99,0-5.03-.54-8.77.5-15.7.36-25.49-.05-3.6-.35-7.71,1.79-11.49-1.05-5.83-1.02-12.49-1.79-17.6-1.18-7.78.07-15.23,0-22.62-6.22-.97-10.78,3.02-15.8,2.51-3.58-.36-6.56-4.16-10.41-1.79v2.15c.76,1.27,3.66.41,3.95,2.15-.48,2.81-1.91,4.72-1.44,7.54.57,1.11,2.67.68,2.87,2.16,1.24,4.66-5.07,4.99-5.75,1.79.03-1.41.89-1.98,1.44-2.87-.55-1.24-1.54-2.05-2.51-2.87-1.53,2.28.11,4.7.36,7.54.28,3.12-.59,6.34-.72,9.69-.06,1.66.4,3.36.36,5.03-.07,2.51-.93,4.94-1.08,7.18-.06.9.35,2.63.36,3.59.03,1.92-.87,4.75-.72,7.54.08,1.43.68,4.12.72,6.11.11,5.24-.6,15.58-.36,22.62.18,5.18.75,15.3-1.44,21.18-.39,1.05-1.28,1.6-1.8,2.51-.72,1.26-.31,2.49-1.44,3.23-1.54,1.03-4.74.16-6.46.72-2.97-1.42-3.39-2.75-4.67-5.75-.28-.65-.95-1.01-1.08-1.43-1.11-3.78-.51-9.33.36-13.64.63-3.16.55-8.61.36-13.29-.28-6.75-1.41-11.59-1.08-19.75.35-8.6-.35-16.44,1.8-22.98-.34-7.26-2.07-14.32-2.15-20.82-.03-2.04.66-4.22.36-6.1-.18-1.13-1.16-2.16-1.44-3.23-.38-1.47.83-3.68-1.08-4.31-.07.29-.36.36-.36.72l-.54-.18-.54.18c-3.22-.77-5.08-4.27-8.62-3.59l.18-.66-.54-.42c11.57-4.82,7.51-5.03,5.03-6.11-2.77-1.2-4.83-2.88-6.1-5.03-1.73-.57-3.25.04-4.31,1.07.51,4.04.46,8.64,3.59,10.06,2.81-.42,5.46-1.01,8.26-1.44-6.46,1.44-6.64,2.1-6.64,2.1l.54.42c-2.58,1.63-2.27,2.8-5.03,2.16-2.08-.48-3.43-5.91-6.82-2.16l-.25-.61-.47-.46c1.46-1.97,1.55-4.62,2.51-6.82.55-1.27,2.11-2.01,1.8-3.59-.65-1.38-2-2.06-3.59-2.51-1.69-4.6-3.67-12.11-10.77-8.97l-.18-.54-.54.18c-1.44-5.23-9.68-1.54-7.18,2.87-.89-.05-1.73-.05-2.15.36-.97,4.64-.89,9.31-4.67,9.69-.98.1-2.22-.82-4.31-1.08-1.81-.23-3.9.45-5.03,0-4.31-1.72-2.34-5.32-1.08-9.34.63-2.01.81-4.06,1.79-5.38,1.05-1.42,6.12-5.06,8.26-5.75,2.58-.83,5.58-.28,6.46-2.51.43-1.1-.06-2.83,0-3.95.13-2.51,1.27-5.95-.72-7.18h-1.08l.18-.66-.54-.42c.97-5.35-5.56-14.56-12.21-10.41-.6.37-1.45.47-1.79.72-1.05.76-1.44,2.09-2.51,2.87-2.65,1.95-5.46,1.71-7.18,2.87.07,1.37,2,.87,2.15,2.16-1.31,2.23-.39,4.71.36,6.82-1.03,3.01-7.79,4.78-9.34,1.08.75-2.16.9-4.74,0-6.82.86-1.41,2.44-2.11,4.31-2.51-.88-1.77-2.12-1.97-1.79-4.31.75-5.42,12.78-1.2,11.85-7.54-1.67-1.13-2.53,2.25-4.67.72.05-.64-.44-.76-.36-1.44-.24-2.28,3.41-.66,3.59-2.52-.23-3.71-3.22-4.68-6.82-5.03l.18-.36-.18-.36c0-3.45-3.6-6.71-6.1-6.46-3.51.34-4.15,6.16-7.18,6.46l.13-.64-.49-.44c.18-2.45-2.99-1.56-3.23-3.59.36-2.99,3.77-2.93,7.18-2.87.25-2.66,1.43-5.55.36-7.54-1.38-1.34-3.43-2.82-2.87-5.03-6.84-1.34-7.29,3.72-13.28,3.23-1.2-.65-.6-1.78-1.08-2.88-.73-1.68-2.22-2.63-2.15-4.31.18-4.6,13.08-7.33,18.67-5.38.48.95,1.89.98,1.79,2.51,3.35-1.83-.11-8.58-.72-11.49-3.08-.75-4.81-2.85-6.82-4.67-3.88.06-2.92,4.97-5.03,6.82-3.57-1.13-7.14-6.07-3.95-9.69,1.93.01,4.1.27,4.67-1.08.09-2.01-2.44-2.58-3.59-3.95-.95-1.14-2.19-3.84-3.95-6.1-2.36-3.03-4.44-4.91-5.03-8.62-.45-2.81-.48-6.53-.36-9.69.11-2.94,1.47-5.97,1.08-8.98-.25-1.89-1.91-3.86-1.8-5.74.09-1.45,1.98-3.29,2.51-5.75.51-2.33-.19-5.18.36-6.82.66-1.97,3.02-2.96,3.59-4.31-3.07-2.69-8.92,1.48-11.13-2.15-1.69.64-2.67.86-3.95-.36-.55-1.86,1.64-.99,1.79-2.15,4.11.76,8.26,2.25,13.29,1.44.43-1.61-1.69-2.81-2.87-3.59-1.07-.71-3.03-1.98-3.95-2.15-5.04-.96-9.76,2.99-11.85,6.1.27.81,2.01.14,2.87.36-1.52,4.38-6.54,3.47-10.05,5.39l-.18-.54-.18-.54c-.03-.57.17-1.37-.36-1.44,1.64-1.13,4.36-.48,5.39-1.44-.33-2.79-5.48-1.84-6.82-.72-3.82-1.03-8.57-.26-12.21-.72-3.95-3.11-10.45-3.67-12.21-8.98-3.09-1.36-5.06-5.68-9.69-4.31-.15.86.66.78.36,1.8l-.66-.18-.42.54c-.92-.03-.51-1.4-1.44-1.44-.46.5-1.76.16-1.8,1.08-.21,1.89,1.81,1.54,2.87,2.15-.9.77-1.46,1.89-2.15,2.87.32,1.32,1.64,2.03.72,3.59-.64,1.93-4.18-.95-3.95,1.44-1.11.27-.44-1.24-1.79-.72.7,6.1-5.94,8.59-3.23,13.64,1.32,1.05,1.87-1.7,3.59-.36-.03,2.01-2.02,2.05-2.15,3.95-.85,0-1.06-.62-2.15-.36-3.56,2.39-6.34,8.27-4.67,13.64l-.18.54.54.18c-3.68,2.38-9.12,3.36-9.69,8.62-.13,1.19.75,2.32.36,3.95-1.35,2.84-5.7,2.68-6.46,6.1,1.61,3.13.29,6.29-3.95,6.1-1.65-.07-3.1-1.83-4.67-1.79-2.08.04-4.19,1.89-5.03,3.59-1.04,2.12-.37,4.84-2.15,6.46-2.04,1.86-5.24.23-8.26-.72-2.69,1.5-3.98,4.39-6.46,6.11-5.84.74-10.46,2.7-11.85,7.9l-.66-.18-.42.54c-1.33-2.55-1.03-6.62-3.59-6.82-3.14-.25-2.74,5.16-5.39,6.82-3.87-.56-3.7-5.16-6.46-6.82-1.85.3-2.87,1.44-2.51,3.95l-.54-.18-.54.18c-.31.07-.34-.14-.36-.36-1.66.13-2.68.91-3.59,1.8.07,3.41,2.56,8.76,2.87,13.28.23,3.22-.3,7.13-2.87,7.54-3.49.55-3.81-3.04-5.03-5.39-1.26-2.44-3.74-4.82-3.95-7.54-.37-4.9,4.55-10.89.36-13.64-5.19.56-9.49,1.04-12.93-1.44-3.15.92-4.53,3.61-6.1,6.1l-.36-.18-.36-.18c-1.76-1.65-1.92,2.27-3.23,1.08.51-2.8,1.53-7.83,0-10.41-.64-1.04-2.39-.96-2.87-2.16-1.16.16-3.11-.47-3.23.72-.65-1.49-2.27-1.58-3.95-3.23-2.67-2.62-3.34-7.1-6.1-7.18-2.54-.07-2.48,2.4-4.67,3.59-6.42-2.8-4.71-13.72-11.13-16.52,1.63-5.3-2.66-7.57-5.39-9.69-3.28,1.74-6.42-.82-9.34-.36-2.6.42-3.13,3.28-6.1,2.87.88-3.9,5.78-3.79,7.9-6.46,1.05-1.95.87-5.99.36-10.05-.52-4.12-1.25-8.31-4.31-9.69-.48-.22-3.96-.71-4.31-.72-1.58-.03-3.24,1.49-5.39.36,1.08-2.12,3.36-1.14,5.03-1.79,4-1.57,6.93-6.02,9.33-9.69-.2-3.33.43-4.16-.72-6.1-1.57-2.66-5.58-2.14-6.46-3.95-.94-1.92,0-4.43,2.15-5.74,4.4.34,6.94-.34,7.18-2.87.32-3.35-8.39-7.22-1.44-11.13,2.08-.19,5.24.7,5.39-1.44l.54.18.18-.54c.81-1.35.78-3.53,1.44-5.03.78-.06.16,1.27.36,1.79.61-1.06.86-2.49,1.44-3.59-.33.38-1.32.11-1.08,1.08-1.74-1.25-2.64-3.35-4.31-4.67-6.35.96-8.92-4.87-14.36-2.51l-.36-.18-.36.18c-2.34-2.47-2.77-5.48-5.39-7.9-1.45-1.34-3.92-1.72-5.03-3.23-1.4-1.92-.48-5.04-3.23-6.1-1.59.38-4.21.64-5.75,0l.18-.54-.54-.18c.87-2.24,2.92-3.31,4.31-5.03-.04-4.03-2.55-5.58-5.39-6.82-1.08-2.56,1.61-4.08,1.79-5.39.38-2.67-.72-3.95-1.79-6.46-.46-.62-2.15,0-2.15-1.08l.54-.18-.18-.54c5.67-.15,3.96-6.27,4.67-10.77l.54-.18-.18-.54c2.94.29,2.21-1.65,3.95-3.95,1.85-2.45,5.81-3.68,3.23-8.62l.54.18-.18-.54c1.92-1.45,4.08.52,5.39-.36,1.22-1.18,1.37-3.42,2.51-4.67l.36.18.36-.18c.58-.1.62.34,1.08.36.95.11,1.18-.5,1.08-1.44,1.33-.14.94,1.46,2.51,1.08.74-1.18.19-3.64.36-5.39l.54.18.18-.54c2.64-.04,3.98,2.52,7.54,2.15,1.62-.17,2.95-1.99,4.67-2.15,2.5-.24,4.66,1.67,6.82,1.08,1.78-.49,2.45-2.58,2.87-3.95,1.72-.37,3.22,1.14,3.95-.36l.18.54.54.18c-.27,3.75,1.13,5.33,3.23,5.39,2.19.06,3.28-3.32,5.75-2.51.64,1.63.62,3.92,1.8,5.03,1.89.09,3.35-.25,4.67-.72l.18.54.54.18c.99,4.16,3.97,6.32,8.26,7.18,1.44,2.86.81,7.8,5.74,7.18l-.18.54.54.18Zm215.78-71.09c-.86.14.2-1.64-1.08-1.08-.49,1.02.64,2.16,1.08,1.08Zm14,44.52c-1.2-.72-1.89-1.93-3.23-2.51-.74,2.13-5.04.71-6.1,2.51-.02,2.65,1.48,3.78,3.59,4.31,1.01-1.35,3.56-2.37,3.59-3.59.39.82,1.76-.36,2.15-.72Zm-22.62,15.44c-.83,1.52.2,2.75,0,4.67,3.35,1.08,4.87,3.99,7.54,5.74-.21-4.23,1.16-7.26,1.8-11.49-2.72-2.75-6.79.31-9.34,1.08Zm71.45,2.51c.09,2.18,2.1,2.45,2.15,4.67,1.32-.35,2.05-1.31,2.87-2.15-.47-2.47-2.28-3.18-5.03-2.51Zm-1.44,7.54c.63-.62.4-2.22-.36-2.51-.49.49-.68,2.51.36,2.51Zm82.94,10.41c.82,4.5,8.07,4.31,6.46,10.05,2.34-.65,3.09-2.89,4.67-4.31-1.76-2.55-3.99-4.63-4.67-8.26-2.7-1.49-5.58.14-6.46,2.51Zm-22.62,11.13c1.26-.78,1.96-2.1,2.15-3.95-1.33.25-1.54-.61-2.87-.36-.79,1.23-.32,3.76.72,4.31Zm24.05-1.44c.08-.68-.4-.79-.36-1.44-.63.21-2.11-.43-2.15.36,1.03.16,1.12,1.27,2.51,1.08Zm-17.95,2.51c1.29.03,2.07.56,3.23.72,1.32-2.25-2.88-2.9-3.23-.72Zm-416.13,15.08c1.1.26,1.31-.37,2.15-.36-.5-1.03.98-1.82,0-2.15-.25,1.31-1.04,2.07-2.15,2.51Zm185.62,7.54c1.56.14,1.99-.29,1.44-1.44-.91.04-1.39.52-1.44,1.44Zm9.34,3.59c.43-2.04,2.82-.07,3.95-1.08-.22-2.1-2.88-.89-4.31-1.08-1.74-.23-4.55-1.12-6.82-.36.51,3.16,3.68,1.48,5.74,2.87l-.18.54.54.18c.03.98-.6.72,0,1.44,1.24.25,1.29-1.26.72-1.8l.54-.18-.18-.54Zm165.16,27.65c2.82-.6,3.23-6.8,6.82-6.82,2.24-.01,4.04,2.27,2.87,6.1,1.11.45,2.55.56,3.95.72,1.3-2.06,3.98-2.72,5.39-4.67-1.22-5.21,2.84-6.53,2.51-11.85-4.79-1.7-9.56,2.17-14,3.95-3.01-.5-6.02-2.78-8.98-2.15.07,1.6,2.62.73,2.87,2.15.41.79.93,1.47.72,2.87,1.09.22,1.84.8,1.8,2.15-.31.53-.54,1.14-1.44,1.08-2.19-.44-3.08-2.19-5.39-2.51-.43,2.1,1.12,2.23,1.44,3.59-.66,1.02-1.86,1.5-1.8,3.23.35.01.28.44.36.72l-.18.54.18.54c-4.72,2.19,1.41,11.51-3.95,12.93.44,1.35,1.81,1.78,1.8,3.59-1.76,3.45-6.49-.27-3.95-3.23-1.61.18-2.69-.18-3.95-.36-3.26,3.2.55,8.07,1.8,11.13,4.56-1.04,8.09.96,9.69,3.95-1.12,4.63,3.15,6.23,4.31,9.69-.17-1.7,1.16-.16,1.8-.36,1.93-.6,6.37-3.98,6.46-7.18-2.27-.88-6.18,2.95-7.9-.36.81-3.8-3.27-2.72-3.59-5.39l.54.18-.18-.54c.79-1.13,3.14-.69,3.23-2.51-5.95.11-4.55-7.27,0-6.46,2.31.41,3.34,3.37,1.8,6.1,5.36,1.76,8.67-1.2,7.9-7.54-3.2-2.12-7.96.94-13.28,0-3.04-3.11,3.3-6.1,1.08-11.49-.29-.31-.98-.21-1.08-.72l.54-.42-.18-.66Zm8.26,5.03c-.16,1.23-.82,3.23,0,4.31,3.78-.65,8.05-.8,8.26-5.03-.46-.02-.5-.46-1.08-.36-1,3.55-4.96,2.52-7.18,1.08Zm120.28,16.52c-.33-1.59-1.48-2.35-1.8-3.95.36-1.2,1.67-1.44,1.44-3.23-.08-.4-.4-.56-.72-.72-1.33,1.87-2.53,8.94,1.08,7.9Zm-298.72,4.67c.46,1.63-2.1,2.5-.36,3.23.73-.69,2.28-3.22,1.08-3.59-.08.28-.3.42-.72.36Zm177.37,13.29c-.41,3.16,1.58,3.93,1.79,6.46,1.56.37,1.65-.74,2.51-1.08-1.4-4.29,1.3-6.58,2.51-9.33-3.39.2-4.39,2.79-6.82,3.95Zm8.26,7.9c-.24.74-1.17,1.64-1.44,2.15-1.52,2.9-.94,4.32,0,7.18,5.17,1.21,11.9-5.7,5.39-9.34-.66-1.02-.3-3.05-1.8-3.23-2.2-.93-1.58,1.47-2.15,3.23Zm-309.13,17.23v-.72c-.66-1.19-1.75,1.08,0,.72Zm0,20.82c1.89-4.96.97-11.32,0-16.16-.01-.35-.44-.28-.72-.36,0,.71-.98.46-.72,1.44,1.1,4.39,1.69,11.09,1.08,15.08h-.36v.36c-2,1.16-4.49-.29-6.46-.36-.86,1.05-1.18,2.65-1.08,4.67,1.24,1.52,3.16,2.34,5.03,3.23,1.49-1.78,3.3-5.02,2.87-7.54h.36v-.36Zm282.92-16.16c-1.09,1.21,1.33,1.09,0,0h0Zm1.08,3.59c-.12-.13.02-.49-.36-.36-3.37,4.24-10.35,2.38-15.8,3.95.76,4.63,6.46,4.31,6.46,9.7,3.13.34,5.75,1.19,9.34,1.07.84.12.21,1.7,1.44,1.44,3.26.33,6.98.2,10.05.72,1.47-.45,2.16-1.67,3.59-2.16,4.78.52,12.33,1.28,12.21-5.02-2.24.53-4.92-.09-7.54.72-1.68.52-2.73,2.14-4.31,2.51-2.56.6-5.28.33-7.54-.72,2.03-7.7-4.39-8.26-7.54-11.85Zm-75.04,48.47c1.49-.2,2.7-2.56,1.79-3.95-.35,1.57-1.89,1.94-1.79,3.95Z"/>
      <path class="cls-1" d="m610.55,506.87l.18-.54c.92.63,1.27,1.84,1.08,3.59-1.48-.2-1.89-1.46-1.79-3.23l.54.18Z"/>
      <path class="cls-1" d="m590.08,504l-.18-.54c1.67-.09,2.12-.62,3.95,0,4.8,5.54-6.6,7.84-4.31.72l.54-.18Z"/>
      <path class="cls-1" d="m544.6,571.5l.42-.54c.53.3.52,1.16.72,1.8,5.38,2.38,7.38-2.89,11.13-4.31,3.99.02,7.95,2.46,11.49.72,2.92.91,4.02,3.64,8.62,2.87,3.68,2.18,6.39,5.34,9.33,8.26,2.31-.4,3.34.48,4.31,1.44.45,1.62-.55,3.09-.36,4.67.18,1.47,1.56,2.51,1.8,3.95.17,1-.46,2.73-.36,3.95.15,1.95,1.18,3.42,1.08,4.67-.26,3.23-4.27,4.87-2.51,8.62-.53,1.62-2.66,1.65-3.95,2.51-.81,1.41.39,2.6-.36,3.95-.84.96-2.5,1.09-3.95,1.44-.85,1.06-.78,3.05-1.79,3.95-2.11.84-3.33-.48-5.03,0-2.01.56-2.54,2.76-4.67,3.59-2.86-1.91-4.95-.3-7.18,1.08-2.32-1.7-4.72-2.86-7.9-1.08-1.67-.73-2.55-2.24-3.95-3.23-1.46.1-2.5.62-3.95.72-1.96-.8-1.86-3.64-3.23-5.03-1.56,0-3.23.12-4.31-.36-.52-1.16-.34-3.01-.36-4.67-.79-1.72-3.82-1.21-4.67-2.87-.38-1.94.98-2.14.72-3.95-.29-2.22-3.41-1.62-3.95-3.59.21-2.07,2.28-2.27,3.23-3.59.05-3.71-2.1-2.71-3.23-3.95,1.07-3.72,4.36-5.22,6.11-8.26-.96-4.91,2-5.9,4.66-7.18.56-1.83,1.13-3.65,1.44-5.75l.66.18Z"/>
      <path class="cls-1" d="m397.28,618.54l.54.18c2.3,2.2.2,7.04-3.23,6.82-2.02-2.8.61-5.71,2.15-7.18l.54.18Z"/>
      <path class="cls-1" d="m374.73,614.66l.47.47c.49,5.89-5.54,14.14-9.69,12.93-2.21-3.34,1.59-11.39,5.03-12.93,1.43-.64,2.79-.08,3.95-1.08l.25.61Z"/>
      <path class="cls-1" d="m363.17,592.32l.54.18c-1.24,2.03-1.99,2.13-1.08,5.03-2.78,1.62-2.3-2.26-5.39-1.44.23-1.56,1.87-1.72,2.15-3.23l.54-.42-.18-.66h3.59l-.18.54Z"/>
      <path class="cls-1" d="m354.19,568.63l.18.54c-1.14,2.89-.37,7.57-3.95,7.54-1.18,0-2.71-.88-2.87-2.87-.32-3.95,4.06-3.78,6.46-5.75l.18.54Z"/>
      <path class="cls-1" d="m327.27,545.47l.18.36c-.92,1-1.35,2.48-3.59,2.16-.95-2.02,1.07-3.23,3.59-2.88l-.18.36Z"/>
      <path class="cls-1" d="m312.54,544.57l.18.54c-1.66,1.01-4.54,2.12-6.46,3.23-1.87,1.09-3.2,2.32-5.03,3.59-1.49,1.03-3.7,2.06-5.39,3.23-1.73,1.19-3.38,3.68-5.75,1.44-.56-2.53,2.35-3.91,4.31-5.74,2.79-2.61,4.72-6.28,9.33-6.82,1.07-.12,1.74.73,2.87.72,1.91-.02,3.78-2.96,6.1-.72l-.18.54Z"/>
      <path class="cls-1" d="m276.28,438.77l.54.42c-.6.72-.96,1.67-2.15,1.79-.84-.59-.78-2.09-.72-3.59,1.31-.23,1.91.24,2.51.72l-.18.66Z"/>
      <path class="cls-1" d="m241.22,423.22l.42-.54c2.47.1,3.55,2.9,6.1,1.8.71,2.36.24,3.69,1.44,5.39.97-.22,2.85.46,3.23-.36.95.6-.71,2.06.72,2.51-1.24.62-3.41-.49-4.31,1.08-1.25-1.02-2.98-1.57-3.95-2.87-.24-1.31.78-1.38.72-2.51-1.42-1.93-5.99-1.4-5.03-4.67l.66.18Z"/>
      <path class="cls-1" d="m165.82,510.11l.42-.54c.46,1.8,1.05,4.62.36,6.46-2.05-.46-1.32-3.71-1.44-6.1l.66.18Z"/>
      <path class="cls-1" d="m147.03,512.26l.54-.18c.27,4.58-.46,8.15-.36,12.56-1.94-.08-1.35-2.74-1.44-5.03-.1-2.72-.47-6.22.72-7.54l.54.18Z"/>
      <path class="cls-1" d="m53.68,387.31l.54-.18c-.29,1.51-1.48,3.62-2.87,2.87,0-1.8,1.14-2.44,2.15-3.23l.18.54Z"/>
      <path class="cls-1" d="m26.39,370.08l.54.18c-.88.92-2.08,1.51-3.59,1.8l-.18-.54-.54.18c-1.07-2.39-4-4.47-2.87-7.9,3.69-.72,6.36,2.11,6.82,5.74l-.18.54Z"/>
      <path class="cls-1" d="m31.42,325.56l.18.54c-1.63.07-2.88-.23-2.87-1.8,1.66-.23,2.59.28,3.23,1.08l-.54.18Z"/>
      <path class="cls-1" d="m283.64,337.23h2.15v1.44c-1.02-.06-2.46.31-2.51-.72l.54-.18-.18-.54Z"/>
      <path class="cls-1" d="m62.11,483c-.65.91-1.37,1.74-3.23,1.43.18-1.5,1.62-1.73,2.87-2.15l-.18.54.54.18Z"/>
      <path class="cls-1" d="m613.6,503.46c.37-.8,1.24.88,1.08,1.79-1.13.17-.27-1.64-1.08-1.79Z"/>
      <path class="cls-1" d="m179.52,542.95c.59.86,1.74,3.02.72,4.31-1.54-.26-1.52-2.07-1.44-3.95l.54.18.18-.54Z"/>
      <path class="cls-1" d="m619.34,569.88c.34-.88,1.41.46,1.44,1.08-.73-.11-.71-.97-1.44-1.08Z"/>
      <g>
        <path class="cls-1" d="m542.08,115.48l-.19.6-.16.45c-.05.13.02.26.16.31.13.05.28-.04.33-.17l.15-.4.22-.7c.04-.13-.04-.24-.17-.28-.13-.04-.28.07-.33.2Z"/>
        <path class="cls-1" d="m384.73,169.18l-.81,1.73c.12-.25.41-.34.65-.23.25.12.35.42.23.67l.84-1.79c.12-.25,0-.53-.25-.64-.25-.12-.55.01-.67.26Z"/>
        <path class="cls-1" d="m385.78,161.75c-.25.14-.34.45-.2.69.53.96.68,2.08.43,3.24-.06.28.12.55.39.61.28.06.55-.12.61-.39.3-1.4.12-2.76-.53-3.94-.14-.25-.45-.34-.69-.2Z"/>
        <path class="cls-1" d="m436.55,204.06c-.08.12.06.32.18.41l.33.21c-.12-.08-.1-.19-.02-.31.08-.12.31-.11.43-.03l-.65-.39c-.13-.08-.19,0-.27.13Z"/>
        <path class="cls-1" d="m135.28,291.39c-.1.46-.52.78-.88.87-.14.04-.23.18-.2.32.04.14.18.23.32.2.62-.15,1.15-.68,1.27-1.28.03-.14-.06-.29-.21-.32-.14-.03-.29.06-.32.21Z"/>
        <path class="cls-1" d="m74.57,292.15c-.11.06-.14.2-.08.31.2.33.17.72.15,1.15v.74c0,.12.1.2.22.2.12,0,.22-.12.22-.25v-.66c.03-.47.06-.96-.21-1.4-.06-.11-.2-.14-.31-.08Z"/>
        <path class="cls-1" d="m110.24,293.18c-.82,1.96-2.09,4.83-3.66,7.07-.09.13-.06.32.07.41.13.09.32.06.41-.07,1.61-2.29,2.89-5.2,3.72-7.18.06-.15,0-.32-.16-.38-.15-.06-.32,0-.38.16Z"/>
        <path class="cls-1" d="m98.58,295.28l-.75,2.31c-.45,1.45-.91,2.96-1.57,4.3-.09.18-.01.39.17.48.18.09.39.01.48-.17.68-1.39,1.15-2.92,1.61-4.4l.74-2.28c.06-.19-.04-.4-.23-.46-.19-.06-.39.03-.45.22Z"/>
        <path class="cls-1" d="m34.33,304.46c-.09.2,0,.44.2.53.85.39,1.43,1.08,2.05,1.81l1.21,1.29c.15.16.38.14.54-.01.16-.15.14-.43-.01-.59l-1.13-1.2c-.65-.76-1.32-1.55-2.33-2.01-.2-.09-.44,0-.53.2Z"/>
        <path class="cls-1" d="m128.99,315.74c-.13.28-.57.64-.89.74-.16.05-.25.21-.2.37.05.16.21.25.37.2.49-.15,1.06-.62,1.26-1.06.07-.15,0-.32-.14-.39-.15-.07-.32,0-.39.14Z"/>
        <path class="cls-1" d="m113.3,313.72l-.19.22-.29.28c-.09.09-.15.27-.06.36.08.09.17.13.26.05l.44-.4.15-.18c.08-.1.08-.25-.01-.33-.09-.08-.22-.09-.31,0Z"/>
        <path class="cls-1" d="m115.19,310.09c-.59.37-.79.69-1.13,1.22l-.19.3c-.13.21-.07.49.14.63.21.13.49.08.62-.14l.2-.31c.31-.49.43-.68.84-.94.21-.13.28-.41.14-.62s-.41-.28-.62-.14Z"/>
        <path class="cls-1" d="m258.91,314.32c-1.37,1.6-2.93,3.42-4.74,4.86-.15.12-.17.33-.06.48.12.15.33.17.48.06,1.87-1.48,3.44-3.33,4.83-4.95.12-.14.11-.36-.04-.48-.14-.12-.36-.11-.48.04Z"/>
        <path class="cls-1" d="m37.66,316.73s0,.02,0,.03c0,.16.14.24.27.3.22.5.58.9.95,1.27l.79.95c.14.17.43.26.6.12.17-.14.24-.32.1-.49l-.94-1.14c-.37-.36-.71-.71-.85-1.12l-.08-.25-.42-.03c-.22-.02-.41.14-.43.36Z"/>
        <path class="cls-1" d="m269.04,326.51c-.26.05-.47.32-.42.58.05.26.27.44.54.39l.97-.19c-.26.05-.56-.11-.61-.38-.05-.26.09-.51.35-.57l-.83.17Z"/>
        <path class="cls-1" d="m140.49,332.27c-1.68.44-3.48.89-5.34,1.07-.17.02-.29.16-.27.33.02.16.16.29.33.27,1.9-.19,3.72-.64,5.43-1.09.16-.04.26-.21.21-.37-.04-.16-.21-.26-.37-.21Z"/>
        <path class="cls-1" d="m20.6,340.9c-1.88.29-3.94.24-5.33.18-.15,0-.28.11-.29.26,0,.15.11.28.26.29,1.41.07,3.52.12,5.44-.18.15-.02.26-.17.23-.32-.02-.15-.17-.26-.32-.23Z"/>
        <path class="cls-1" d="m140.52,344.56c-2.67.34-5.45.17-8.14,0-.21-.01-.4.15-.41.36-.01.21.15.4.36.41,2.72.17,5.54.34,8.28,0,.21-.03.36-.22.33-.43-.03-.21-.22-.36-.43-.34Z"/>
        <path class="cls-1" d="m6.6,356.08l-.27.03-4.42.69c-.19.03-.3.21-.27.4.03.19.23.32.42.29l4.36-.68.27-.03c.19-.02.33-.2.31-.39-.02-.19-.2-.33-.39-.31Z"/>
        <path class="cls-1" d="m52.06,402.49c-.25.17-.62.06-.78-.19l.55.82c.17.25.46.26.71.09.25-.17.27-.57.11-.82l-.41-.62c.17.25.07.55-.18.72Z"/>
        <path class="cls-1" d="m622.52,407.98c-.6.92-1.09,1.93-1.56,2.92-.62,1.29-1.21,2.51-2.01,3.52-.1.12-.08.3.05.4.12.1.3.08.4-.05.84-1.06,1.47-2.37,2.08-3.63.47-.97.95-1.97,1.53-2.86.09-.13.05-.31-.08-.39-.13-.09-.31-.05-.4.08Z"/>
        <path class="cls-1" d="m647.63,405.57c-.1.46-.52.78-.88.87-.14.03-.23.18-.2.32.04.14.18.23.32.2.62-.15,1.15-.68,1.28-1.28.03-.14-.06-.29-.21-.32-.14-.03-.29.06-.32.21Z"/>
        <path class="cls-1" d="m610.57,410.23c-.37,2-1.16,4-1.95,5.85-.08.17,0,.38.18.45.17.07.38,0,.45-.18.81-1.89,1.62-3.93,2-6,.03-.19-.09-.36-.27-.4-.19-.03-.37.09-.4.27Z"/>
        <path class="cls-1" d="m395.82,418.43c-.06.21.06.44.27.5.61.18,1.22.66,1.66,1.01.17.14.43.11.56-.07.14-.17.11-.43-.07-.56-.62-.48-1.23-.93-1.93-1.15-.21-.06-.44.06-.5.27Z"/>
        <path class="cls-1" d="m546.69,418.64c-.09.2,0,.44.2.53.85.39,1.43,1.08,2.05,1.8l1.21,1.29c.15.16.38.14.54-.01.16-.15.14-.43-.01-.59l-1.13-1.2c-.65-.76-1.32-1.55-2.33-2.01-.2-.09-.44,0-.53.2Z"/>
        <path class="cls-1" d="m641.34,429.91c-.13.28-.57.64-.89.74-.16.05-.25.21-.2.37.05.16.21.25.37.2.49-.15,1.06-.62,1.26-1.06.07-.15,0-.32-.14-.39-.15-.07-.32,0-.39.14Z"/>
        <path class="cls-1" d="m625.65,427.9l-.19.22-.29.28c-.09.09-.15.27-.06.36.08.09.17.13.26.05l.44-.4.15-.18c.08-.09.08-.25-.01-.33-.09-.08-.23-.09-.31,0Z"/>
        <path class="cls-1" d="m627.54,424.27c-.59.37-.79.69-1.13,1.23l-.19.3c-.13.21-.07.49.14.63.21.13.49.07.62-.14l.19-.3c.31-.5.43-.68.85-.94.21-.13.28-.41.14-.62-.13-.21-.41-.28-.62-.14Z"/>
        <path class="cls-1" d="m260.34,436.28c-.12.08-.16.25-.08.37.3.46.83.78,1.37.83.46.04.88-.11,1.2-.43.1-.11.1-.27,0-.38-.11-.1-.27-.1-.38,0-.25.26-.55.29-.76.27-.38-.04-.76-.27-.98-.59-.08-.12-.25-.16-.37-.08Z"/>
        <path class="cls-1" d="m268.55,436.96c-.09.19-.4.22-.59.14l.77.33c.19.08.26-.04.35-.23.09-.19-.14-.45-.33-.55l-.29-.15c.19.1.18.27.09.46Z"/>
        <path class="cls-1" d="m242.49,439.73c0,.21-.17.3-.8.43l-.34.08c-.22.05-.33.26-.28.48.05.22.28.35.5.3l.29-.07c.53-.11,1.43-.3,1.44-1.21,0-.22-.18-.4-.4-.41-.22,0-.4.18-.41.4Z"/>
        <path class="cls-1" d="m652.84,446.44c-1.68.44-3.48.89-5.34,1.07-.16.02-.29.16-.27.33.02.16.16.29.33.27,1.9-.19,3.73-.64,5.43-1.08.16-.04.26-.21.21-.37-.04-.16-.21-.26-.37-.21Z"/>
        <path class="cls-1" d="m22.14,447.16c-.86.35-2.02.77-3.31.87-.18.01-.31.17-.29.34.01.18.17.31.34.29,1.39-.11,2.6-.55,3.51-.92.16-.07.24-.25.17-.42-.07-.16-.25-.24-.42-.17Z"/>
        <path class="cls-1" d="m644.32,459.08c-.02.19.13.36.31.38l.73.09c.75.11,1.53.22,2.3-.12.17-.07.25-.27.17-.44-.07-.17-.27-.25-.44-.17-.6.26-1.25.17-1.94.07l-.78-.09c-.18-.02-.34.11-.36.3Z"/>
        <path class="cls-1" d="m643.22,471.47c-.12.2-.05.45.14.57.69.41,1.45.49,2.19.56.67.07,1.3.13,1.83.44.2.12.45.05.57-.15.12-.2.05-.45-.15-.57-.69-.41-1.44-.48-2.17-.56-.67-.07-1.31-.13-1.85-.45-.2-.12-.45-.05-.57.14Z"/>
        <path class="cls-1" d="m637.42,497.88c-.11.13-.08.33.05.44l3.53,2.89,4.19,3.4c.13.11.32.08.43-.05.11-.13.08-.34-.05-.44l-4.16-3.37-3.55-2.91c-.13-.11-.32-.08-.43.05Z"/>
        <path class="cls-1" d="m107.81,498.05l-.36.52c-.23.36-.41.65-.78.82-.17.07-.24.27-.17.44.07.17.27.24.44.17.55-.25.82-.67,1.07-1.07l.31-.46c.1-.15.08-.38-.07-.48-.15-.1-.34-.08-.45.07Z"/>
        <path class="cls-1" d="m100.73,499.6l-1.97,3.33-2.16,3.68c-.16.28-.05.6.22.77.28.16.65.04.81-.24l2.11-3.59,2.02-3.4c.16-.28.06-.61-.22-.77-.28-.16-.65-.05-.81.23Z"/>
        <path class="cls-1" d="m672.4,508.14c-.09.14-.07.32.08.41l2.07,1.33,1.88,1.19c.14.09.35.06.44-.09.09-.14.06-.32-.08-.42l-1.93-1.22-2.02-1.29c-.14-.09-.35-.06-.44.08Z"/>
        <path class="cls-1" d="m101.3,509.37l-1.55,2.75-1.15,2.1c-.1.18-.04.41.14.5.18.1.39.04.49-.13l1.17-2.14,1.52-2.7c.1-.17.05-.41-.13-.51-.17-.1-.38-.06-.48.12Z"/>
        <path class="cls-1" d="m606.88,515.12c-.2.04-.33.28-.28.49l.36,1.71c.14.9.29,1.83.75,2.67.1.18.33.25.51.15.18-.1.25-.33.15-.51-.4-.72-.53-1.55-.67-2.42l-.38-1.82c-.04-.2-.23-.3-.44-.25Z"/>
        <path class="cls-1" d="m173.69,516.13c-.22.73.09,1.28.35,1.77.22.39.4.73.35,1.15-.02.16.09.3.25.32.15.02.3-.09.31-.25.07-.6-.19-1.07-.42-1.49-.25-.45-.46-.83-.31-1.34.04-.15-.04-.31-.19-.35-.15-.04-.31.04-.35.19Z"/>
        <path class="cls-1" d="m175.02,524.02c-.18.08-.26.28-.19.46.24.57.5,1.31.39,2.09-.03.19.11.37.3.4.19.03.37-.11.4-.3.13-.94-.17-1.81-.44-2.46-.08-.18-.28-.26-.46-.19Z"/>
        <path class="cls-1" d="m591.4,523.81c-.16.26-.08.61.18.77.87.54,1.56,1.02,2.11,1.62.21.23.56.25.79.04.23-.21.25-.56.04-.79-.67-.74-1.53-1.31-2.35-1.82-.26-.16-.61-.08-.77.18Z"/>
        <path class="cls-1" d="m162.79,530.14c-.24.02-.41.26-.39.5l.18,2.03c.08,1.38.17,2.82.75,4.18.09.22.35.33.57.23.22-.09.33-.35.23-.57-.52-1.22-.6-2.52-.68-3.89l-.19-2.11c-.02-.24-.23-.39-.47-.37Z"/>
        <path class="cls-1" d="m145.76,537.59v1.87c-.03,1.12-.06,2.27.19,3.39.04.2.24.32.44.28.2-.04.32-.24.28-.44-.23-1.03-.2-2.09-.17-3.21v-1.93c0-.2-.16-.35-.37-.35s-.37.18-.37.39Z"/>
        <path class="cls-1" d="m181.82,537.46c-.26.12-.38.42-.26.68.69,1.53,1.02,3.18,1.37,4.91.26,1.27.52,2.58.94,3.83.09.27.38.42.65.33.27-.09.42-.38.33-.65-.4-1.2-.66-2.48-.91-3.72-.35-1.72-.71-3.49-1.44-5.13-.12-.26-.42-.38-.68-.26Z"/>
        <path class="cls-1" d="m600.12,548.4c-.2.08-.32.26-.24.46l.48,1.27.47,1.33c.07.2.31.38.52.31.2-.07.33-.23.26-.43l-.53-1.53-.43-1.13c-.08-.2-.32-.35-.52-.27Z"/>
        <path class="cls-1" d="m145.24,550.41c-.23,1.38-.21,2.79-.19,4.15.02,1.19.04,2.42-.12,3.59-.04.29.17.56.46.6.29.04.57-.17.6-.46.17-1.25.15-2.52.13-3.75-.02-1.37-.05-2.66.17-3.95.05-.29-.15-.57-.44-.62-.29-.05-.57.15-.62.44Z"/>
        <path class="cls-1" d="m611.2,551.72c-.22.04-.36.24-.33.45l.08.46,2.25,1.67c.75.5,1.52,1.02,2.18,1.62.16.15.41.14.56-.03.07-.08.1-.17.1-.27,0-.11-.04-.21-.13-.29-.7-.64-1.5-1.18-2.27-1.69,0,0-1.78-1.31-1.96-1.45,0,0-.02-.15-.02-.15-.04-.22-.24-.36-.46-.33Z"/>
        <path class="cls-1" d="m602.97,555.26c-.15.12-.17.34-.04.49.3.36.43.78.57,1.23.15.49.3,1,.69,1.46.12.15.34.17.49.04.15-.12.17-.34.04-.49-.29-.35-.42-.77-.56-1.22-.15-.5-.31-1.01-.7-1.47-.12-.15-.34-.17-.49-.04Z"/>
        <path class="cls-1" d="m165.35,556.67c-.26.09-.39.38-.3.64.41,1.12.51,2.3.61,3.54l.39,2.86c.04.27.28.42.55.38.27-.04.46-.34.42-.61l-.36-2.72c-.11-1.25-.22-2.55-.67-3.8-.09-.26-.38-.39-.64-.3Z"/>
        <path class="cls-1" d="m55.69,559.71c-.07.18.13.4.31.47l.38.16.43.19c.18.08.35-.02.42-.19.08-.18-.04-.4-.21-.47l-.32-.15-.67-.23c-.18-.06-.26.05-.33.23Z"/>
        <path class="cls-1" d="m524.14,563.62v2.53c-.07,1.71-.13,3.48.37,5.07.04.13.18.2.3.16.13-.04.2-.18.16-.3-.48-1.5-.42-3.23-.36-4.9v-2.58c.01-.13-.09-.23-.23-.23-.13,0-.24.12-.24.26Z"/>
        <path class="cls-1" d="m621.8,571.21c-.16.13-.18.37-.05.53,1.18,1.46,2.65,2.71,4.07,3.92,1.32,1.13,2.68,2.29,3.83,3.62.13.16.37.17.53.04.16-.13.17-.37.04-.53-1.19-1.38-2.57-2.56-3.91-3.71-1.46-1.25-2.84-2.42-3.98-3.83-.13-.16-.37-.18-.53-.05Z"/>
        <path class="cls-1" d="m200.46,578.02c-.17.24-.1.59.13.78l-.02-.02.1.29.04.13c.09.3.39.46.69.38.3-.08.47-.4.38-.7l-.03-.11c-.08-.29-.19-.69-.57-.92-.25-.15-.55-.07-.72.17Z"/>
        <path class="cls-1" d="m507.76,597.33l-.19,2.1c-.14,1.2-.29,2.43-.16,3.7.03.25.25.43.5.41.25-.03.43-.25.41-.5-.12-1.17.02-2.3.16-3.5l.2-2.18c.02-.25-.16-.45-.42-.47-.25-.02-.48.19-.5.44Z"/>
        <path class="cls-1" d="m519,609.79c-.4,1.42-.21,2.78-.02,4.1.15,1.08.29,2.1.13,3.13-.04.27.14.52.41.56.27.04.52-.14.56-.41.18-1.18.03-2.32-.13-3.42-.18-1.27-.34-2.48,0-3.71.07-.26-.08-.53-.34-.6-.26-.07-.53.08-.6.34Z"/>
        <path class="cls-1" d="m516.28,607.6v2.02c-.03,1.19-.06,2.41.19,3.6.04.21.25.34.45.29.21-.04.34-.25.29-.45-.23-1.1-.2-2.23-.17-3.43v-2.08c0-.21-.17-.36-.38-.36s-.38.19-.38.4Z"/>
        <path class="cls-1" d="m518.66,625.97c-.59,2.88-.74,5.87-.89,8.75-.11,2.1-.22,4.27-.5,6.36-.04.29.16.55.45.59.29.04.55-.16.59-.45.29-2.13.4-4.33.5-6.45.14-2.85.29-5.79.87-8.59.06-.28-.12-.56-.41-.62-.28-.06-.56.12-.62.41Z"/>
        <path class="cls-1" d="m468.54,645.73c-.33.45-.57.88-.63,1.48-.02.25.16.48.41.5.25.03.48-.16.5-.41.04-.36.15-.62.45-1.03.15-.2.11-.49-.1-.64-.2-.15-.49-.11-.64.1Z"/>
        <path class="cls-1" d="m158.68,666.61c-.22,0-.39.17-.38.39l.03.89-.02,1.57c0,.22.17.45.38.45.22,0,.39-.12.4-.34l.03-1.72-.03-.85c0-.22-.19-.4-.41-.4Z"/>
        <path class="cls-1" d="m316.11,689.53c-.11.46-.14.6-.53.83-.19.11-.25.35-.14.54.11.19.35.25.53.14.65-.38.77-.75.9-1.32.05-.21-.08-.42-.29-.47-.21-.05-.42.08-.47.29Z"/>
        <path class="cls-1" d="m331.21,713.32l-.54.54c-.2.2-.2.52,0,.72.2.2.52.2.72,0l.54-.54c.2-.2.2-.52,0-.72-.2-.2-.52-.2-.72,0Z"/>
        <path class="cls-1" d="m496.88,336.33v1.44c0,.12.09.21.21.21s.21-.1.21-.21v-1.44c0-.12-.09-.21-.21-.21s-.21.1-.21.21Z"/>
        <path class="cls-1" d="m533.87,374.7l-.03.24-.14.75c-.04.21.08.47.29.5.21.04.39-.04.43-.25l.18-.93.02-.23c.02-.21-.13-.41-.34-.43-.21-.02-.4.12-.42.34Z"/>
        <path class="cls-1" d="m563.97,420.14c-.14.09-.19.27-.1.41l1.6,2.58.84,1.33c.09.14.28.19.42.1.14-.09.18-.28.09-.42l-.84-1.33-1.59-2.56c-.09-.14-.28-.19-.42-.1Z"/>
        <path class="cls-1" d="m598.68,413.32c-.23.43-.24.89-.24,1.29,0,.34,0,.63-.13.87-.11.21-.02.46.19.57.21.1.46.02.57-.19.21-.42.21-.86.22-1.25,0-.35,0-.65.14-.9.11-.21.03-.46-.17-.57-.21-.11-.46-.03-.57.18Z"/>
        <path class="cls-1" d="m616.94,418.06c-.5,1.69-1.39,3.32-2.25,4.89l-.23.41c-.12.21-.04.48.18.6.21.12.48.04.6-.18l.22-.41c.88-1.61,1.8-3.28,2.32-5.06.07-.23-.07-.48-.3-.55-.23-.07-.48.07-.55.3Z"/>
        <path class="cls-1" d="m638.23,433.74c-1.38,1.46-3.14,2.01-5,2.59-1.48.46-3,.94-4.32,1.91-.23.17-.28.49-.11.71.17.23.49.28.71.11,1.18-.87,2.56-1.3,4.02-1.76,1.9-.6,3.87-1.22,5.43-2.86.19-.2.19-.53-.02-.72-.21-.19-.53-.19-.72.02Z"/>
        <path class="cls-1" d="m634.54,466.93c-.05.23.06.45.29.5l1.21.25,1.28.29c.23.05.52-.08.58-.31.05-.23-.03-.44-.26-.5l-1.46-.33-1.08-.22c-.23-.05-.5.09-.55.33Z"/>
        <path class="cls-1" d="m607.48,498.68c-.17.11-.21.33-.1.49.93,1.42,1.38,3.08,1.82,4.68.29,1.05.59,2.14,1.02,3.16.08.18.29.27.47.19.18-.08.27-.29.19-.47-.41-.98-.71-2.04-.99-3.07-.45-1.66-.93-3.37-1.91-4.88-.11-.17-.33-.21-.49-.1Z"/>
        <path class="cls-1" d="m589.73,503.82c-.1.2-.34.28-.54.18l.72.36c.2.1.44.02.54-.18.1-.2.02-.44-.18-.54l-.72-.36c.2.1.28.34.18.54Z"/>
        <path class="cls-1" d="m556.82,555.59c-.26.06-.42.33-.35.59l.14.57.35,1.26c.07.26.33.38.59.31.26-.07.4-.37.33-.63l-.32-1.17-.15-.59c-.06-.26-.33-.41-.58-.35Z"/>
        <path class="cls-1" d="m542.24,560.57c-.28.05-.47.32-.43.61l.39,2.26c.45,2.74.92,5.58,1.91,8.24.1.27.4.41.67.31.27-.1.41-.4.31-.67-.95-2.56-1.42-5.35-1.86-8.05l-.39-2.28c-.05-.29-.32-.47-.6-.42Z"/>
        <path class="cls-1" d="m501.91,681.29c-.04.12-.04.22.08.26l.94.35.22.05c.12.03.25-.05.27-.17.03-.12-.05-.24-.17-.27l-.23-.05-.77-.28c-.12-.04-.3,0-.34.11Z"/>
        <path class="cls-1" d="m396.73,617.46v1.08c0,.31.25.55.55.55s.55-.25.55-.55v-1.08c0-.31-.25-.55-.55-.55s-.55.25-.55.55Z"/>
        <path class="cls-1" d="m387.41,613.09c-.3.1-.46.42-.36.72.1.3.42.46.72.36l.72-.24c-.3.1-.62-.06-.72-.36-.1-.3.06-.62.36-.72l-.71.24Z"/>
        <path class="cls-1" d="m375.62,612.93l-.72.67-.58.55c-.26.25-.31.69-.06.95s.62.3.88.06l1.29-1.22c.26-.25.31-.69.07-.95-.24-.26-.61-.31-.87-.06Z"/>
        <path class="cls-1" d="m359.67,592.27c-.17.25-.54.29-.79.13l.83.55c.25.17.51.05.68-.2.17-.25.02-.63-.23-.8l-.6-.41c.25.17.28.48.11.73Z"/>
        <path class="cls-1" d="m365.01,590.35c-.43.77-1.25,1.27-2,1.65-.18.09-.25.31-.16.49.09.18.31.25.49.16.85-.43,1.78-1,2.31-1.94.1-.18.03-.4-.14-.49-.18-.1-.4-.04-.49.14Z"/>
        <path class="cls-1" d="m355.01,567.3l-1.13.87c.24-.18.63-.17.81.07.19.24.18.56-.06.74l.91-.7c.24-.19.36-.58.18-.82-.19-.24-.46-.34-.7-.15Z"/>
        <path class="cls-1" d="m330.32,543.47c-.44.39-.95.59-1.49.81-.59.24-1.2.48-1.75.99-.11.1-.12.27-.01.38.1.11.27.12.38.01.47-.44,1.01-.65,1.58-.88.56-.22,1.13-.46,1.64-.91.11-.1.12-.27.02-.38-.1-.11-.27-.12-.38-.02Z"/>
        <path class="cls-1" d="m316.89,542.21l-.92.59c-1.09.72-2.12,1.4-3.35,1.24-.3-.04-.57.17-.61.46-.04.3.17.57.47.61,1.63.21,2.94-.65,4.09-1.41l.87-.56c.25-.16.34-.5.18-.75-.16-.25-.48-.33-.73-.17Z"/>
        <path class="cls-1" d="m276.97,438.1l-.81.13c.3-.05.62.15.67.45.05.3-.12.58-.43.64l.63-.11c.3-.05.57-.35.52-.65-.05-.3-.28-.52-.58-.47Z"/>
        <path class="cls-1" d="m240.35,421.66c-.27.15-.38.45-.23.72l.47.86.15.25c.15.26.49.35.75.2.26-.15.35-.48.2-.75l-.15-.26-.43-.78c-.15-.27-.49-.39-.76-.24Z"/>
        <path class="cls-1" d="m223.74,462.39c-.16.1-.27.34-.18.5.1.16.25.24.41.15l.99-.59c-.16.1-.4.06-.5-.1-.1-.16-.07-.35.09-.45l-.81.49Z"/>
        <path class="cls-1" d="m165.46,508.48c-.3.07-.49.38-.42.68l.18.8.05.25c.06.3.36.49.66.43.3-.06.49-.36.43-.66l-.05-.25-.19-.86c-.07-.3-.36-.47-.66-.4Z"/>
        <path class="cls-1" d="m146.58,506.08c-.24.05-.39.28-.34.52.2,1,.21,2.02.22,3.11l.13,2.61c.01.24.22.39.46.38.24-.01.43-.25.41-.5l-.12-2.5c-.01-1.08-.02-2.19-.24-3.27-.05-.24-.28-.39-.52-.34Z"/>
        <path class="cls-1" d="m113.74,506.64l-1.7,2.88-2.08,3.6c-.14.23-.04.51.19.64.23.14.55.03.68-.21l2.03-3.52,1.73-2.93c.14-.23.05-.51-.18-.65-.23-.14-.54-.04-.68.19Z"/>
        <path class="cls-1" d="m72.79,395.19c-.21.05-.34.2-.29.41l.2.81c-.05-.21.07-.45.27-.5.21-.05.41.04.46.25l-.16-.63c-.05-.21-.27-.39-.48-.34Z"/>
        <path class="cls-1" d="m56.06,382.55c-.29.92-.83,1.69-1.4,2.5-.47.66-.95,1.35-1.29,2.13-.07.17,0,.36.17.43.17.07.36,0,.43-.17.31-.72.75-1.35,1.22-2.02.57-.82,1.17-1.67,1.49-2.68.05-.17-.04-.35-.21-.41-.17-.05-.35.04-.41.21Z"/>
        <path class="cls-1" d="m22.8,371.19c-.28.31-.59.63-.92.78-.24.11-.35.39-.24.63s.39.35.63.24c.5-.22.9-.64,1.24-1.01.18-.2.16-.5-.03-.68-.2-.18-.5-.16-.68.03Z"/>
        <path class="cls-1" d="m36.7,364.63c-2.5.62-4.74,1.9-6.91,3.14l-3.58,1.92c-.21.11-.31.39-.2.6.11.21.35.3.57.19l3.64-1.95c2.12-1.21,4.31-2.46,6.69-3.05.23-.06.37-.29.32-.53s-.29-.37-.53-.32Z"/>
        <path class="cls-1" d="m29.2,339.16c-.03.23.14.44.37.46,1.31.14,2.59.31,3.87.7.22.07.46-.06.53-.28.07-.22-.06-.46-.28-.53-1.35-.42-2.67-.59-4.03-.73-.23-.03-.44.14-.46.37Z"/>
        <path class="cls-1" d="m31.09,325.44c-.06.18.02.38.21.44l2.09.73c1.78.6,3.46,1.16,5.03,2.11.16.1.38.05.48-.12.1-.16.05-.38-.12-.48-1.64-.99-3.43-1.59-5.17-2.18l-2.07-.72c-.18-.06-.39.03-.45.21Z"/>
        <path class="cls-1" d="m42.42,311.79c-.07.07-.08.18,0,.25l1.64,1.61,1.95,1.97c.07.07.2.08.27.01.07-.07.08-.18.01-.25l-1.98-2-1.62-1.59c-.07-.07-.19-.08-.26,0Z"/>
        <path class="cls-1" d="m51.62,305.96c-.14.09-.19.27-.1.41l1.58,2.55.86,1.35c.09.14.28.19.42.1.14-.09.18-.28.1-.42l-.86-1.36-1.57-2.53c-.09-.14-.28-.19-.42-.1Z"/>
        <path class="cls-1" d="m58.53,301.47c-.22.1-.3.37-.21.58l.45,1.01c.27.65.55,1.32,1.03,1.93.14.19.41.22.6.08.19-.15.22-.41.08-.6-.4-.52-.65-1.11-.91-1.74l-.48-1.07c-.1-.22-.34-.29-.56-.2Z"/>
        <path class="cls-1" d="m86.35,299.16c-.23.43-.23.88-.24,1.28,0,.34,0,.63-.13.88-.1.2-.02.45.18.55.2.1.45.02.55-.18.21-.42.21-.86.21-1.24,0-.35,0-.65.14-.9.11-.2.03-.45-.17-.55-.2-.11-.45-.03-.55.17Z"/>
        <path class="cls-1" d="m104.59,303.89c-.5,1.69-1.39,3.31-2.25,4.88l-.23.41c-.12.22-.04.49.18.6.22.12.49.04.61-.18l.23-.41c.88-1.61,1.8-3.28,2.32-5.06.07-.24-.07-.48-.3-.55-.24-.07-.48.07-.55.3Z"/>
        <path class="cls-1" d="m125.88,319.56c-1.38,1.46-3.14,2.01-5,2.59-1.48.46-3,.94-4.32,1.91-.23.17-.28.49-.11.71.17.23.49.28.71.11,1.18-.87,2.56-1.3,4.02-1.76,1.9-.6,3.87-1.22,5.43-2.86.19-.2.19-.53-.02-.72-.2-.19-.53-.19-.72.02Z"/>
        <path class="cls-1" d="m238.47,372.78l-.38.19c-.18.09-.28.32-.19.5.09.18.28.27.46.18l.46-.23c.48-.26.71-.35.99-.16.17.11.39.06.51-.1.11-.17.06-.4-.1-.51-.68-.45-1.3-.11-1.75.13Z"/>
        <path class="cls-1" d="m401.47,398.94c-.12.26-.02.57.24.69l1.26.59,1.94.95c.26.13.61.04.74-.22.13-.26.05-.56-.21-.69l-2.04-1.01-1.22-.57c-.26-.12-.59-.01-.71.25Z"/>
        <path class="cls-1" d="m403.42,423.07c-.14.11-.17.32-.06.47.26.34.63.49.95.62l.63.36c.16.09.43.09.52-.06s.11-.3-.04-.4l-.86-.51c-.28-.12-.52-.22-.68-.42-.11-.15-.32-.17-.47-.06Z"/>
        <path class="cls-1" d="m556.47,427.66c-.12.12-.12.32,0,.45l1.79,1.8c.12.12.33.12.45,0,.12-.12.12-.32,0-.45l-1.79-1.8c-.12-.12-.33-.12-.45,0Z"/>
        <path class="cls-1" d="m110.37,485.41c-.05.12,0,.25.11.31l.14.06.55.28c.11.06.27.02.33-.09.06-.11.03-.24-.08-.3l-.61-.31-.14-.06c-.12-.05-.25,0-.31.11Z"/>
        <path class="cls-1" d="m143.97,283.36l-2.57,2.39-3.54,3.36c-.11.1-.1.26,0,.37.1.11.28.1.38,0l3.51-3.33,2.58-2.41c.11-.1.11-.26,0-.37-.1-.11-.27-.11-.38,0Z"/>
        <path class="cls-1" d="m142.14,308.61l-1.07.55c-1.25.64-2.55,1.3-3.6,2.1-.16.12-.19.36-.07.52.12.16.36.19.52.07,1-.76,2.27-1.41,3.49-2.03l1.07-.55c.18-.09.25-.32.16-.5-.09-.18-.32-.25-.5-.16Z"/>
        <path class="cls-1" d="m282.42,337.23c-1.03,1.32-2.39,1.92-3.93,1.72-.24-.03-.46.14-.49.38-.03.24.14.46.38.49,1.77.23,3.33-.42,4.54-1.84.2.05.74.2.74.2-.23-.06-.32-.28-.26-.52.06-.23.35-.36.58-.3l-1.49-.36-.06.24Z"/>
        <path class="cls-1" d="m39.87,374.54c-1.84,1.5-3.87,2.83-5.83,4.11l-2.88,1.93c-.12.08-.15.24-.07.37.08.12.25.15.37.07l2.87-1.92c1.97-1.3,4.01-2.63,5.87-4.15.11-.09.13-.26.04-.37-.09-.11-.26-.13-.37-.04Z"/>
        <path class="cls-1" d="m656.32,397.54l-2.57,2.39-3.54,3.36c-.11.1-.1.26,0,.37.1.11.28.1.38,0l3.51-3.33,2.59-2.41c.11-.1.11-.26,0-.37-.1-.11-.27-.11-.38,0Z"/>
        <path class="cls-1" d="m654.48,422.78l-1.07.55c-1.25.64-2.54,1.29-3.6,2.1-.16.12-.2.36-.07.52.12.16.36.19.52.07,1-.76,2.26-1.41,3.48-2.03l1.08-.56c.18-.09.25-.32.16-.5-.09-.18-.32-.25-.5-.16Z"/>
        <path class="cls-1" d="m67.95,478.32l-1.6,1.06c-1.6,1.06-3.26,2.16-4.96,3.12-.18.1-.24.33-.14.51.1.18.33.24.51.14,1.72-.97,3.39-2.08,5-3.15l1.6-1.05c.17-.11.22-.35.11-.52-.11-.17-.34-.22-.52-.11Z"/>
        <path class="cls-1" d="m604.21,505.79c-.03.93.27,1.75.55,2.55.25.71.5,1.39.52,2.13,0,.13.12.23.25.23.13,0,.23-.12.23-.25-.03-.82-.3-1.56-.55-2.27-.28-.79-.55-1.54-.52-2.38,0-.13-.1-.24-.23-.25-.13,0-.24.1-.25.23Z"/>
        <path class="cls-1" d="m616.19,508.74c-.16.05-.24.23-.19.39l.2.59c.4,1.19.82,2.41,1.64,3.44.1.13.3.15.43.05.13-.1.15-.3.05-.43-.76-.95-1.16-2.12-1.54-3.26l-.21-.6c-.05-.16-.23-.24-.38-.19Z"/>
        <path class="cls-1" d="m179.83,526.09c-.2.03-.33.21-.3.41.37,2.41.87,5.23,1.81,7.96.06.19.27.29.46.22.19-.06.29-.27.22-.46-.92-2.67-1.42-5.46-1.78-7.83-.03-.2-.21-.33-.41-.3Z"/>
        <path class="cls-1" d="m177.13,533.11c-.18.03-.3.23-.26.41l.72,3.93c.31,2.05.62,4.17,1.45,6.17.07.17.26.25.43.18.17-.07.25-.26.18-.43-.8-1.93-1.09-3.91-1.41-6.01l-.73-3.99c-.03-.18-.2-.28-.38-.25Z"/>
        <path class="cls-1" d="m615.28,565.72c-.12.06-.16.21-.1.33.34.62.88.98,1.4,1.33.55.37,1.07.71,1.28,1.33.04.13.18.19.3.15s.19-.18.15-.3c-.26-.77-.87-1.18-1.46-1.58-.5-.33-.97-.64-1.25-1.16-.06-.12-.21-.16-.33-.1Z"/>
        <path class="cls-1" d="m324.96,681.93l-.23.25c-.27.3-.41.44-.67.41-.12-.01-.23.07-.24.19-.01.12.07.23.19.24.48.05.75-.24,1.03-.55l.22-.23c.08-.09.08-.23,0-.31-.09-.08-.22-.08-.3,0Z"/>
      </g>
    </g>
  </g>
</svg>