<?xml version="1.0" encoding="UTF-8"?>
<svg id="Calque_2" data-name="Calque 2" xmlns="http://www.w3.org/2000/svg" viewBox="0 0 1932.78 2114.34">
  <defs>
    <style>
      .cls-1 {
        fill: #fff;
      }

      .cls-2 {
        fill: #95202b;
      }

      .cls-3 {
        fill: #f6f6f6;
      }
    </style>
  </defs>
  <g id="Layer_1" data-name="Layer 1">
    <g>
      <g>
        <path class="cls-2" d="m544.58,1234.89c216.07,90.87,425.14,181.77,515.98,455.13,217.69-341.48,432.8-640.94,734.09-864.82,15.12-11.23,25.42-29.34,36.84-45.06,138.5-190.55,134.64-420.83-9.68-592.09-203.07-240.96-583.86-252.85-811.66-21.26-43.9,44.63-71.83,104.98-119.25,176.31-52.7-75.23-74.47-124.79-111.8-155.33-58.21-47.62-122.5-104.47-192.08-118.55C329.64,17.12-69.31,238.72,10.33,639.53c60.91,306.57,265.98,482.54,534.25,595.36Z"/>
        <g>
          <path class="cls-1" d="m405.78,565.74l-97.62,45.02c-3.12,1.41-5.33,2.33-6.63,2.75-3.23,1.06-5.97.92-8.22-.45-2.74-1.78-4.62-4.22-5.64-7.32-.96-2.93-.99-5.88-.09-8.86.9-2.97,3.13-5.33,6.68-7.07l106.39-45.32c-.58-2.86-1.2-5.82-1.84-8.86-4.69-20.25-8.62-40.66-11.8-61.22-1.12-6.13-.65-11.64,1.42-16.53,2.07-4.88,5.93-8.26,11.6-10.12,4.69-1.54,9.31-.86,13.85,2.04,2.63,2,4.54,4.53,5.72,7.58.5.98.92,1.99,1.26,3.03.68,2.07,1.12,4.22,1.31,6.45,3.39,20.11,7.32,40.23,11.79,60.37.28.87.48,1.75.61,2.67l113.42-48.49c5.81-2.49,8.97-3.81,9.45-3.97,1.94-.64,3.76-.56,5.45.22,2.07.85,3.64,2.63,4.71,5.33.63,1.9.62,3.81,0,5.73-.73,2.15-2.09,3.75-4.08,4.78l-124.11,56.88c4.11,17.96,8.44,35.75,12.98,53.38,15.69,60.23,33.1,120,52.25,179.28,2.62,8.51,5.32,16.99,8.1,25.44,11.35,34.51,24.02,68.68,38.02,102.51,8.88,21.55,19.35,42.2,31.4,61.95,1.94,3.18,4.93,7.51,8.97,12.97,4.03,5.46,8.54,10.29,13.51,14.49,4.97,4.2,9.55,5.61,13.76,4.22l.97-.32c4.28-7.15,7.45-15.36,9.51-24.64,2.06-9.28,3.39-17.08,4-23.4,2.05-18.84,2.99-37.79,2.82-56.85-.27-21.52-1.23-43-2.91-64.44-3.92-48.99-9.23-97.82-15.91-146.49-.36-2.18-.63-4.38-.83-6.61-.25-2.4.23-4.47,1.45-6.21,1.01-1.29,2.16-2.14,3.46-2.57.64-.21,1.32-.34,2.03-.38,2.27-.17,4.26.42,5.96,1.77,1.32,1.29,2.24,2.71,2.75,4.26l.51,1.55c.14,2.06.36,4.09.66,6.09,6.69,49.24,12.08,98.61,16.18,148.12,1.62,21.84,2.52,43.63,2.68,65.37.4,19.75-.47,39.45-2.62,59.08-.96,8.53-2.62,17.78-5,27.74-2.37,9.96-6.03,19.14-10.97,27.56-4.95,8.41-11.7,14.03-20.28,16.85-7.44,2.45-14.7,1.92-21.77-1.59-7.07-3.51-13.52-8.27-19.36-14.28-5.84-6.02-10.8-11.98-14.9-17.9-14.13-20.59-26.1-42.28-35.92-65.05-8.19-18.34-15.78-36.92-22.78-55.75-7-18.82-13.62-37.73-19.86-56.71l-8.34-25.36c-19.21-60.03-36.66-120.45-52.36-181.25-4.08-15.67-8.03-31.49-11.84-47.44Z"/>
          <path class="cls-1" d="m653.35,677.34c1.8,4.38,3.71,8.82,5.73,13.32,10.95,26.23,24.04,51.28,39.24,75.14,1.17,1.91,3.2,4.83,6.1,8.75,2.9,3.92,6.14,7.64,9.72,11.14,3.58,3.51,6.66,5.41,9.27,5.7,1.96-3.32,2.95-7.09,3-11.31.18-9.81-.26-19.61-1.33-29.39l-1.76-20.07c-.74-6.07-1.29-12.1-1.65-18.1-2.06-18.25-2.71-36.3-1.94-54.14.33-7.18,1.64-14.35,3.95-21.52,2.31-7.16,6.3-12.73,11.99-16.71,1.5-.88,3.06-1.58,4.68-2.11,7.77-2.55,14.39-1.62,19.88,2.78,5.49,4.41,10.01,10.28,13.59,17.61,3.58,7.33,6.39,14.1,8.43,20.32,4.99,15.18,10.23,30.29,15.71,45.31l.17.52c2.37,6.68,6.28,16.1,11.72,28.27,5.44,12.17,11.84,22.92,19.22,32.26,7.37,9.33,15.19,13.21,23.46,11.64,5.21-6.49,9.32-15.01,12.3-25.56,2.99-10.54,4.97-18.94,5.97-25.19,5.99-37.92,6.89-76.36,2.68-115.32-.39-4.46-.84-8.8-1.33-13.04-.25-2.4.31-4.5,1.7-6.29,1.01-1.29,2.24-2.17,3.7-2.65l1.46-.48c2.27-.17,4.29.5,6.05,2.03,1.26,1.12,2.15,2.45,2.66,4l.51,1.55c.61,4.58,1.14,9.19,1.59,13.82,4.34,40.45,3.36,80.54-2.93,120.28-1.2,7.28-3.13,15.71-5.8,25.28-2.68,9.58-6.37,18.4-11.07,26.44-4.71,8.05-10.78,13.3-18.22,15.74-11.33,3.73-21.71,3.08-31.16-1.94-9.45-5.02-18.06-12.65-25.83-22.91-7.77-10.25-14.67-21.7-20.71-34.34-6.04-12.64-11.25-25.07-15.63-37.31-4.38-12.23-7.93-22.49-10.66-30.77-.68-2.07-1.97-5.71-3.86-10.92-1.89-5.21-3.82-9.69-5.77-13.45-2.13,9.88-2.95,21.43-2.45,34.65.49,13.22,1.11,23.15,1.86,29.79,0,.57.07,1.03.18,1.37l1.74,18.36c.69,6.47,1.33,13.04,1.92,19.73,1.02,10.75,1.48,21.41,1.37,31.96-.27,7.36-2.1,13.93-5.48,19.73-3.38,5.8-8.47,9.81-15.27,12.05-6.8,2.24-13.44,2.08-19.92-.47-6.49-2.55-12.29-6.43-17.41-11.63-11.78-12.37-21.82-26.28-30.13-41.72-10.85-18.8-20.7-38.12-29.56-57.97-12.26-26.37-22.84-53.1-31.75-80.19-4.43-13.46-9.15-29.45-14.16-47.97-5.02-18.52-9.41-38.15-13.19-58.9-3.78-20.74-6.11-41.49-7.02-62.22-.9-20.73.39-40.23,3.89-58.5,3.5-18.26,10-34.07,19.5-47.43,9.5-13.35,22.99-22.91,40.47-28.65,18.6-6.12,34.6-6.55,47.99-1.3,13.38,5.26,24.66,14.45,33.82,27.59,9.16,13.15,16.64,28.51,22.43,46.11,8.85,26.92,13.26,54.34,13.21,82.27-.05,27.93-4.02,55.24-11.92,81.93-14.35,48.51-39.32,89.51-74.92,123.02Zm-7.16-16.86c31.41-30.98,53.56-68.29,66.47-111.92,7.44-24.82,11.2-50.29,11.31-76.43.1-26.13-3.99-51.79-12.28-76.99-4.43-13.46-9.81-25.45-16.14-35.99-6.34-10.54-14.16-18.38-23.48-23.54-9.32-5.15-20.57-6.52-33.76-4.1-.43.33-.97.61-1.61.82-6.47,2.13-12.39,5.41-17.74,9.85-11.01,10.7-18.23,24.45-21.66,41.26-3.44,16.81-4.85,32.96-4.24,48.43.34,22.83,2.63,46.03,6.88,69.58,4.25,23.55,9.5,46.45,15.73,68.68,3.67,13.33,7.68,26.63,12.05,39.92,5.56,16.91,11.72,33.72,18.47,50.43Z"/>
          <path class="cls-1" d="m975.59,549.83l-.17-.52c-.5-4.8.49-9,2.98-12.6,2.49-3.59,5.76-6.05,9.81-7.38,4.53-1.49,8.92-1.36,13.18.4,4.25,1.76,7.2,5.14,8.85,10.14,1.59,4.83,3.1,9.69,4.52,14.57,1.43,4.89,2.94,9.74,4.52,14.57,2.84,8.63,7.13,19.79,12.89,33.47,5.76,13.69,12.89,25.83,21.39,36.42,8.5,10.59,18.26,16.27,29.27,17.04,5.73-4.37,10.58-9.93,14.55-16.69,3.96-6.75,7.09-13.47,9.38-20.15,5.24-15.68,8.22-32.25,8.94-49.69.72-17.44-.05-34.49-2.3-51.16-.25-2.4.31-4.5,1.7-6.29,1.17-1.34,2.49-2.25,3.94-2.73l1.46-.48c2.27-.17,4.29.5,6.05,2.03,1.21.94,2.04,2.1,2.49,3.48.23.69.37,1.41.44,2.15,2.54,18.09,3.37,36.56,2.49,55.4-.89,18.84-4.27,36.78-10.14,53.81-3.58,10.93-8.86,21.32-15.84,31.17-6.98,9.85-15.81,16.53-26.49,20.04-9.87,3.25-18.92,3.55-27.14.9-8.22-2.65-15.73-7.2-22.52-13.67-6.79-6.46-12.88-14.07-18.26-22.82-5.39-8.74-10.07-17.81-14.06-27.21,0,10.9-.74,21.47-2.21,31.7-.98,7.4-2.68,14.89-5.11,22.48-2.44,7.59-5.85,14.4-10.23,20.43-4.38,6.03-10.21,10.24-17.49,12.64-5.34,1.76-10.8,2.6-16.38,2.52-11.94-.85-22.32-5.42-31.14-13.71-8.82-8.28-16.18-18.24-22.07-29.88-5.89-11.64-10.57-22.72-14.03-33.24-3.8-11.56-6.42-24.03-7.87-37.42-1.44-13.39-.8-26.27,1.95-38.64,2.74-12.37,8.41-23.22,17-32.55,7.21-7.53,15.58-12.87,25.13-16.01,23.62-7.77,47.84-4.45,72.66,9.94,1.86,1.3,3.11,3.04,3.74,5.22.63,2.19.39,4.32-.72,6.4-1,1.86-2.39,3.08-4.17,3.67l-.73.24c-2,.47-4.06.19-6.19-.83-15.32-9.49-31.55-13.04-48.69-10.66-.43.33-.97.61-1.61.82-3.24,1.07-6.3,2.65-9.2,4.75-4.87,4.28-8.48,9.53-10.82,15.75-2.35,6.22-3.8,12.58-4.35,19.07-.72,9.8-.26,19.78,1.38,29.95,1.64,10.17,3.97,19.83,6.97,28.97,2.84,8.63,6.27,17.44,10.31,26.44,4.04,9,8.87,17.16,14.51,24.48,2.6,3.55,5.85,6.87,9.74,9.99,3.89,3.12,8.01,4.73,12.35,4.83,1.41-.08,2.68-.31,3.81-.68,4.75-4.62,8.3-10.62,10.63-17.98,2.33-7.36,3.86-14.03,4.58-20.01,1.95-14.79,2.43-30.24,1.43-46.36-1-16.11-2.77-31.59-5.32-46.43l.24-.08Z"/>
          <path class="cls-1" d="m1356.62,632.16c3.54-6.14,6.35-13.42,8.42-21.84,2.07-8.42,3.45-14.85,4.14-19.29,4.86-33.72,6.42-67.69,4.67-101.92-.81-18.28-2.36-36.6-4.63-54.98-.25-2.4.23-4.47,1.45-6.21,1.17-1.34,2.49-2.25,3.94-2.73l1.46-.48c2.27-.17,4.29.5,6.05,2.03,1.26,1.12,2.15,2.45,2.66,4l.51,1.55c2.45,18.89,4,37.79,4.66,56.69.26,6.8.44,16.35.55,28.64.1,12.3-.28,25.72-1.15,40.25-.87,14.53-2.54,28.66-5.02,42.38-2.48,13.72-6.03,25.55-10.65,35.48-4.63,9.93-10.74,16.15-18.34,18.65-2.1.69-4.21,1.1-6.32,1.22-10.09-.12-19.22-4.19-27.41-12.21-8.2-8.01-14.93-16.22-20.2-24.62-15.65-24.68-29.1-50.56-40.33-77.65-16.01-38.33-30.46-77.07-43.34-116.24l-.51-1.55c-.24-1.26-.58-2.58-1.03-3.96-.45-1.38-1.05-2.9-1.77-4.58-1.13-3.45-2.32-6.79-3.56-10.01-.5,6.67-.62,13.11-.36,19.34,1.98,27.84,5.54,55.54,10.66,83.11,1.59,8.65,3.07,17.25,4.45,25.78l4.97,28.19c2.77,14.96,4.91,29.93,6.44,44.92.63,5.72.59,11.61-.1,17.67-.7,6.06-2.42,11.6-5.16,16.61-2.75,5.02-7.03,8.48-12.85,10.39-6.47,2.13-12.89,1.85-19.24-.84-6.36-2.69-12.03-6.46-17.04-11.32-10.68-11.21-19.86-23.58-27.54-37.12-10.12-17.13-19.37-34.64-27.77-52.53-4.59-9.58-9.01-19.22-13.27-28.9l-.26-.78c-1.59-4.83-1.19-9.07,1.19-12.73,2.49-3.88,5.97-6.65,10.45-8.31,4.69-1.54,9.14-1.52,13.33.06,4.2,1.59,7.44,4.77,9.73,9.56,4.32,9.86,8.8,19.67,13.44,29.42,10.53,23.31,22.82,45.65,36.84,67.04,4.6,6.9,9.98,13.16,16.13,18.79.27.3.93.8,1.97,1.5,1.04.71,2,1.31,2.87,1.78.87-3.34,1.35-6.8,1.43-10.37.08-3.56,0-6.55-.25-8.95-1.57-14.59-3.65-29.1-6.25-43.55l-4.97-28.19c-1.54-8.48-3.02-17.08-4.45-25.78-5.35-28.26-8.97-56.71-10.86-85.34-.35-5.43-.38-11.78-.08-19.05.3-7.27,1.62-14.01,3.97-20.23,2.35-6.22,6.43-10.29,12.26-12.21,7.77-2.55,14.39-1.62,19.88,2.78,5.49,4.41,10.01,10.28,13.59,17.61,3.58,7.33,6.39,14.1,8.43,20.32,10.44,31.75,21.48,63.4,33.11,94.94,6.26,16.87,13.02,33.58,20.25,50.13,6.34,14.36,13.35,28.31,21.02,41.84,1.55,2.55,4.01,6.33,7.36,11.35,3.35,5.02,7.02,9.64,11.02,13.87,3.99,4.23,7.8,6.42,11.44,6.56Z"/>
          <path class="cls-1" d="m1618.86,559.38c3.42-7.05,5.81-14.77,7.18-23.15,1.37-8.38,2.14-15.57,2.32-21.56,1.47-28.78,1.48-57.66.02-86.62-.92-25.7-3.01-51.4-6.26-77.1-.25-2.4.23-4.47,1.45-6.21,1.17-1.34,2.49-2.25,3.94-2.73l1.46-.48c2.27-.17,4.29.5,6.05,2.03,1.26,1.12,2.15,2.45,2.66,4l.51,1.55c3.26,26.27,5.47,52.6,6.62,78.99,1.47,29.54,1.39,59.01-.24,88.41-.41,8.55-1.58,17.82-3.49,27.82-1.91,10-5.18,19.15-9.8,27.46-4.62,8.31-11.3,13.9-20.03,16.77-9.39,3.09-19.17,2.77-29.36-.95-10.19-3.72-19.85-8.96-28.97-15.71-9.12-6.75-17.1-13.4-23.91-19.96-11.88-11.58-22.8-24.05-32.75-37.41-.55-.58-1.02-1.19-1.41-1.83.46,5.21.64,10.4.56,15.59.17,8.17-1.15,15.87-3.97,23.1-2.82,7.24-8.03,12.11-15.64,14.61-5.67,1.86-11.34,1.91-17.03.15-5.69-1.76-11.04-4.54-16.06-8.34-5.02-3.8-9.34-7.97-12.99-12.51-9.83-12.44-18.62-25.81-26.36-40.09-9.24-16.65-17.82-33.72-25.72-51.2-12.1-26.42-22.6-53.18-31.51-80.27-3.97-12.08-8.56-27.11-13.76-45.09-5.2-17.98-9.94-37.31-14.23-57.99-4.29-20.67-7.35-41.42-9.17-62.23-1.83-20.81-1.47-40.43,1.08-58.86,2.55-18.43,7.98-34.32,16.33-47.67,8.34-13.35,20.68-22.72,37.02-28.09,16.66-5.48,33.44-3.26,50.34,6.67,11.76,7.42,21.39,17.34,28.9,29.79,7.5,12.45,13.44,25.31,17.81,38.6,8.85,26.92,13.26,54.34,13.21,82.27-.05,27.93-4.02,55.24-11.92,81.93-12.19,40.91-32.24,76.96-60.18,108.13,12.42,33.39,26.77,63.95,43.06,91.67,1.83,2.84,4.54,6.73,8.14,11.66,3.6,4.94,7.58,9.41,11.95,13.42,4.37,4.01,8.33,5.43,11.89,4.26l.73-.24c1.39-5.05,2.08-9.76,2.07-14.16-.25-9.48-.85-18.94-1.8-28.38l-1.54-16.13-1.74-18.36c-2.06-18.25-2.63-36.32-1.7-54.22.33-7.18,1.6-14.34,3.83-21.48,2.23-7.14,6.18-12.69,11.87-16.67,1.5-.88,3.06-1.58,4.68-2.11,8.74-2.87,16.33-1.74,22.77,3.41,6.44,5.15,11.06,11.95,13.84,20.4,5.16,15.7,5.64,31.04,1.41,46-4.22,14.97-11.78,27.97-22.67,39.01,1.94,3.19,4.24,6.49,6.89,9.92,2.65,3.43,4.89,6.28,6.71,8.55,10.2,11.94,21.23,22.84,33.08,32.71,7.74,6.63,17.77,13.56,30.1,20.79,12.33,7.22,23.57,9.93,33.74,8.12Zm-224-156.06c23.7-28.25,40.78-60.26,51.26-96.02,7.44-24.82,11.2-50.29,11.31-76.43.1-26.13-3.99-51.79-12.28-76.99-3.63-11.04-8.63-22.01-15-32.93-6.37-10.91-14.45-19.53-24.24-25.87-8.97-5.46-18.43-7.8-28.4-7.01l-.24.08c-12.78,4.2-22.02,12.65-27.71,25.32-5.69,12.68-8.87,27.82-9.53,45.44-.66,17.62.48,36.36,3.43,56.23,2.95,19.87,6.76,39.36,11.43,58.48,4.67,19.11,9.4,36.49,14.19,52.12,4.78,15.64,8.62,27.85,11.52,36.65,4.48,13.63,9.24,27.27,14.26,40.91Zm99.07-12.8c-2.85,4.95-4.59,12.22-5.21,21.79-.62,9.57-.61,19.13.02,28.68.63,9.55,1.11,16.75,1.46,21.6.11.35.17.8.18,1.37,5.62-7.97,9.29-17.01,10.98-27.13,2.25-12.79,1.5-24.87-2.24-36.26-.34-1.04-1-2.63-1.98-4.8-.98-2.16-2.05-3.91-3.21-5.25Z"/>
          <path class="cls-1" d="m881.26,959.74c1.03,23.3-1.13,45.53-6.49,66.68-2.06,7.55-4.92,15.16-8.55,22.81-3.64,7.66-8.16,14.5-13.57,20.52-5.41,6.02-11.87,10.27-19.4,12.74-4.1,1.35-8.39,2.15-12.85,2.41-11.97-.1-22.33-3.81-31.09-11.14-8.76-7.32-16.14-16.51-22.14-27.57-6.01-11.05-10.68-21.68-14.04-31.9-7.14-21.69-13.45-43.76-18.93-66.2-1.34-5.82-.91-11.26,1.3-16.34,2.21-5.07,6.06-8.51,11.53-10.31,5.47-1.8,10.41-1.2,14.8,1.8,4.16,2.87,7.06,6.77,8.68,11.69l.54,1.64c5.25,22.32,11.42,44.23,18.5,65.74,1.74,5.29,4.82,13.07,9.24,23.33,4.42,10.27,9.79,19.11,16.11,26.52,6.32,7.42,13.45,10.23,21.38,8.42,5.6-4.87,10.2-11.03,13.81-18.48,3.61-7.45,6.31-14.5,8.1-21.15,4.27-16.96,6.27-34.79,5.99-53.49-.28-18.7-1.95-36.73-5.01-54.11-.59-1.22-1.07-2.38-1.43-3.47-1.8-5.47-2.05-10.54-.74-15.21,1.52-5.75,5.7-9.75,12.53-12,5.47-1.8,10.31-1.07,14.51,2.2,4.2,3.27,7.51,7.43,9.93,12.49,16.53,33.56,32.06,67.54,46.61,101.95,29.17-36.87,61.58-66.21,97.22-88.04l1.54-.51c1.71-.56,3.4-.61,5.07-.15,2.3.66,4.01,2.12,5.13,4.37.41.68.74,1.38.98,2.1.48,1.46.53,3.06.16,4.8-.6,2.22-2,3.99-4.22,5.33-17.6,10.44-34.81,23.62-51.64,39.56-16.83,15.94-32.27,33.09-46.31,51.45,10.1,24.96,19.38,50.29,27.84,76l2.34,7.11c8.63,26.25,15.38,52.82,20.25,79.71,3.79,20.16,5.19,41.42,4.21,63.77-.99,22.34-7.83,41.56-20.53,57.67-8.34,9.21-18.41,15.75-30.2,19.63-9.23,3.04-18.9,3.89-28.99,2.57-15.27-2.66-28.01-9.68-38.19-21.08-10.19-11.4-17.71-24.48-22.57-39.24-8.1-24.61-10.83-49.62-8.2-75.03,2.63-25.41,8.59-50.05,17.89-73.92,9.3-23.86,20.26-45.96,32.9-66.28,2.85-4.57,5.79-9.18,8.81-13.81-10.29-25.51-21.22-50.7-32.82-75.57Zm55.48,347.52c.28-.3.59-.5.94-.61,6.32-2.08,12-5.57,17.02-10.45,9.63-11.05,14.65-26.59,15.07-46.63.42-20.04-1.99-42.03-7.2-65.97-4.92-22.43-10.82-44.12-17.71-65.09l-1.53-4.65c-7.67-22.73-14.71-42.13-21.13-58.2l-2.18,3.75c-11.69,18.6-21.94,38.99-30.75,61.18-8.81,22.19-14.58,45.1-17.32,68.73-2.74,23.63-.37,46.84,7.13,69.63,3.72,11.3,9.37,21.56,16.95,30.79,7.58,9.22,17.31,14.91,29.2,17.06,3.96.52,7.79.67,11.52.45Z"/>
          <path class="cls-1" d="m1191.68,912.49l3.08-1.01c8.21-2.7,16.11-6.01,23.73-9.93,31.47-17.22,56.73-41.49,75.8-72.81,1.01-1.54,2.36-2.6,4.08-3.16l1.28-.42c2.11-.49,4.24-.08,6.37,1.24,1.79,1.43,3,3.06,3.59,4.88l.27.82c.61,2.43.24,4.77-1.1,7.03-20.68,33.88-48.07,60.06-82.16,78.54-8.41,4.39-17.06,8.04-25.95,10.96l-5.38,1.77c4.21,21.45,5.12,42.36,2.73,62.74-.98,7.4-2.78,14.75-5.39,22.08-2.61,7.33-6.24,13.87-10.88,19.64-4.64,5.77-10.55,9.83-17.73,12.2-8.55,2.81-17.33,3.48-26.34,2-15.97-3.63-30.29-12.61-42.96-26.93-12.67-14.32-23.45-30.67-32.34-49.06-8.89-18.39-15.76-34.97-20.62-49.73-6.12-18.6-10.64-37.81-13.57-57.66-.53-5.08.39-9.47,2.77-13.18,2.38-3.71,5.79-6.3,10.24-7.76,3.42-1.12,7.05-1.31,10.9-.56-4.21-13.36-4.7-26.23-1.47-38.61,3.22-12.37,11.24-21.27,24.04-26.7l2.73-1.2,3.17-.74c10.51-2.04,20.56-.85,30.16,3.57,9.6,4.42,18.27,10.61,26,18.57,10.87,11.17,20.1,24.25,27.68,39.23,7.58,14.98,13.8,29.86,18.66,44.62,3.06,9.3,5.92,19.17,8.6,29.6Zm-16.74,99.45c.04-1.02.17-2.07.38-3.16,5.04-23.27,4.67-48-1.1-74.19-15.83,1.98-31.57.49-47.22-4.47-24.3-8.77-43.02-23.93-56.16-45.47,2.02,9.03,4.47,17.92,7.35,26.67,4.02,12.22,8.72,24.21,14.1,35.97,4.15,9.75,9.88,20.54,17.19,32.38,7.3,11.84,15.73,22.2,25.28,31.08,9.55,8.88,20.03,13.67,31.44,14.36,3.72-3.65,6.64-8.04,8.74-13.18Zm-107.85-200.9c-1.36,4.49-1.83,9.29-1.38,14.39.45,5.11,1.42,9.94,2.92,14.49,5.4,16.41,13.16,31.23,23.29,44.46,10.13,13.24,23.34,22.73,39.63,28.48,12.72,4.1,25.56,5.43,38.54,3.99-2.18-7.77-4.37-15.02-6.59-21.77-4.32-13.13-9.93-26.58-16.83-40.37-6.91-13.79-15.24-25.74-25.01-35.87-5.41-5.49-11.6-10.07-18.59-13.74-6.98-3.66-14.21-4.77-21.69-3.32l-1.88.32-1.71.86c-4.28,1.41-7.7,3.95-10.28,7.62-.11.24-.25.39-.42.44Z"/>
          <path class="cls-1" d="m1442.76,855.05c.94,17.27.57,34.01-1.1,50.21-1.68,16.21-5.42,30.32-11.23,42.33-5.81,12.01-14.52,19.93-26.15,23.75-10.77,3.54-21.02,2.47-30.76-3.22-9.73-5.69-18.89-14.09-27.47-25.21-8.58-11.12-16.31-23.37-23.18-36.77-6.87-13.39-12.79-26.35-17.76-38.86-4.97-12.51-8.77-22.77-11.41-30.79-7.56-22.97-14.14-46.16-19.76-69.57-1.23-5.45-.7-10.17,1.59-14.16,2.29-3.98,5.83-6.76,10.61-8.34,4.96-1.63,9.97-1.36,15.04.81,4.67,2.1,7.9,5.89,9.7,11.35l.27.82c5.37,22.68,11.69,45.05,18.95,67.1,1.56,4.74,4.16,12.22,7.81,22.43,3.64,10.22,8.06,21.34,13.25,33.37,5.19,12.03,10.74,23.44,16.66,34.22,5.91,10.78,11.95,19.36,18.12,25.71,6.16,6.36,12.07,8.61,17.71,6.75,6.32-2.08,11.02-8.67,14.09-19.79,3.07-11.11,4.93-24.45,5.59-40.02.66-15.57.55-31.44-.32-47.62-.87-16.18-2.16-30.75-3.87-43.73-1.71-12.97-3.37-21.92-4.99-26.84-1.67-7.94.1-14.07,5.31-18.41,2.43-1.81,4.94-3.14,7.5-3.98,3.25-1.07,6.65-1.38,10.21-.93,6.71.82,11.21,4.7,13.49,11.63,3.93,14.27,8.21,28.41,12.83,42.45l.99,3.01c2.64,8.02,6.6,19.5,11.89,34.42,5.29,14.93,11.54,30.2,18.76,45.8,7.22,15.61,14.91,28.48,23.08,38.62,8.17,10.15,16.28,14.5,24.33,13.06,5.34-6.8,9.6-15.73,12.79-26.78,3.19-11.05,5.3-19.87,6.35-26.48,6.33-40.06,7.31-80.59,2.92-121.57-.41-4.71-.91-9.4-1.5-14.05-.27-2.54.24-4.73,1.53-6.57,1.24-1.42,2.63-2.38,4.17-2.89l1.54-.51c2.4-.18,4.53.53,6.39,2.14,1.33,1.18,2.27,2.59,2.81,4.23l.54,1.64c.7,5.02,1.29,9.98,1.77,14.87,4.52,42.56,3.46,84.83-3.19,126.81-1.26,7.69-3.31,16.59-6.13,26.71-2.83,10.13-6.77,19.45-11.83,27.98-5.06,8.53-11.52,14.09-19.38,16.68-10.77,3.54-21.03,2.72-30.79-2.45-9.76-5.17-18.8-13.11-27.15-23.8-8.35-10.69-15.94-22.68-22.78-35.99-6.84-13.3-12.79-26.5-17.85-39.58Z"/>
        </g>
      </g>
      <g>
        <path class="cls-3" d="m345.52,1785.28h65.34v13.14h-49.68v40.32h45.9v12.96h-45.9v54.9h-15.66v-121.32Z"/>
        <path class="cls-3" d="m536.86,1844.68c0,41.76-25.38,63.9-56.34,63.9s-54.54-24.84-54.54-61.56c0-38.52,23.94-63.72,56.34-63.72s54.54,25.38,54.54,61.38Zm-94.14,1.98c0,25.92,14.04,49.14,38.7,49.14s38.88-22.86,38.88-50.4c0-24.12-12.6-49.32-38.7-49.32s-38.88,23.94-38.88,50.58Z"/>
        <path class="cls-3" d="m557.2,1786.9c7.92-1.62,19.26-2.52,30.06-2.52,16.74,0,27.54,3.06,35.1,9.9,6.12,5.4,9.54,13.68,9.54,23.04,0,16.02-10.08,26.64-22.86,30.96v.54c9.36,3.24,14.94,11.88,17.82,24.48,3.96,16.92,6.84,28.62,9.36,33.3h-16.2c-1.98-3.42-4.68-13.86-8.1-28.98-3.6-16.74-10.08-23.04-24.3-23.58h-14.76v52.56h-15.66v-119.7Zm15.66,55.26h16.02c16.74,0,27.36-9.18,27.36-23.04,0-15.66-11.34-22.5-27.9-22.68-7.56,0-12.96.72-15.48,1.44v44.28Z"/>
        <path class="cls-3" d="m710.92,1906.6v-51.48l-38.34-69.84h17.82l17.1,33.48c4.68,9.18,8.28,16.56,12.06,25.02h.36c3.42-7.92,7.56-15.84,12.24-25.02l17.46-33.48h17.82l-40.68,69.66v51.66h-15.84Z"/>
        <path class="cls-3" d="m878.49,1844.68c0,41.76-25.38,63.9-56.34,63.9s-54.54-24.84-54.54-61.56c0-38.52,23.94-63.72,56.34-63.72s54.54,25.38,54.54,61.38Zm-94.14,1.98c0,25.92,14.04,49.14,38.7,49.14s38.88-22.86,38.88-50.4c0-24.12-12.6-49.32-38.7-49.32s-38.88,23.94-38.88,50.58Z"/>
        <path class="cls-3" d="m914.49,1785.28v71.82c0,27.18,12.06,38.7,28.26,38.7,18,0,29.52-11.88,29.52-38.7v-71.82h15.84v70.74c0,37.26-19.62,52.56-45.9,52.56-24.84,0-43.56-14.22-43.56-51.84v-71.46h15.84Z"/>
        <path class="cls-3" d="m1155.69,1853.32c-.9-16.92-1.98-37.26-1.8-52.38h-.54c-4.14,14.22-9.18,29.34-15.3,46.08l-21.42,58.86h-11.88l-19.62-57.78c-5.76-17.1-10.62-32.76-14.04-47.16h-.36c-.36,15.12-1.26,35.46-2.34,53.64l-3.24,52.02h-14.94l8.46-121.32h19.98l20.7,58.68c5.04,14.94,9.18,28.26,12.24,40.86h.54c3.06-12.24,7.38-25.56,12.78-40.86l21.6-58.68h19.98l7.56,121.32h-15.3l-3.06-53.28Z"/>
        <path class="cls-3" d="m1260.99,1849.72h-47.16v43.74h52.56v13.14h-68.22v-121.32h65.52v13.14h-49.86v38.34h47.16v12.96Z"/>
        <path class="cls-3" d="m1284.57,1887.52c7.02,4.32,17.28,7.92,28.08,7.92,16.02,0,25.38-8.46,25.38-20.7,0-11.34-6.48-17.82-22.86-24.12-19.8-7.02-32.04-17.28-32.04-34.38,0-18.9,15.66-32.94,39.24-32.94,12.42,0,21.42,2.88,26.82,5.94l-4.32,12.78c-3.96-2.16-12.06-5.76-23.04-5.76-16.56,0-22.86,9.9-22.86,18.18,0,11.34,7.38,16.92,24.12,23.4,20.52,7.92,30.96,17.82,30.96,35.64,0,18.72-13.86,34.92-42.48,34.92-11.7,0-24.48-3.42-30.96-7.74l3.96-13.14Z"/>
        <path class="cls-3" d="m1373.31,1887.52c7.02,4.32,17.28,7.92,28.08,7.92,16.02,0,25.38-8.46,25.38-20.7,0-11.34-6.48-17.82-22.86-24.12-19.8-7.02-32.04-17.28-32.04-34.38,0-18.9,15.66-32.94,39.24-32.94,12.42,0,21.42,2.88,26.82,5.94l-4.32,12.78c-3.96-2.16-12.06-5.76-23.04-5.76-16.56,0-22.86,9.9-22.86,18.18,0,11.34,7.38,16.92,24.12,23.4,20.52,7.92,30.96,17.82,30.96,35.64,0,18.72-13.86,34.92-42.48,34.92-11.7,0-24.48-3.42-30.96-7.74l3.96-13.14Z"/>
        <path class="cls-3" d="m1483.82,1868.44l-12.6,38.16h-16.2l41.22-121.32h18.9l41.4,121.32h-16.74l-12.96-38.16h-43.02Zm39.78-12.24l-11.88-34.92c-2.7-7.92-4.5-15.12-6.3-22.14h-.36c-1.8,7.2-3.78,14.58-6.12,21.96l-11.88,35.1h36.54Z"/>
        <path class="cls-3" d="m1664,1901.2c-7.02,2.52-20.88,6.66-37.26,6.66-18.36,0-33.48-4.68-45.36-16.02-10.44-10.08-16.92-26.28-16.92-45.18.18-36.18,25.02-62.64,65.7-62.64,14.04,0,25.02,3.06,30.24,5.58l-3.78,12.78c-6.48-2.88-14.58-5.22-26.82-5.22-29.52,0-48.78,18.36-48.78,48.78s18.54,48.96,46.8,48.96c10.26,0,17.28-1.44,20.88-3.24v-36.18h-24.66v-12.6h39.96v58.32Z"/>
        <path class="cls-3" d="m1750.76,1849.72h-47.16v43.74h52.56v13.14h-68.22v-121.32h65.52v13.14h-49.86v38.34h47.16v12.96Z"/>
      </g>
      <g>
        <path class="cls-3" d="m243.26,1991.05v121.32h-15.66v-121.32h15.66Z"/>
        <path class="cls-3" d="m371.59,2055.49h-47.16v43.74h52.56v13.14h-68.22v-121.32h65.52v13.14h-49.86v38.34h47.16v12.96Z"/>
        <path class="cls-3" d="m397.33,2112.36v-121.32h17.1l38.88,61.38c9,14.22,16.02,27,21.78,39.42l.36-.18c-1.44-16.2-1.8-30.96-1.8-49.86v-50.76h14.76v121.32h-15.84l-38.52-61.56c-8.46-13.5-16.56-27.36-22.68-40.5l-.54.18c.9,15.3,1.26,29.88,1.26,50.04v51.84h-14.76Z"/>
        <path class="cls-3" d="m540.61,1991.05h15.66v81.18c0,32.22-15.84,42.12-36.72,42.12-5.76,0-12.78-1.26-16.74-2.88l2.34-12.78c3.24,1.26,7.92,2.34,13.14,2.34,14.04,0,22.32-6.3,22.32-30.06v-79.92Z"/>
        <path class="cls-3" d="m686.05,2050.45c0,41.76-25.38,63.9-56.34,63.9s-54.54-24.84-54.54-61.56c0-38.52,23.94-63.72,56.34-63.72s54.54,25.38,54.54,61.38Zm-94.14,1.98c0,25.92,14.04,49.14,38.7,49.14s38.88-22.86,38.88-50.4c0-24.12-12.6-49.32-38.7-49.32s-38.88,23.94-38.88,50.58Z"/>
        <path class="cls-3" d="m728.35,2112.36v-51.48l-38.34-69.84h17.82l17.1,33.48c4.68,9.18,8.28,16.56,12.06,25.02h.36c3.42-7.92,7.56-15.84,12.24-25.02l17.46-33.48h17.82l-40.68,69.66v51.66h-15.84Z"/>
        <path class="cls-3" d="m836.89,1992.67c7.92-1.62,19.26-2.52,30.06-2.52,16.74,0,27.54,3.06,35.1,9.9,6.12,5.4,9.54,13.68,9.54,23.04,0,16.02-10.08,26.64-22.86,30.96v.54c9.36,3.24,14.94,11.88,17.82,24.48,3.96,16.92,6.84,28.62,9.36,33.3h-16.2c-1.98-3.42-4.68-13.86-8.1-28.98-3.6-16.74-10.08-23.04-24.3-23.58h-14.76v52.56h-15.66v-119.7Zm15.66,55.26h16.02c16.74,0,27.36-9.18,27.36-23.04,0-15.66-11.34-22.5-27.9-22.68-7.56,0-12.96.72-15.48,1.44v44.28Z"/>
        <path class="cls-3" d="m996.54,2055.49h-47.16v43.74h52.56v13.14h-68.22v-121.32h65.52v13.14h-49.86v38.34h47.16v12.96Z"/>
        <path class="cls-3" d="m1041.9,2074.21l-12.6,38.16h-16.2l41.22-121.32h18.9l41.4,121.32h-16.74l-12.96-38.16h-43.02Zm39.78-12.24l-11.88-34.92c-2.7-7.92-4.5-15.12-6.3-22.14h-.36c-1.8,7.2-3.78,14.58-6.12,21.96l-11.88,35.1h36.54Z"/>
        <path class="cls-3" d="m1132.44,1992.67c9.54-1.44,20.88-2.52,33.3-2.52,22.5,0,38.52,5.22,49.14,15.12,10.8,9.9,17.1,23.94,17.1,43.56s-6.12,36-17.46,47.16c-11.34,11.34-30.06,17.46-53.64,17.46-11.16,0-20.52-.54-28.44-1.44v-119.33Zm15.66,107.28c3.96.72,9.72.9,15.84.9,33.48,0,51.66-18.72,51.66-51.48.18-28.62-16.02-46.8-49.14-46.8-8.1,0-14.22.72-18.36,1.62v95.76Z"/>
        <path class="cls-3" d="m1267.98,1991.05v121.32h-15.66v-121.32h15.66Z"/>
        <path class="cls-3" d="m1295.34,2112.36v-121.32h17.1l38.88,61.38c9,14.22,16.02,27,21.78,39.42l.36-.18c-1.44-16.2-1.8-30.96-1.8-49.86v-50.76h14.76v121.32h-15.84l-38.52-61.56c-8.46-13.5-16.56-27.36-22.68-40.5l-.54.18c.9,15.3,1.26,29.88,1.26,50.04v51.84h-14.76Z"/>
        <path class="cls-3" d="m1506.11,2106.96c-7.02,2.52-20.88,6.66-37.26,6.66-18.36,0-33.48-4.68-45.36-16.02-10.44-10.08-16.92-26.28-16.92-45.18.18-36.18,25.02-62.64,65.7-62.64,14.04,0,25.02,3.06,30.24,5.58l-3.78,12.78c-6.48-2.88-14.58-5.22-26.82-5.22-29.52,0-48.78,18.36-48.78,48.78s18.54,48.96,46.8,48.96c10.26,0,17.28-1.44,20.88-3.24v-36.18h-24.66v-12.6h39.96v58.32Z"/>
        <path class="cls-3" d="m1586.94,2112.36v-51.48l-38.34-69.84h17.82l17.1,33.48c4.68,9.18,8.28,16.56,12.06,25.02h.36c3.42-7.92,7.56-15.84,12.24-25.02l17.46-33.48h17.82l-40.68,69.66v51.66h-15.84Z"/>
        <path class="cls-3" d="m1754.51,2050.45c0,41.76-25.38,63.9-56.34,63.9s-54.54-24.84-54.54-61.56c0-38.52,23.94-63.72,56.34-63.72s54.54,25.38,54.54,61.38Zm-94.14,1.98c0,25.92,14.04,49.14,38.7,49.14s38.88-22.86,38.88-50.4c0-24.12-12.6-49.32-38.7-49.32s-38.88,23.94-38.88,50.58Z"/>
        <path class="cls-3" d="m1790.51,1991.05v71.82c0,27.18,12.06,38.7,28.26,38.7,18,0,29.52-11.88,29.52-38.7v-71.82h15.84v70.74c0,37.26-19.62,52.56-45.9,52.56-24.84,0-43.56-14.22-43.56-51.84v-71.46h15.84Z"/>
      </g>
    </g>
  </g>
</svg>