<?xml version="1.0" encoding="UTF-8"?>
<svg id="Calque_2" data-name="Calque 2" xmlns="http://www.w3.org/2000/svg" viewBox="0 0 1578.87 1588.61">
  <defs>
    <style>
      .cls-1, .cls-2 {
        fill: #ffe2c7;
      }

      .cls-2 {
        fill-rule: evenodd;
      }

      .cls-3 {
        fill: #3e4047;
      }
    </style>
  </defs>
  <g id="OBJECT">
    <g>
      <path class="cls-3" d="m1298.57,541.51c1.4-.11,2.61.33,3.68,1.19-5.31,3.32-10.44-7.27-3.68-1.19Z"/>
      <path class="cls-3" d="m1307.76,540.94c5.79-3.08,9.13.51,11.4,2.44-5.17,3.2-8.09-.19-11.4-2.44Z"/>
      <path class="cls-3" d="m1329.31,573.34c4.16,3.79,9.42,4.26,13.91,7.06-9.75-.93-12.47-2.75-20.08-5.75,2.3-1.12,3.1,2.08,6.17-1.31Z"/>
      <path class="cls-3" d="m1370.5,19.11c1.4-.1,2.61.33,3.67,1.19-5.3,3.33-10.43-7.26-3.67-1.19Z"/>
      <path class="cls-3" d="m1382.49,1158.51c1.4-.11,2.6.33,3.67,1.19-5.3,3.32-10.44-7.27-3.67-1.19Z"/>
      <path class="cls-3" d="m1379.68,18.55c5.8-3.08,9.14.51,11.41,2.44-5.18,3.2-8.09-.2-11.41-2.44Z"/>
      <path class="cls-3" d="m1390.38,673.21c.44.24.97.55,1.56.91-.35-.13-.81-.37-1.56-.91Z"/>
      <path class="cls-3" d="m1399.38,624.36c-3.92,2.08-4.78-1.2-5.66-2.58,4.57-2.15,3.41,1.37,5.66,2.58Z"/>
      <path class="cls-3" d="m1393.93,282.91c.4-.22.81-.33,1.22-.42,1.47.97,2.82,2.1,4.36,3.35-.23.53-.63,1.04-1.47,1.47-.62-2.77-3.3-2.14-4.11-4.4Z"/>
      <path class="cls-3" d="m1391.67,1157.94c5.79-3.08,9.14.51,11.41,2.44-5.18,3.2-8.09-.19-11.41-2.44Z"/>
      <path class="cls-3" d="m1415.15,58.01c-9.76-.93-12.47-2.75-20.08-5.76,2.29-1.12,3.1,2.08,6.17-1.3,4.15,3.78,9.42,4.25,13.91,7.06Z"/>
      <path class="cls-3" d="m1402.16,291.72c3.62-1.91,8.26.79,7.93,2.85-1.53,1.21-2.42.7-3.81,1.54-2.32-1.35-.87-3.16-4.12-4.39Z"/>
      <path class="cls-3" d="m1413.23,1190.35c4.15,3.78,9.42,4.25,13.91,7.05-9.76-.93-12.48-2.75-20.08-5.75,2.29-1.12,3.1,2.08,6.17-1.3Z"/>
      <path class="cls-3" d="m1441.85,604.79c2.98-.27,4.9.8,1.88,4.13-3.12-1.06-1.63-2.71-1.88-4.13Z"/>
      <path class="cls-3" d="m1445.07,633.97l3.14-2.05,2.64,1.85c-2.56,1.94-4.34,1.6-5.78.2Z"/>
      <path class="cls-3" d="m1453.2,617.04c3.5-1.54,1.78-2.41,4.55-3.86,1.74,1.24-1.22,3.08-1.52,4.57-1.33.73-2.09-.27-3.03-.71Z"/>
      <path class="cls-3" d="m1459.81,348.9c-3.28,2.9-5.33-1.23-4.94-2.12,2.57-.9,5.69.22,4.94,2.12Z"/>
      <path class="cls-3" d="m1462.31,150.82c.43.23.97.55,1.56.9-.35-.13-.81-.37-1.56-.9Z"/>
      <path class="cls-3" d="m1463.18,823.29c.9,1.27,1.69,2.62,2.45,3.96-1.71-1-2.89-2.23-2.45-3.96Z"/>
      <path class="cls-3" d="m1461.42,873.59c4.63-1.97,3.16,1.31,2.09,2.94-.87-1.02-1.54-2-2.09-2.94Z"/>
      <path class="cls-3" d="m1463.8,614.61c1.54,2.38-3.72,3.07-6.64,5.22-1.9-1.37,4.33-4.94,6.64-5.22Z"/>
      <path class="cls-3" d="m1465.66,848.1c1.07-.12,1.98.09,2.57.5.03.02.05.05.08.06.57.43.82,1.06.57,1.77-3.33,2.31-8.3.44-3.22-2.33Z"/>
      <path class="cls-3" d="m1465.64,99.38c4.58-2.15,3.42,1.38,5.66,2.59-3.91,2.07-4.78-1.21-5.66-2.59Z"/>
      <path class="cls-3" d="m1460.06,350.5c5.09-1.38,7.92,3.63,11.82,5.62-3.28.56-1.58,1.66-4.85,2.22-1.91-4.4-2.95-5.19-6.97-7.84Z"/>
      <path class="cls-3" d="m1474.3,1290.22c.43.23.97.54,1.56.9-.35-.13-.81-.37-1.56-.9Z"/>
      <path class="cls-3" d="m1472.87,850.57c-.81-1.23-1.97-2.39-3.33-3.46.54-.62,1.34-1.05,2.15-.57.71,2.42,2.02,1.71,4.71,3.25-.68.53-2.32.55-3.53.78Z"/>
      <path class="cls-3" d="m1478.79,836.08c-.32-.31-.63-.62-.94-.94.51-.03.96,0,1.51-.09-.61.39-.63.72-.57,1.03Z"/>
      <path class="cls-3" d="m1480.19,884.42c.17-.31.34-.58.51-.83-.13.26-.3.54-.51.83Z"/>
      <path class="cls-3" d="m1477.63,1238.78c4.57-2.15,3.42,1.38,5.66,2.58-3.92,2.08-4.78-1.2-5.66-2.58Z"/>
      <path class="cls-3" d="m1481.24,867.99c-2.44.74-4.35.02-6-1.45,2.86-1.33,6.89-.98,6,1.45Z"/>
      <path class="cls-3" d="m1477.85,899.91c3.71-2.03,8.35,2.21,4.11,4.41-.62-2.77-3.31-2.15-4.11-4.41Z"/>
      <path class="cls-3" d="m1479.36,870.93c4.76-2.13,2.38,1.5,5.57,2.6-3.29.19-4.83-.96-5.57-2.6Z"/>
      <path class="cls-3" d="m1486.07,908.72c3.62-1.91,8.27.79,7.93,2.85-1.52,1.21-2.42.7-3.8,1.54-2.32-1.35-.88-3.16-4.13-4.39Z"/>
      <path class="cls-3" d="m1497.34,341.24c4.8-1.8,5.63,2.18,6.43,3.03-3.2,2.05-6.82-1.43-6.43-3.03Z"/>
      <path class="cls-3" d="m1513.78,82.39c.29-.03.57-.04.83-.04,2.47,0,3.78,1.17,1.04,4.17-3.11-1.05-1.62-2.71-1.87-4.13Z"/>
      <path class="cls-3" d="m1522.77,111.38c-2.56,1.94-4.33,1.59-5.77.19l3.13-2.04,2.64,1.85Z"/>
      <path class="cls-3" d="m1525.77,1221.79c2.97-.27,4.9.8,1.87,4.13-3.11-1.06-1.63-2.71-1.87-4.13Z"/>
      <path class="cls-3" d="m1526.19,333.66c2.43-.74,4.35-.04,5.97,1.44-3.18,2.29-6.65.42-5.97-1.44Z"/>
      <path class="cls-3" d="m1525.13,94.65c3.5-1.54,1.77-2.41,4.55-3.86,1.74,1.24-1.22,3.07-1.53,4.57-1.32.72-2.09-.27-3.02-.71Z"/>
      <path class="cls-3" d="m1534.76,1250.77c-2.56,1.94-4.34,1.6-5.77.2l3.13-2.05,2.64,1.85Z"/>
      <path class="cls-3" d="m1535.72,92.21c1.55,2.38-3.72,3.08-6.64,5.22-1.89-1.36,4.34-4.93,6.64-5.22Z"/>
      <path class="cls-3" d="m1537.12,1234.04c3.5-1.54,1.77-2.41,4.55-3.86,1.74,1.25-1.22,3.08-1.53,4.58-1.32.72-2.09-.28-3.02-.72Z"/>
      <path class="cls-3" d="m1543.72,965.9c-3.28,2.9-5.33-1.23-4.93-2.12,2.56-.9,5.69.22,4.93,2.12Z"/>
      <path class="cls-3" d="m1380.67,592.73c-11.49,2.69-20.37-8.02-20.42-14.43-5.51-3.3-7.7-1.18-12.33-4.51,1.11,1.2.19,5.4,2.51,4.62-3.98,2.43-6.5-.19-11.02-3.57.08.08,1.91-.29,2.36.26-4.82-5.89-30.03-7.84-24.42-21.65,2.56,2.03,5.35,3.42,8.65,3.32-3.22,0-5.66-8.48-12.98-4.98-2.57-1.14-1.38-2.75-.15-4.36,2.68-1.42,5.35-2.87,6.84-.84,2.76-1.43-3.58-1.74,1.17-3.42,4.41,2.92,4.26,6.41,9.06,9.29.7-2.45-1.17-5-5.39-8.1,15.13,3.22,22.12,7.06,30.43,15.97,4.74-3.13-.53-5.04,2.75-8,4.71,6.4,15.87,5.6,18.49,10.31l-2.1,1.36c-1.93,1.66-2.93.63-4.05-.05-1.97,2.85,4.09,2.1,6.8-.84,2.21,1.51,5.03,1.18,6.95,3.52-2.38,1.41-3.9.28-5.36-.98-2.51,4.27,7.61,4.01,12.99,4.95,3.95.61-3.16,2.59-1.17,3.43,4.66.48,19.42,10.08,18.71,14.62,3.05.33,4.22.06,6.54-2.45,3,1.26,3.33,2.86.82,4.82,7.78-1.6,7.54,4.02,8.82,7.64,2.45,1.58,2.06-3.23,3.79-1.56,1.73,1.15.03,1.07-1.42,1.81,2.38,1.8,6.48-1.51,8.38,1.69-3.15,1.31-6.44,3.02-10.05,5.65,1.58.94,4.71-2.68,6.93-3.62,3.82,1.35-.4,3.7,1.47,5.3,1.66-1.68,5.01-2.91,7.57-3.14-2.51,1.73-1.99,2.97-5.21,3.39,6.06.36,3.81,2.14,5.54,5.33,2.7-1.4,7.42-2.29,9.4-6.12.49,2.5,2.2,4.83,2.4,7.37-2.75,1.69-4.28-.21-6.03-1.44-1.4-.65-2.89,3.22-3.91,4.33,2.06.67.83-1.62,3.8-1.57,1.21,1.3.82,2.81,3.56,3.93-.98,2.13-1.39.82-4.18,2.72,7.26.93,12.5-5.11,15.97-1.46,1-1.05,1.31-2,.11-2.76,16.09-.59,14.3,15.01,26.92,14.61-.2,2.95-2.43,2.74,2.25,3-3.86,4.15-8.1,3.65-12.5,3.4.52.63,1.09,1.24,1.81,1.8-4.01,1.63-3.06,1.59-4.54,3.86,3.28.92,4.23-5.16,7.94-4.29-1.94,2.6,7.5,2.6,6.52,7.37,1.29.42,1.88-1.15,1.42-1.81,3.7-.97-.71,3.7,2.54,4.59.49-.97.37-1.87.11-2.75,3.54-1.73.4,1.64,2.64,1.85.98-.67,0-1.09-.28-1.61,2.98-1.63,4.3,1.75,7.08.74-1.05,2.08-1.76,5.76,3.58,3.93,3.93,9.14,13.11,15.99,21.91,22.38l-3.12,2.04c10.28,1.9,13.77,7.46,20.65,11.55-12.44,1.8-14.72-7.58-23.01-11.79-4.59-2.31-11.97-1.82-14.36-5.83,3.47-3.1,4.25,1.95,7.08.74.94-1.24-2.27-.91-2.26-2.99-17.36,2.22-22.67-11.46-33.25-17.66-8.68-5.08-20.2-6.77-24.67-11.63.62-.99-.45-1.77,1.8-2.97-5.14.26-4.31-3.9-7.95-5.55,2.51-2.85,3.39-1.18-.54-3.22,3.22-.43,2.68-1.65,5.2-3.39,2.49.78-.88,2.3-1.15,3.43,2.59-.39,5-.29,7.86-1.55.61,1.38-1.65,3.12-1.52,4.57,1.66.74,4.13-.93,5.78-.19,2.11-3.17-5.78-4.56-2.75-8.91-8.55-.23-16.81,5.3-23.42,1.83-2.14,1.9.18,3.26.83,4.82-10.01-.13-8.67-7.58-17.35-6.59.17-1.29-1.46-2.37.49-3.89-2.54-.86-10.82-.99-7.63-3.97-1.36-.8-3.91,1.92-5.11.64,2.42-7.49-16.09-7.57-15.69-13.92-7.96.75-14.83-5.45-15.93-8.42Z"/>
      <path class="cls-3" d="m1547.12,416.94c-2.87,2.74-3.66-.39-5.34-.96,3.16-2.67,6.03-.8,5.34.96Z"/>
      <path class="cls-3" d="m1547.09,1440.29c.91,1.27,1.7,2.62,2.46,3.96-1.72-.99-2.89-2.23-2.46-3.96Z"/>
      <path class="cls-3" d="m1547.43,1493.53c-.88-1.02-1.55-2-2.1-2.94,4.63-1.96,3.17,1.31,2.1,2.94Z"/>
      <path class="cls-3" d="m1547.71,1231.61c1.55,2.38-3.72,3.07-6.64,5.22-1.89-1.37,4.34-4.94,6.64-5.22Z"/>
      <path class="cls-3" d="m1552.79,1467.43c-3.32,2.31-8.3.44-3.22-2.33,1.08-.12,1.98.09,2.58.5.03.02.05.05.08.07.56.43.81,1.05.56,1.76Z"/>
      <path class="cls-3" d="m1543.97,967.5c5.09-1.38,7.92,3.63,11.82,5.62-3.28.56-1.57,1.66-4.85,2.22-1.9-4.39-2.94-5.19-6.97-7.84Z"/>
      <path class="cls-3" d="m1556.79,1467.57c-.81-1.23-1.97-2.39-3.33-3.46.53-.62,1.33-1.05,2.14-.56.72,2.41,2.02,1.7,4.71,3.24-.68.53-2.31.55-3.52.78Z"/>
      <path class="cls-3" d="m1562.7,1453.08c-.32-.31-.63-.62-.93-.94.5-.03.95,0,1.51-.09-.62.4-.64.72-.58,1.03Z"/>
      <path class="cls-3" d="m1564.1,1501.42c.17-.31.34-.58.51-.83-.13.26-.3.54-.51.83Z"/>
      <path class="cls-3" d="m1565.15,1484.99c-2.44.74-4.35.03-6-1.45,2.86-1.33,6.89-.98,6,1.45Z"/>
      <path class="cls-3" d="m1545.09,691.23c10.66-1.21,17.45,8.35,23.04,11.77-12.26,2.04-14.27-8.62-23.04-11.77Z"/>
      <path class="cls-3" d="m1567.52,1518.79h-3.87c-.77-.42-1.52-.86-1.88-1.88,2.49-1.36,5.4.1,5.75,1.88Z"/>
      <path class="cls-3" d="m1563.27,1487.93c4.76-2.13,2.38,1.5,5.58,2.6-3.29.19-4.84-.96-5.58-2.6Z"/>
      <path class="cls-3" d="m1574.18,126.54v18.43c-7.83-3.76-12.6-11.48-19.84-15.72-8.67-5.08-20.19-6.78-24.66-11.63.62-.99-.46-1.77,1.79-2.97-5.14.26-4.3-3.9-7.94-5.56,2.51-2.85,3.39-1.17-.55-3.21,3.23-.43,2.69-1.65,5.21-3.4,2.49.78-.88,2.3-1.15,3.43,2.58-.39,5-.28,7.86-1.54.61,1.37-1.65,3.12-1.52,4.57,1.66.73,4.12-.94,5.77-.2,2.12-3.16-5.78-4.56-2.74-8.91-8.55-.23-16.81,5.31-23.42,1.83-2.14,1.91.18,3.26.82,4.83-10-.13-8.66-7.58-17.34-6.59.16-1.29-1.47-2.37.48-3.89-2.54-.87-10.82-.99-7.62-3.97-1.37-.81-3.92,1.92-5.12.64,2.42-7.5-16.08-7.58-15.69-13.93-7.96.75-14.82-5.44-15.92-8.41-11.49,2.68-20.37-8.03-20.42-14.43-5.51-3.31-7.71-1.18-12.33-4.51,1.11,1.19.18,5.4,2.51,4.62-3.98,2.42-6.5-.19-11.03-3.57.09.08,1.92-.29,2.37.26-4.83-5.89-30.03-7.84-24.42-21.66,2.55,2.04,5.34,3.43,8.65,3.33-3.22,0-5.66-8.48-12.98-4.99-2.57-1.14-1.38-2.75-.15-4.35,2.67-1.42,5.34-2.87,6.83-.85,2.77-1.42-3.57-1.74,1.18-3.41,4.4,2.92,4.26,6.4,9.05,9.29.71-2.46-1.16-5-5.38-8.11,15.13,3.23,22.12,7.06,30.43,15.98,4.74-3.14-.53-5.05,2.75-8,4.71,6.39,15.87,5.6,18.48,10.3l-2.09,1.36c-1.93,1.67-2.93.63-4.05-.05-1.97,2.85,4.08,2.1,6.8-.84,2.2,1.51,5.03,1.19,6.94,3.53-2.37,1.41-3.89.28-5.36-.99-2.51,4.28,7.61,4.02,12.99,4.96,3.96.61-3.15,2.58-1.16,3.42,4.66.48,19.41,10.08,18.7,14.63,3.05.33,4.23.06,6.54-2.46,3,1.27,3.34,2.87.82,4.82,7.78-1.59,7.55,4.03,8.83,7.65,2.44,1.58,2.06-3.23,3.79-1.56,1.73,1.14.03,1.06-1.43,1.81,2.39,1.79,6.49-1.51,8.39,1.69-3.15,1.3-6.44,3.02-10.05,5.64,1.58.94,4.71-2.68,6.92-3.61,3.82,1.35-.39,3.7,1.48,5.29,1.66-1.68,5-2.9,7.57-3.14-2.51,1.74-2,2.97-5.21,3.39,6.06.37,3.8,2.15,5.54,5.33,2.7-1.39,7.42-2.29,9.4-6.11.49,2.49,2.2,4.83,2.39,7.36-2.74,1.69-4.27-.2-6.02-1.43-1.41-.65-2.9,3.22-3.91,4.33,2.06.67.83-1.63,3.8-1.58,1.21,1.31.82,2.82,3.55,3.94-.97,2.12-1.38.82-4.17,2.72,7.25.93,12.5-5.11,15.97-1.47,1-1.05,1.31-1.99.11-2.75,16.09-.59,14.3,15,26.92,14.61-.2,2.95-2.44,2.74,2.25,3-3.86,4.15-8.11,3.64-12.5,3.4.52.63,1.09,1.24,1.81,1.8-4.01,1.62-3.07,1.59-4.54,3.86,3.28.92,4.23-5.16,7.94-4.3-1.94,2.61,7.49,2.6,6.51,7.38,1.29.42,1.88-1.16,1.42-1.82,3.71-.96-.7,3.7,2.55,4.6.49-.98.36-1.88.1-2.75,3.55-1.74.41,1.64,2.65,1.85.98-.67-.02-1.1-.28-1.61,1.74-.95,2.91-.2,4.13.4Z"/>
      <path class="cls-3" d="m1574.18,163.75v51.27c-16.51-10.38-32.83-20.51-44.05-32.21-12.1-4.89-22.35-11.71-30.03-15.37-8.54.37-18.91-3.55-19.41-7.97-4.32.24-12.44-5.12-16.82-7.75,1.55.57-.12-2.24.9-3.41,5.82,3.74,8.1,7.5,14.77,4.72.29.88.4,1.78-.09,2.76-.75-.21-1.33-.9-2.37-.26,2.87,4.03,5.85-5.07,9.96-2.91-5.04,3.95,5.66,2.57-2.29,6.88-2.61-1.11-.25-3.5-4.34-1.64,5.46,4.47,12.5,7.4,16.67,8.86,1.43-4.02-8.13-4.07-9.95-6.97.69-1.38,3.19-2.97,3.89-4.34-.95-4.11-7.63-4.13-4.47-8.75,12.61,4.09,3.74,7.29,10.14,11.32-.37-.25.1-1.07,1.04-.68,5.1,2.4,5.34,4.86,10.99,6.28-.03,2.05-2.13,9.57,5.97,4.18-3.5-1.21-7.02-3.24-3.51-6.68-3.71-5.28-15.06-2.31-14.67-7.46,3.23,1.75,6.88,2.21,11.17.77-2.18-2.44-6.41,1.28-8.43-1.67,1.64-.86,2.85-.38,4.44-1.11-5.04-.9-12.52-3.74-8.89-7.64,7.38,2.65,12.82,5.8,18.75,7.48-1.52.92-3.84,2.71-1.43,1.83.7-.46,1.4-.92,2.08-1.36-1.41-7.11-12.72-3.29-9.45-10.86,2.31,2.51,8.48,2.11,7.95,5.56,6.8-2.89,14.31,1.03,16.45,4.49-1.67-11.28-21.42-8.07-30.75-13.08,3.18-2.85,8.36.84,9.28-3.37-15.18-2.42-17.9-17.37-26.59-22.96,11.56,3.13,19.98,6.96,24.24,12.85,1.76,1.65,1.33-3.14,3.79-1.58,1.55,6.22,15.84,11.61,26.57,15.79-1.75.79-2.54.59-3.12,2.04,11.6-2.14,13.25,7.01,20.05,8.39-.28-.5-1.28-.92-.28-1.6,5.04,5.74,12.73,11.9,21.84,16.16Z"/>
      <path class="cls-3" d="m1545.34,302.98c7.56,7.72,17.59,14.16,28.84,20.05v6.7c-7-5.25-13.44-10.97-19.19-13.14-4.8-1.8-7.14-7.28-11.09-9.02-3.98-1.73-11.5-3.42-7.99-8.32-.14,2.84,6.27,1.99,5.66,5.33,2.98.03,1.68-2.26,3.77-1.6Z"/>
      <path class="cls-3" d="m1574.18,336.69v94.41c-5.99-2.41-11.15-5.09-14.81-9.72,1.45-1.09,4.08-2.32,3.53-3.17-2.84,1.13-4.89.08-7.44.4,3.47-2.49-1.85-1.19.15-2.74,1.18.48,3.05-.96,4.44-1.1-1.83-.86-2.32-1.89-2.19-2.99-3.73,1.74.95,2.42-3.94,4.3-1.47-1.25-3.67-.36-5.35-.96,1.38-4.29-9.42-2.7-10-8.54,1.62-.76,2.92-.62,4.85-2.23-2.73-1.48-6.99,1.38-9.81.14,1.67-.86,2.85-.38,4.45-1.09-10.86,2.58-10.09-8.34-11.94-9.93.45.66-.16,2.21-1.45,1.81-8.47-8.76-19.75-13.71-29.22-20.85,1.12-.8,2.58-.37,2.1-1.34-5.28-2.58-39.54-11.17-22.68-16.25-.26-.52-1.23-.94-.24-1.6.93.43,1.66,1.43,2.99.72-.34-2.5-7.26-3.12-10.52-4.7.76-1.36,2.11-2.79,2.26-4.08-12.19,1.26-3.92-8.4-11.89-9.96,2.57-1.91,3.33,1.28,6.14-1.3-15.28.72-19.1-12.01-31.41-16.82,2.6-1.93,2.63,3.24,5.75-.15-9.65-3-18.59-14.42-29.91-18.7,5.19-.62-.93-2.65,1.64-4.55,12.75-.39,12.38,8.06,25.71,9.96,1.18-1.23,6.21-2.94,4.63-3.83-11.9,4.73-14.02-4.81-22.88-6.49,1.38-1.25-1.14-2.03,2.92-3.61-6.63.15-12.26-2.7-16.63-6.65.1-.1.22-.21.4-.33,13.08,1.51,19.78,7.68,32.15,9.71-1.63.86-2.85.39-4.45,1.13,8.73-.27,6.41,5.24,12.21,2.85,3.23,6.81,15.78,14.72,24.51,22.23.11.29.43.53.85.74,2.14,1.89,3.98,3.75,5.36,5.55-3.14-1.35-5.83-4-9.37-4.26-.15,3.62,5.84,4.23,9.65,4.61.97,1.32,1.68,2.62,2.03,3.88,5.27,3.47,18.33,3.92,14.41,11.4,6.8-.9,8.92,6.53,14.58,5.83-.79-.88,1.6-1.2,2.75-.91,6.28,10.28,21.36,7.42,30.41,18.11,4.92-3.77-10.14-4.93-1.24-9.23-5.95-5.09-4.47-8.76-10.71-12.95.96.44,1.73,1.43,3.04.71-.27-.52-1.3-.94-.32-1.61,2.49,2.53,5.54,3.3,9.18,2.09-1.28-.62-2.64-1.3-3.98-2.03-2.96-2.76-1.2-4.56-2.08-7.04.16.03.24.09.39.12,1.46,1.41,2.77,2.74,4.02,3.01.89,2.12.75,4.38,5.31,3.82-.75-.9,1.85-1.8,3.15-2.02-.27-.19-.56-.39-.85-.58.41,0,.83,0,1.26-.08.41-1.28-1.14-2.52-3.14-2.46.14-.31.41-.64.94-1.01,2.68-.73,2.85,5.44,7.93,2.83-7.31-4.45-13.59-8.75-19.58-13.1,1.99-.66-2.59-1.62,1.18-3.36,5.65.3,4.82,3.08,7.77,3.95-1.13-.35.65-3.59,2.42-2.53.72,2.41,2.03,1.71,4.72,3.24-1.27.99-5.86.2-4.8,2.29,5.25.06,14.72.41,11.49,5.11,2.11-1.21,1.52-2.04,3.45-3.22,1.54,1.23,3.09,2.34,5.09,2.09l-3.11,2.07c5.57,1.27,9.14,1.53,13.73.96Z"/>
      <path class="cls-3" d="m1574.18,712.9v1.59c-.32-.45-.37-.97,0-1.59Z"/>
      <path class="cls-3" d="m1557.24,716.49c5.06,4.27,10.8,8.31,16.94,12.2v60.14c-6.75-.42-12.17-5.02-18.3-7.34-20.92-31.41-72.3-49.82-97.68-76.28-12.09-4.89-22.35-11.72-30.02-15.38-8.55.37-18.91-3.55-19.42-7.97-4.31.25-12.44-5.11-16.82-7.74,1.55.56-.12-2.25.91-3.41,5.81,3.74,8.1,7.5,14.77,4.71.28.88.39,1.78-.1,2.76-.74-.21-1.33-.9-2.36-.25,2.87,4.02,5.84-5.07,9.95-2.91-5.04,3.95,5.66,2.57-2.28,6.88-2.61-1.12-.25-3.51-4.35-1.65,5.47,4.48,12.5,7.41,16.67,8.86,1.43-4.01-8.12-4.07-9.95-6.96.69-1.38,3.19-2.97,3.89-4.35-.95-4.1-7.63-4.12-4.46-8.74,12.6,4.09,3.74,7.29,10.13,11.32-.37-.26.1-1.08,1.04-.68,5.1,2.39,5.35,4.85,10.99,6.28-.02,2.05-2.13,9.56,5.97,4.18-3.5-1.22-7.02-3.25-3.5-6.69-3.72-5.28-15.07-2.3-14.68-7.45,3.23,1.75,6.89,2.2,11.18.77-2.19-2.44-6.42,1.28-8.43-1.67,1.63-.86,2.84-.39,4.44-1.12-5.05-.89-12.53-3.74-8.89-7.64,7.38,2.66,12.81,5.8,18.75,7.49-1.53.92-3.85,2.71-1.44,1.82.71-.46,1.4-.91,2.08-1.35-1.41-7.12-12.71-3.3-9.45-10.87,2.31,2.52,8.49,2.12,7.95,5.57,6.81-2.9,14.32,1.03,16.45,4.48-1.66-11.27-21.41-8.07-30.75-13.08,3.18-2.84,8.36.84,9.29-3.37-15.19-2.42-17.9-17.37-26.6-22.95,11.56,3.12,19.98,6.95,24.25,12.85,1.75,1.64,1.32-3.15,3.79-1.58,1.55,6.22,15.83,11.61,26.57,15.78-1.75.8-2.55.6-3.13,2.05,11.6-2.15,13.25,7,20.06,8.39-.29-.5-1.29-.93-.28-1.61,7.42,8.46,20.55,17.8,35.53,20.67l-4.15,2.72c14.2,4.54,33.94,12.15,40.33,23.79,2.15-1.58,3.85-1.8,5.11-.67Z"/>
      <path class="cls-3" d="m1574.18,789.15v23.69c-2.11.14-4.32.64-6.72,1.74-.63-1.63,2.9-5.27,5.88-5.74.3-7.13-12.6-9.09-13.97-15.18,3.79-2.55,6.23-.79,9.55-1.83-3.98-3.45,2.42-1.63,5.26-2.68Z"/>
      <path class="cls-3" d="m1570.13,816.42c1.34.58,2.64,1.28,4.05,1.65v2.7c-.33-.29-.68-.59-1.04-.89-2.97,1.65-5.33,1.37-7.13-.7,3.17-.61,1.24-.92,4.12-2.76Z"/>
      <path class="cls-3" d="m1512.27,850.39c20.27,9.65,43.01,18.33,61.91,29.79v107.28c-11.07-3.72-28.37-9.71-15.4-13.62-.25-.52-1.23-.94-.24-1.6.93.44,1.66,1.43,2.99.72-.34-2.5-7.25-3.12-10.51-4.7.76-1.36,2.1-2.79,2.26-4.08-12.2,1.26-3.93-8.4-11.9-9.96,2.57-1.91,3.33,1.28,6.14-1.3-15.27.72-19.1-12.01-31.41-16.82,2.6-1.93,2.64,3.24,5.76-.15-9.65-2.99-18.59-14.42-29.92-18.7,5.2-.62-.92-2.65,1.64-4.55,12.75-.39,12.39,8.07,25.72,9.96,1.18-1.23,6.21-2.93,4.62-3.83-11.89,4.73-14.01-4.81-22.88-6.49,1.38-1.25-1.13-2.03,2.92-3.61-11.12.25-19.52-7.87-23.67-15.63-6.55,1.55-5.61-5.01-11.79-5.65,2.97,0,7.09-3.11,9.57-1.7-2.03,2.3-6.56,1.45-3.59,3.15,8.61-4.31,11.76,5.05,16.25,4.57-1.39-1.36,2.71-.51,4.23-2.68-5.68-.16-5.04-3.94-10.9-3.58,1.68-2.92-.22-8.38-3.37-3.62,2.39-4.73-6.5-5.57-3.88-10.18,6.19,5.6,13.58,4.41,19.08,8.04.62-4.52-3.13-4.49-5.63-6.93,1.43-.95,2.62-1.26,3.81-1.55-8.76-7.11-16.07-10.93-16.23-20.34-1.35.72-2.89,1.99-3.81,1.54.03-.71-.1-1.39-.33-2.05,5.29.17,12.21.95,9.39,5.06,2.1-1.2,1.51-2.03,3.45-3.21,1.53,1.23,3.09,2.33,5.08,2.08l-3.1,2.07c3.79.87,6.66,1.21,9.55,1.2-.74.68-1.51,1.36-.53,1.82,2.62-2.74,2.9,1,5.52-1.74-.26-.11-.44-.25-.61-.38.46-.06.88-.08,1.36-.15,1.27,2.19,7.3,9.1,12.49,7.16-1.96-3.43-11.98-3.37-7.68-9.46-9.49-5.99-18.1-14.78-25.57-17.59-1.02-.38-1.91-.95-2.75-1.59-.33-1.32-.46-2.66.51-4.14.82-.06,1.56.1,2.26.37,1.42,1.06,2.89,2.08,4.4,3.08.48.38.97.73,1.48,1.02,0-.01,0-.02.02-.02,5.91,3.82,12.41,7.36,19.27,10.74-.45.19-.9.39-1.48.75,4.64-.37,2.43,4.25,6.88,3.51-.7-.48-1.04-1.4-1.38-2.31Z"/>
      <path class="cls-3" d="m1574.17,1252.98v21.95c-2.46-2.33-4.96-4.59-7.85-6.28-8.67-5.09-20.19-6.78-24.66-11.64.62-.99-.46-1.76,1.79-2.96-5.14.25-4.3-3.91-7.94-5.56,2.51-2.85,3.39-1.18-.55-3.21,3.23-.44,2.68-1.66,5.21-3.4,2.49.78-.88,2.3-1.15,3.43,2.58-.39,5-.28,7.86-1.55.61,1.38-1.65,3.12-1.52,4.57,1.66.74,4.12-.93,5.77-.19,2.12-3.16-5.78-4.56-2.74-8.91-8.55-.23-16.81,5.3-23.43,1.83-2.14,1.91.18,3.26.83,4.82-10-.13-8.66-7.57-17.34-6.59.16-1.29-1.47-2.37.48-3.89-2.54-.86-10.82-.99-7.62-3.97-1.37-.8-3.92,1.92-5.12.64,2.42-7.49-16.08-7.57-15.69-13.92-7.96.75-14.82-5.45-15.92-8.42-11.49,2.69-20.37-8.02-20.42-14.42-5.51-3.31-7.71-1.19-12.34-4.51,1.11,1.19.19,5.39,2.52,4.61-3.98,2.43-6.5-.19-11.03-3.57.08.08,1.92-.29,2.37.26-4.83-5.88-30.03-7.84-24.42-21.65,2.55,2.03,5.34,3.42,8.65,3.32-3.22,0-5.66-8.48-12.99-4.98-2.57-1.14-1.37-2.75-.14-4.36,2.67-1.41,5.34-2.87,6.83-.84,2.77-1.43-3.58-1.74,1.17-3.42,4.41,2.93,4.27,6.41,9.06,9.29.71-2.45-1.16-5-5.38-8.1,15.13,3.22,22.12,7.06,30.43,15.97,4.73-3.13-.53-5.04,2.75-8,4.71,6.4,15.87,5.6,18.48,10.31l-2.09,1.36c-1.94,1.66-2.94.63-4.05-.05-1.98,2.85,4.08,2.1,6.79-.84,2.21,1.51,5.04,1.18,6.95,3.52-2.37,1.42-3.89.28-5.36-.98-2.51,4.28,7.61,4.02,12.99,4.95,3.96.61-3.15,2.59-1.16,3.43,4.66.48,19.41,10.08,18.7,14.62,3.05.34,4.22.06,6.54-2.45,3,1.26,3.33,2.86.82,4.82,7.78-1.6,7.54,4.02,8.83,7.64,2.44,1.58,2.05-3.23,3.79-1.56,1.73,1.15.03,1.07-1.43,1.81,2.38,1.8,6.48-1.51,8.39,1.69-3.16,1.31-6.44,3.03-10.05,5.65,1.57.94,4.71-2.68,6.92-3.61,3.82,1.34-.39,3.69,1.48,5.29,1.66-1.68,5-2.91,7.57-3.14-2.51,1.73-2,2.97-5.21,3.39,6.06.36,3.8,2.15,5.54,5.33,2.7-1.4,7.42-2.29,9.39-6.12.5,2.5,2.21,4.83,2.4,7.37-2.74,1.69-4.27-.21-6.02-1.44-1.41-.65-2.9,3.22-3.91,4.33,2.06.67.83-1.62,3.8-1.57,1.21,1.3.82,2.82,3.55,3.93-.98,2.13-1.38.83-4.17,2.72,7.25.93,12.5-5.11,15.97-1.46,1-1.05,1.31-2,.1-2.76,16.1-.59,14.31,15.01,26.93,14.61-.16,2.29-1.55,2.68.05,2.86Z"/>
      <path class="cls-3" d="m1574.18,1295.96v50.88c-12.19-7.84-23.57-15.78-32.06-24.63-12.1-4.89-22.35-11.72-30.03-15.38-8.54.37-18.91-3.54-19.41-7.97-4.32.25-12.44-5.11-16.82-7.74,1.55.56-.12-2.25.9-3.41,5.82,3.74,8.1,7.5,14.77,4.71.29.88.4,1.78-.09,2.76-.75-.21-1.33-.9-2.37-.25,2.87,4.02,5.85-5.07,9.96-2.91-5.04,3.95,5.66,2.57-2.29,6.88-2.61-1.12-.25-3.51-4.34-1.65,5.46,4.48,12.5,7.41,16.66,8.86,1.44-4.01-8.12-4.06-9.95-6.96.7-1.38,3.19-2.97,3.9-4.35-.95-4.1-7.64-4.12-4.47-8.74,12.6,4.09,3.74,7.29,10.14,11.32-.37-.26.09-1.08,1.04-.68,5.1,2.39,5.34,4.85,10.99,6.28-.03,2.05-2.13,9.56,5.97,4.18-3.5-1.22-7.03-3.25-3.51-6.69-3.71-5.28-15.06-2.3-14.67-7.45,3.22,1.75,6.88,2.21,11.17.77-2.18-2.44-6.41,1.28-8.43-1.67,1.64-.86,2.85-.39,4.44-1.12-5.04-.89-12.52-3.74-8.89-7.64,7.38,2.66,12.82,5.8,18.75,7.49-1.52.92-3.84,2.71-1.44,1.83.71-.47,1.41-.92,2.09-1.36-1.41-7.12-12.72-3.3-9.46-10.87,2.32,2.52,8.49,2.12,7.95,5.57,6.81-2.9,14.32,1.03,16.46,4.49-1.67-11.28-21.42-8.07-30.75-13.09,3.17-2.84,8.35.84,9.28-3.37-15.18-2.42-17.9-17.37-26.59-22.95,11.55,3.12,19.98,6.96,24.24,12.85,1.75,1.65,1.33-3.15,3.79-1.58,1.55,6.22,15.84,11.61,26.57,15.78-1.75.8-2.55.6-3.12,2.05,11.6-2.14,13.24,7,20.05,8.39-.28-.5-1.28-.93-.28-1.61,2.62,2.99,5.97,6.1,9.85,8.98Z"/>
      <path class="cls-3" d="m1572.89,1454.7c.43.28.86.55,1.29.81v4.51c-2.5-1.74-4.91-3.17-7.21-4.04-1.01-.38-1.91-.95-2.74-1.59-.33-1.32-.46-2.66.5-4.14.82-.06,1.57.1,2.27.38,1.41,1.05,2.88,2.07,4.39,3.08.48.37.97.73,1.49,1.01.01-.01,0-.02.01-.02Z"/>
      <path class="cls-3" d="m1574.17,1473.02v13.95c-6.98-5.38-12.28-9.34-12.42-17.34-1.34.72-2.89,1.99-3.8,1.54.03-.71-.1-1.39-.34-2.05,5.29.17,12.22.95,9.39,5.07,2.11-1.21,1.51-2.04,3.45-3.22,1.17.94,2.35,1.8,3.72,2.05Z"/>
      <path class="cls-3" d="m1560.74,1490.41c4.25,3.84,9.06,4.49,13.44,5.69v10.19c-1.55-1.07-2.75-2.29-6.2-2.08,1.69-2.92-.22-8.38-3.37-3.62,2.4-4.73-6.49-5.56-3.87-10.18Z"/>
      <path class="cls-3" d="m1574.18,1510.48v8.31h-3.29c-2.81-2.61-5.06-5.68-6.67-8.69-6.55,1.55-5.62-5.01-11.8-5.65,2.98,0,7.1-3.11,9.57-1.7-2.02,2.3-6.55,1.46-3.59,3.15,8.3-4.16,11.53,4.4,15.78,4.58Z"/>
      <g>
        <path class="cls-2" d="m1562.29,404.02l-3.38-2.32c-4.98,2.87.16,4.69,3.38,2.32Z"/>
        <path class="cls-2" d="m1548.41,395.9c-2.28-.55-3.42-4.85-6.79-1.87,1.99,1.51,4.21,2.27,6.79,1.87Z"/>
        <path class="cls-2" d="m1476.18,343.42c-2.34-1.9-3.86-3.92-4.65-6.03-2.61,2.2,1.48,6.41,4.65,6.03Z"/>
        <path class="cls-2" d="m1445.64,320.82c-1.76,1.23-3.37,2.03-4.81,2.27,3.7.19,9.92-.31,7.75,3.98,1.85-1.16,3.08-2.24,3.46-3.21-2.23-.7-4.55-1.15-6.41-3.05Z"/>
        <path class="cls-2" d="m1495.2,89.1c-2.65,2.1.17-3.45-3.68-1.18.82,1.17-1.79,2.77,1.2,3.68,1.14-.88,3.08-1.85,2.48-2.5Z"/>
        <path class="cls-2" d="m1491.95,69.79l-3.14,2.03c-.8,2.16,3.12,1,5.39.97.11-1.1-.39-2.14-2.25-3Z"/>
        <path class="cls-2" d="m1461.93,74.1c2.44,1.75,8.6,4.99,9.34,3.76-2.84-2.06-5.56-4.45-9.34-3.76Z"/>
        <path class="cls-2" d="m1473.4,59.53c-2.78-1.41-6.41-.35-9.84.13,2.46,2.39,6.24.87,9.84-.13Z"/>
        <path class="cls-2" d="m1456.86,57.76c.72-1.9-2.44-3.01-5.01-2.11.35.31.63.65-.38,1.14-.6.44-1.14.87-.39,1.14,2.34-1.27,3.44,1.09,5.78-.18Z"/>
        <path class="cls-2" d="m1416.16,35.97c.27,1.51,4.68,7.44,8.92,4.92-4.53.21-6.37-5.15-8.92-4.92Z"/>
        <path class="cls-2" d="m852.07.47c.68.66,1.22,1.33-.82,2.29,3.81,1.54,6.08,3.83,9.08,2.27-4.67-.41-4.86-4.57-8.26-4.56Z"/>
        <path class="cls-2" d="m1541.62,106.23c.11-2.2-1.99-4.11-2.83-6.2-.77-.13-1.54-.18-2.31-.21,3.78,1.87,1.27,4.54,5.14,6.4Z"/>
        <path class="cls-2" d="m1536.42,99.79s0,.02-.02.04c.03,0,.05,0,.08,0-.03-.01-.04-.03-.06-.04Z"/>
        <path class="cls-2" d="m1543.32,106.02c5.01,3.22,5.71,7.34,8.25,10.69,1.62-1.17,2.84-1.19,4.31-1.9-2.4-2.75-2.87-9.29-12.56-8.8Z"/>
        <path class="cls-2" d="m1551.05,117.08c.28.01.56.03.84.05-.11-.14-.21-.28-.32-.41-.18.13-.34.21-.52.37Z"/>
        <path class="cls-2" d="m1512.8,163.61c1.55,2.71,4.76.37,6.72,1.89,5.01,1.43-3.84-4.15-6.72-1.89Z"/>
        <path class="cls-2" d="m1510.32,156.25c2.05,1.24,2.27,5.52,6.63,4.64-4.15-.97-2.9-5.43-6.63-4.64Z"/>
        <path class="cls-2" d="m1459.88,58.49c.74.96-1.54.92-2.35-.26-1.55,1.35-3.67,1.05-3.14,2.03,4.11-1.79.14,1.67.93,2.08,6.63.33,8.82-1.93,4.57-3.85Z"/>
        <path class="cls-2" d="m1429.15,40.95c1.19,2.06,3.4,1.18,5.37.98-.59.38-.65,1.14.65.47.86-2.45-3.18-2.8-6.02-1.45Z"/>
        <path class="cls-2" d="m852.66,26.77c.23,1.86,5.03,4.63,6.31,3.14-2.91-1.9-1.03-1.49,1.45-1.81-1.54-.56-.1-2.22-1.96-1.43.2,2.93-3.98-.89-5.8.1Z"/>
        <path class="cls-2" d="m1578.29,798.27c-2.67-1.05-6.02.11-8.82-.47,2.2,2.48,5.56,1.31,8.82.47Z"/>
        <path class="cls-2" d="m1506.24,720.42c-3.27,2.43.12,4,2.23,5.74,3.89-2.51.02-4.03-2.23-5.74Z"/>
        <path class="cls-2" d="m1423.28,611.5c-2.65,2.1.17-3.45-3.68-1.18.82,1.17-1.79,2.77,1.2,3.68,1.14-.88,3.08-1.85,2.48-2.5Z"/>
        <path class="cls-2" d="m1420.02,592.19l-3.14,2.04c-.8,2.16,3.12,1,5.39.97.11-1.1-.39-2.14-2.25-3Z"/>
        <path class="cls-2" d="m1390,596.49c2.44,1.75,8.6,4.99,9.34,3.76-2.84-2.06-5.56-4.45-9.34-3.76Z"/>
        <path class="cls-2" d="m1401.47,581.93c-2.78-1.41-6.41-.35-9.84.13,2.46,2.39,6.24.87,9.84-.13Z"/>
        <path class="cls-2" d="m1384.93,580.16c.72-1.9-2.44-3.01-5.01-2.1.35.31.63.65-.38,1.14-.6.44-1.14.87-.39,1.14,2.34-1.27,3.44,1.09,5.78-.18Z"/>
        <path class="cls-2" d="m1344.23,558.37c.27,1.51,4.68,7.44,8.92,4.92-4.53.21-6.37-5.15-8.92-4.92Z"/>
        <path class="cls-2" d="m1548.35,406.45c-2.56,1.4-3.78,2.65-2.89,3.62,2.16-2.06,6.2,2.03,6.15-1.31-3.64,1.59-.28-2.04-3.26-2.31Z"/>
        <path class="cls-2" d="m1573.69,387.5c-1.46-3.01-8.55-3.2-7.46.4,3.41-4.12,7.2,2.38,7.46-.4Z"/>
        <path class="cls-2" d="m1548.71,375.42c1.72,1.23,4.11,2.38,3.51,3.91l4.19-2.7c-2.51-.56-4.22-3.37-7.7-1.21Z"/>
        <path class="cls-2" d="m1552.63,348.33c3.46.92,7.1,1.32,10.66,1.94-2.9-2.51-6.33-3.5-10.66-1.94Z"/>
        <path class="cls-2" d="m780.14,522.87c.68.66,1.22,1.33-.82,2.29,3.81,1.54,6.08,3.83,9.08,2.28-4.67-.41-4.86-4.57-8.26-4.56Z"/>
        <path class="cls-2" d="m714.67,478.01c1.88.89,3.91,1.37,6.46.38-1.76-1.24-3.1-3.61-6.46-.38Z"/>
        <path class="cls-2" d="m650.34,439.6c-5.87-2.85-8.19-4.67-13.19-6.78,1.38,3.45,4.59,7.41,10.42,7.63-.65-1.17,1.4-.5,2.77-.85Z"/>
        <path class="cls-2" d="m662.85,429.99c-3.54-1.9-4.89-3.17-11.58.17,4.06-.6,7.47.63,11.58-.17Z"/>
        <path class="cls-2" d="m636.02,429.11c3.73-1.23,6.1,1.36,9.87.01-.59-.67-2.03-1.24-.89-2.09,3.95-.67-.88,4.16,4.54,3.34,2.76-1.58,4.08-3.01,4.03-4.28-3.12-.5-6.3-.79-9.05-2.29-3.2,2.76-2.53,1.69-5.73,4.46-.73-.97-3.19-.38-2.77.86Z"/>
        <path class="cls-2" d="m622.91,426.71c-2.78,6.16-1.24.99,2.59,1.92,2.39.58,1.78,3.9,6.69,2-4.39-1.33-4.02-3.54-9.29-3.92Z"/>
        <path class="cls-2" d="m602.75,411.92c2.55,1.35,8.47,5.21,9.26,3.91-2.75-2.23-5.67-4-9.26-3.91Z"/>
        <path class="cls-2" d="m603.24,399.27c1.73,1.12,4.01.24,3.24,2.39,4.91-2.2.4-5.52-3.24-2.39Z"/>
        <path class="cls-2" d="m618.08,385.59c.4-.89-1.64-5.07-4.95-2.2,3.42.84,2.01,2.5,4.95,2.2Z"/>
        <path class="cls-2" d="m716.61,304.7c-2.57-1.97-6.11-1.27-9.03-2.28,2,1.49,1.7,4.67,5.83,4.28l3.2-2Z"/>
        <path class="cls-2" d="m648.31,309.48c1.19,1.27,2.69,1.63,4.72.58.23-.68-.57-3.82-3.23-2.38.27.52-.14,1.11-1.49,1.8Z"/>
        <path class="cls-2" d="m645.78,311.94c-.27-.52.13-1.11,1.47-1.8-1.93-1.47-3.64-3.52-7.08-.86,3.61.7,2.86,2.87,5.61,2.66Z"/>
        <path class="cls-2" d="m597.85,321.56c.51.68-.16,1.48-.82,2.27,5.07.61,5.93,1.44,10.08,1.64-2.16-2.62-3.58-2.15-4.12-4.47-2.79,3.1-2.84-1.22-5.14.56Z"/>
        <path class="cls-2" d="m682.38,234.66c-1.98-.58-2.76-4.38-6-1.53,2.68,1.35,3.19,2.93,4.1,4.47,9.05-5.93,2.84,5.92,11.79,1.44-2.29-.62-7.52-1.87-2.4-4.65,5.47-.49,4.04,6.57,9.65,2.76-5.38-2.32-7.93-4.44-9.25-8.28-2.02,5.09-6.13,1.43-7.88,5.78Z"/>
        <path class="cls-2" d="m589.37,224.06c-1.84-3.15-6.86,2.28-10.04,2.73.99,1.05,2.62.31,3.65,1.24,3.23-2.7,1.7-3.52,6.4-3.98Z"/>
        <path class="cls-2" d="m522.8,257.54c-2.79-.98,1.68-2.73-1.1-3.71-5.85,2.82-2.24,4.2,1.1,3.71Z"/>
        <path class="cls-2" d="m475.22,252.86c4.42-.54-.69-5.87-3.68-5.61-2.17,2.78-5.87,5.73-6.37,8.35,2.87-1.1,6.16-3.32,8.33-2.55-.7,1.34,4.05,6.72,7.53,4.1-.69-2.23-3.49-2.89-5.81-4.29Z"/>
        <path class="cls-2" d="m582.45,174.01c-.88,1.42.22,5.38,4.1,4.47-1.87-1.12-.91-5.31-4.1-4.47Z"/>
        <path class="cls-2" d="m585.52,145.81c3.13,1.18,6.82.82,10.07,1.64-1.65-2.26-4.35-5-10.07-1.64Z"/>
        <path class="cls-2" d="m734.67,51.52c-2.43,1.36,1.79,1.98,2.15,3.04l3.21-1.99c-1.69-.61-2.43-3.77-5.35-1.05Z"/>
        <path class="cls-2" d="m744.7,44.42c-3.55-1.06.81-2.99-1.74-4.16-4.5.43-2.42,2.57-5.76,4.44,2.21.71,4.44,1.33,7.5-.28Z"/>
        <path class="cls-2" d="m631.05,85.18c-1.64-1.46-.73-3.19-2.37-4.66-4.33,2.58.11,4.18,2.37,4.66Z"/>
        <path class="cls-2" d="m662.36,51.76c-8.45-5.82-4.18-15.92-7.98-20.42-6.43,7.88-3.31,19.3,7.98,20.42Z"/>
        <path class="cls-2" d="m677.84,8.06c-.47-2.67,1.54-5.62-1.09-8.06-2.8,2.39-3.83-.04-6.62,2.35-.94,1.78-4.69,6.66.23,5.98-1.6-.91-1.17-2.06,1.27-3.41,3.75,1.12,1.25,5.31,6.21,3.15Z"/>
        <path class="cls-2" d="m1479.12,639.47c.28.01.56.03.84.05-.11-.14-.21-.28-.32-.41-.18.13-.34.21-.52.37Z"/>
        <path class="cls-2" d="m1471.39,628.41c5.01,3.22,5.71,7.34,8.25,10.69,1.62-1.17,2.84-1.19,4.31-1.9-2.4-2.75-2.87-9.29-12.56-8.8Z"/>
        <path class="cls-2" d="m724.35,425.94l-.9.56c1.39.63,2.79,1.26,4.15,1.81l-3.25-2.38Z"/>
        <path class="cls-2" d="m1464.5,622.18s0,.02-.02.04c.03,0,.05,0,.08,0-.03-.01-.04-.03-.06-.04Z"/>
        <path class="cls-2" d="m687.29,261.45c.12,0,.17.05.26.06-.01-.07-.04-.13-.05-.2l-.22.14Z"/>
        <path class="cls-2" d="m1469.7,628.62c.11-2.2-1.99-4.11-2.83-6.2-.77-.13-1.54-.18-2.31-.21,3.78,1.87,1.27,4.54,5.14,6.4Z"/>
        <path class="cls-2" d="m1556.35,954.63c3.05,1.31,4.65,7.89,6.45,5.77-1.92-1.61-1.28-6.44-6.45-5.77Z"/>
        <path class="cls-2" d="m1440.87,686.01c1.55,2.71,4.76.37,6.72,1.89,5.01,1.43-3.84-4.15-6.72-1.89Z"/>
        <path class="cls-2" d="m1438.4,678.64c2.05,1.24,2.27,5.52,6.63,4.64-4.15-.97-2.9-5.43-6.63-4.64Z"/>
        <path class="cls-2" d="m1387.95,580.88c.74.96-1.54.92-2.35-.26-1.55,1.35-3.67,1.05-3.14,2.03,4.11-1.79.14,1.67.93,2.08,6.63.33,8.82-1.93,4.57-3.85Z"/>
        <path class="cls-2" d="m1357.22,563.34c1.19,2.06,3.4,1.18,5.37.98-.59.38-.65,1.15.65.47.86-2.45-3.18-2.8-6.02-1.45Z"/>
        <path class="cls-2" d="m1537.26,345.88c2.79,1.26,6.27.63,9.38,1.02-.34-.32-.6-.66.41-1.14l-1.3-.93c-4.94,2.53-5.22-1.28-8.49,1.05Z"/>
        <path class="cls-2" d="m1494.87,366.88c.56.7-.76,1.03-2.1,1.35,1.74.43,2.54,3.54,4.94,2.11-1.91-.74-.28-4.6-2.84-3.46Z"/>
        <path class="cls-2" d="m1431.44,298.51c3.7,1.36,3.05,3.07,8.35,1.71-1.47-.73-.25-1.78-1.54-2.53-2.73,2.84-7.04-1.22-6.81.82Z"/>
        <path class="cls-2" d="m768.83,668.29c-1.99.47-1.86.44-8.97,2.12,3.9,1.46,7.87,2.69,13.33-.4-1.53-.33-2.19-3.25-4.36-1.72Z"/>
        <path class="cls-2" d="m788.5,550.49c-1.54-.56-.1-2.22-1.96-1.43.2,2.93-3.98-.89-5.8.1.23,1.86,5.03,4.63,6.31,3.14-2.91-1.89-1.03-1.49,1.45-1.81Z"/>
        <path class="cls-2" d="m720.72,491.06c-5.04-.94-1.15-5.68-4.82-4.95-.19,1.29,1.42,2.4-.56,3.91-3.52-2.01-2-9.18-6.54-4.76,3.59-.72,2.69,3.69,1.4,5.33,3.13-.94,12.66,1.66,10.52.48Z"/>
        <path class="cls-2" d="m711.58,472.87c4.24-1.75-.38-2.52-1.13-3.71-5.23,2.84-12.29,3.52-13.4,7.52,1.9-1.45,2.99-.67,4.5-1.05.71-3.04,7.39-6.29,10.03-2.76Z"/>
        <path class="cls-2" d="m688.99,469.34c1.06-3.12,6.83-3.91,5.47-6.09-2.33-.41-3.02,3.57-6.78,5.14l-2.6-1.91,5.31-3.33c-5.46.48-8.12-3.02-10.93.66.71-1.77-1.87-2.45-4.31-1.72,3.47,4.53,8.83,3.17,10.42,7.62,1.36-.76,2.69-1.43,3.42-.38Z"/>
        <path class="cls-2" d="m615.24,473.08c-.4,1.87,4.4,3.17-2.05,5.71,5.19,3.14,7.26-6.77,2.05-5.71Z"/>
        <path class="cls-2" d="m646.42,420.84c9.01,4.18,2.02-1.96.17-2.76.25.89.33,1.8-.17,2.76Z"/>
        <path class="cls-2" d="m644.46,419.4c-2.74-3.03-6.39-3.55-9.94-4.38-1.66,3.68-5.81,1.1-5.96,2.84,2.29-.31,4.52,1.34,3.91,2.85,3.48-1.05,2.99-2.32,4.89-2.18-2.54,2.38-.41,5.07,2.02,5.81,1.82-1.81,1.02-4.51,5.08-4.95Z"/>
        <path class="cls-2" d="m636.77,406.55c-2.55,1.74-4.33,1.35-6.2,1.23,2.03-1.5-2.57-2.28-1.13-3.71-1.68.1-4.12,2.3-5.12.55-21.86-16.96-31.6-25.71-51.08-40.42-6.82,4.6-1.24-2.22-5.37-1.06-4.33,4.43-1.78,4.78-.56,8.28,4-1.72.53-2.61,2.32-4.08.85.68,1.93.72,3.01.76-5.49,2.2.21,4.37-5.09,4.94,11.58,5.55,25.91,11.63,37.58,23.29,1.8-1.18,3.22-1.34,4.49-1.05-1.09,2.81.71,1.9,3.48,4.01-3.86,1.4-4.33,2.18-4.02,4.27,1.35-.7,2.91-1.96,3.84-1.52,6.31,4.68,21.23,8.85,29.32,8.23-2.15-.33-3.46-2.99-5.47-3.72Z"/>
        <path class="cls-2" d="m643.69,410.18c-.43.07-.97.06-1.45.1.45.07.92.07,1.45-.1Z"/>
        <path class="cls-2" d="m648.93,285.34c-3.48-1.47-6.31-4.76-5.19-8.18,1.66-.83,2.85-.33,4.48-1.04-4.13-3.08-8.96-1.64-15.44-2.68,3.38,1.57,5.19,4.95.03,4.36.67,1.87,1.86,4.01,5.6,2.67.14,3.14-5.52,8.41-1,9.4-1.8,1.2-3.47,1.97-4.91,2.19,2.89,1.07,6.65-.25,9.84.02.81,1.18-3.61,2.95-.6,3.89,7.6-2.9,20.15,9.37,12.12,11.81,7.7,3.46,8.95,11.9,20.04,10.38-.26-.88-.33-1.78.18-2.75,2.65-.53,3.9,2.83,7.08.86-10.62-5.9-21.32-15.79-29.15-21.41,1.57-.55,3.11-1,4.5-1.04,2.18,1.25-1.02,4.97,3.89,2.86-2.13-1.4-1.81-3.08-2.42-4.66-7.81,3.16-8.98-3.99-14.37-3.35,2.22-.26,4.76-1.83,5.32-3.31Z"/>
        <path class="cls-2" d="m708.94,287.5c2.66.39,3.19,4.89,5.64,7.03,2.55-2.83-2.19-4.86-.51-7.6-1.33.32-6.06-.96-5.14.57Z"/>
        <path class="cls-2" d="m618.54,332.43c-5.35-2.01-6.4-4.08-11.86-5.81,4.42,2.98-3.7,1.76-5.54,1.7,5.64.87,10.48,1.69,10.79,6.48,1.49-.89,2.02-1.67,2.54-2.46,1.07.85,2.48.71,4.07.1Z"/>
        <path class="cls-2" d="m599.34,319.76c-1.21-.78-1.78-1.64-1.54-2.57-3.83,1.43-3.86,6.67-2.31,4.08-1.28-1.75,2.65-.31,3.85-1.52Z"/>
        <path class="cls-2" d="m567.76,334.15c-.95-1.52-3.52-2.83-5.4-5.43,1.61-1.08,3.79-2.23,1.92-2.94-8.08,4.16,3.61,6.18-.35,9.88l2.12-1.32c.46.25.93.47,1.71-.19Z"/>
        <path class="cls-2" d="m483,365.82c-1.54-1.29-.31-2.88-.04-4.37,1.22-.02,7-1.61,5.97-2.84-4.82,1.43-3.49-.98-7.5.26,1.17.79.84,1.73-.18,2.76-3.52-.6-2.41-1.45-4.54-3.33-2.16,1.14-1.62,2-3.62,3.13-.69-2.62-5.85-1.39-8.37-1.84,2.18,1.22-.42,2.97,1.75,4.19,6.03-1.33,6.66.78,12.03,3.07,1.91-1.45,2.99-.68,4.5-1.04Z"/>
        <path class="cls-2" d="m695.59,225.56c.62,1.94-1.16,4.14.25,5.99,2.3-1.17,1.26-1.96,1.91-2.94.35.27,1.59,0,1.07-.67-2.2,1.71-1.89-5.64-3.23-2.38Z"/>
        <path class="cls-2" d="m649.44,236.27c.35-.73,4.37-2.05,5.11-1.84-.68,3.23,12.6,3.43,4.73,4.94,1.98,2.08,5.21.76,8.15.2-7.61-2.48-10.47-7.44-17.83-7.34,4.98-7.64-16.35-8.29-3.75-14.34-6.05-.54-4.15-2.01-7.11-5.23-2.24,1.64-4.15,2.37-5.55,1.69-.8-2.95-1.51-4.87-4.97-6.56,4.12-3.04,1.62-7.7-1.74-4.18,7.06-.61-2.9,3.13-2.33,4.08,3.61,1.24,1.16,7.31,7.97,7.32.23,1.07-4,2.63-2.99,3.61,7.8-3.27,1.82,4.87,10.09,1.62-.85,5.84,8.65,12.72,10.19,16.02Z"/>
        <path class="cls-2" d="m554.41,276.53c4.16.62,8.65.34,12.04,3.06,2.83-1.4,1.13-2.31,4.66-3.78,1.66,1.5,3.57,2.24,6.02,1.52-3.48-3.2-9.18-.35-13.08-2.4,4.34-1.99,3.92-4.3.6-3.89-4.79,1.61,1.56,2.02-1.25,3.42-1.12-.69-3.23,1.32-4.08-.1,7.15-2.62-5.78-3.73-2.84-7.9,2.06-1.16,3.98-1.9,5.56-1.7,3.23,4.4,4.63.49,8.78.69,2.54,1.18-1.16,3.04.05,4.37,5.76-3.06,9.09-.42,10.72,2.11,8.9,1.91,24.02-1.26,29.78,1.67-3.43-4.51-12.48-5.12-8.02-11.7,4.47-.42,2.77,2.91,5.82,4.29,2.44-2.15,3.44-.39,5.57-1.7-3.01-.99-13.01-7.2-3.09-9.51-3.3-1.15-1.55-3.71-4.51-3.34-5.48,2.06,3.17,2.57.02,4.38-7.32-1.61-12.6.98-19.05.43,2.45,4.52,11.05,1.67,11.6,4.21-22.62,2.15-27.29-21.31-41.54-27.74,1.07.91-5.61-.17-5.59-2.67-4.56,5.5.76,11.99-3.75,18.99,2.42,2.28,2.49,4.83.5,7.6,1.04.88,2.26,1.33,3.65,1.25-7.82,6.18,9.44,15.69,1.42,18.44Z"/>
        <path class="cls-2" d="m670.95,223.35c-3.47.87-3.35.23-5.98,2.84,2.99.32.75,3.79,3.22,2.38-2.49-2.39,1.25-3.37,2.75-5.23Z"/>
        <path class="cls-2" d="m632.69,202.4c1.07,3.39,4.22,5.41,6.26,7.5,3.43-2.76-5.65-7-6.26-7.5Z"/>
        <path class="cls-2" d="m583.19,229.65c-.05,3.47,4.76,6.4,8.85,9.42-1.73-3.54.88-14.77-8.85-9.42Z"/>
        <path class="cls-2" d="m822.83,65.86c5.09-2.1,1.79-8.17,1.46-6.16,1.1,1.88-4.49,4.49-1.46,6.16Z"/>
        <path class="cls-2" d="m560.61,385.31c3.35-7.26.78-17.73-13.08-18.29-7.89,5.81-13.8,6.23-19.04,4.81,5.52-3.16.1-5.12,2.91-7.99-4.36,3.03-5.25.13-7.25,1.89,1.16-1.22,1.58-2.37,1.24-3.42-5.07,3.41-7.35-.88-10.72-2.12-3.92,2.52-2.3,2.43-6.39,3.98-.37,4.33,5.8,9.31,6.34,11.9,11.66.72,5.15,16.22,15.69,20.2,7.06,2.67,19.25-1.2,30.32-10.97Z"/>
        <path class="cls-2" d="m1507.19,1228.5c-2.65,2.1.17-3.45-3.68-1.18.82,1.17-1.79,2.77,1.2,3.68,1.14-.88,3.08-1.85,2.48-2.5Z"/>
        <path class="cls-2" d="m1503.94,1209.19l-3.14,2.04c-.8,2.16,3.12,1,5.39.97.11-1.1-.39-2.14-2.25-3Z"/>
        <path class="cls-2" d="m1473.92,1213.49c2.44,1.75,8.6,4.99,9.34,3.76-2.84-2.06-5.56-4.45-9.34-3.76Z"/>
        <path class="cls-2" d="m1485.39,1198.93c-2.78-1.41-6.41-.35-9.84.13,2.46,2.39,6.24.87,9.84-.13Z"/>
        <path class="cls-2" d="m1468.85,1197.16c.72-1.9-2.44-3.01-5.01-2.1.35.31.63.65-.38,1.14-.6.44-1.14.87-.39,1.14,2.34-1.27,3.44,1.09,5.78-.18Z"/>
        <path class="cls-2" d="m1428.15,1175.37c.27,1.51,4.68,7.44,8.92,4.92-4.53.21-6.37-5.15-8.92-4.92Z"/>
        <path class="cls-2" d="m1546.61,896.51c-.41-2.47-3.46-1.57-6.63-1.91,1.86,1.58,3.85,2.84,6.63,1.91Z"/>
        <path class="cls-2" d="m1508.6,904.91c-.54-.7.77-1.03,2.1-1.34-1.72-1.23-3.21-3.12-5.97-1.46,4.92.51.23,3.14,3.87,2.8Z"/>
        <path class="cls-2" d="m1520.39,894.79c.31-1.52-3.5-5.32-6.45-4.66-.31,1.53,3.48,5.33,6.45,4.66Z"/>
        <path class="cls-2" d="m1504.08,901.64c-.27-.51.12-1.09,1.46-1.81-3.33.22-5.09-3.94-8.57-3.32,2.96,2.15,4.04,4.43,7.1,5.13Z"/>
        <path class="cls-2" d="m864.06,1139.87c.68.66,1.22,1.33-.82,2.29,3.81,1.54,6.08,3.83,9.08,2.28-4.67-.41-4.86-4.57-8.26-4.56Z"/>
        <path class="cls-2" d="m798.59,1095.01c1.88.89,3.91,1.37,6.46.38-1.76-1.24-3.1-3.61-6.46-.38Z"/>
        <path class="cls-2" d="m734.25,1056.6c-5.87-2.85-8.19-4.67-13.19-6.78,1.38,3.45,4.59,7.41,10.42,7.63-.65-1.17,1.4-.5,2.77-.85Z"/>
        <path class="cls-2" d="m746.76,1047c-3.54-1.9-4.89-3.17-11.58.17,4.06-.6,7.47.63,11.58-.17Z"/>
        <path class="cls-2" d="m719.94,1046.11c3.73-1.23,6.1,1.36,9.87.01-.59-.67-2.03-1.24-.89-2.09,3.95-.67-.88,4.16,4.54,3.34,2.76-1.58,4.08-3.01,4.03-4.28-3.12-.5-6.3-.79-9.05-2.29-3.2,2.76-2.53,1.69-5.73,4.46-.73-.97-3.19-.38-2.77.86Z"/>
        <path class="cls-2" d="m706.82,1043.71c-2.78,6.17-1.24.99,2.59,1.92,2.38.58,1.78,3.9,6.69,2-4.39-1.33-4.02-3.54-9.29-3.92Z"/>
        <path class="cls-2" d="m686.67,1028.93c2.55,1.35,8.47,5.21,9.26,3.91-2.75-2.23-5.67-4-9.26-3.91Z"/>
        <path class="cls-2" d="m687.15,1016.27c1.73,1.12,4.01.24,3.24,2.39,4.91-2.2.4-5.52-3.24-2.39Z"/>
        <path class="cls-2" d="m701.99,1002.59c.4-.89-1.64-5.07-4.95-2.2,3.42.84,2.01,2.5,4.95,2.2Z"/>
        <path class="cls-2" d="m800.53,921.7c-2.57-1.97-6.11-1.27-9.03-2.28,2,1.49,1.7,4.67,5.83,4.28l3.2-2Z"/>
        <path class="cls-2" d="m732.22,926.48c1.19,1.27,2.69,1.63,4.72.58.23-.67-.57-3.82-3.23-2.38.27.52-.14,1.11-1.49,1.8Z"/>
        <path class="cls-2" d="m729.69,928.94c-.27-.52.13-1.11,1.47-1.8-1.93-1.47-3.64-3.52-7.08-.86,3.61.7,2.86,2.87,5.61,2.66Z"/>
        <path class="cls-2" d="m681.76,938.56c.51.68-.16,1.48-.82,2.27,5.07.61,5.93,1.44,10.08,1.64-2.16-2.62-3.58-2.15-4.12-4.47-2.79,3.1-2.84-1.22-5.14.56Z"/>
        <path class="cls-2" d="m766.29,851.67c-1.98-.58-2.76-4.38-6-1.53,2.68,1.35,3.19,2.93,4.1,4.47,9.05-5.93,2.84,5.92,11.79,1.44-2.29-.62-7.52-1.87-2.4-4.65,5.47-.49,4.04,6.57,9.65,2.76-5.38-2.32-7.93-4.43-9.25-8.28-2.02,5.09-6.13,1.43-7.88,5.78Z"/>
        <path class="cls-2" d="m673.28,841.06c-1.84-3.15-6.86,2.28-10.04,2.73.99,1.05,2.62.31,3.65,1.24,3.23-2.7,1.7-3.52,6.4-3.98Z"/>
        <path class="cls-2" d="m606.71,874.54c-2.79-.98,1.68-2.73-1.1-3.71-5.85,2.82-2.24,4.2,1.1,3.71Z"/>
        <path class="cls-2" d="m559.14,869.86c4.42-.54-.69-5.87-3.68-5.61-2.17,2.78-5.87,5.73-6.37,8.35,2.87-1.1,6.16-3.32,8.33-2.55-.7,1.34,4.05,6.72,7.53,4.1-.69-2.23-3.49-2.89-5.81-4.29Z"/>
        <path class="cls-2" d="m666.37,791.01c-.88,1.42.22,5.38,4.1,4.47-1.87-1.12-.91-5.31-4.1-4.47Z"/>
        <path class="cls-2" d="m669.44,762.81c3.13,1.18,6.82.82,10.07,1.64-1.65-2.26-4.35-5-10.07-1.64Z"/>
        <path class="cls-2" d="m820.73,671.56l3.21-1.99c-1.69-.61-2.43-3.77-5.35-1.05-2.43,1.35,1.79,1.98,2.15,3.04Z"/>
        <path class="cls-2" d="m828.62,661.42c-3.55-1.06.81-3-1.74-4.16-4.5.43-2.42,2.57-5.76,4.44,2.21.71,4.44,1.33,7.5-.28Z"/>
        <path class="cls-2" d="m714.96,702.18c-1.64-1.46-.73-3.19-2.37-4.65-4.33,2.58.11,4.18,2.37,4.65Z"/>
        <path class="cls-2" d="m746.28,668.76c-8.45-5.82-4.18-15.92-7.98-20.42-6.43,7.88-3.31,19.3,7.98,20.42Z"/>
        <path class="cls-2" d="m761.75,625.06c-.47-2.67,1.54-5.62-1.09-8.06-2.8,2.39-3.83-.04-6.62,2.35-.94,1.78-4.69,6.66.23,5.98-1.6-.91-1.17-2.06,1.27-3.41,3.75,1.12,1.25,5.31,6.21,3.15Z"/>
        <path class="cls-2" d="m808.26,1042.94l-.9.56c1.39.63,2.79,1.26,4.15,1.81l-3.25-2.38Z"/>
        <path class="cls-2" d="m771.21,878.45c.12,0,.17.05.26.06-.01-.07-.04-.13-.05-.2l-.22.14Z"/>
        <path class="cls-2" d="m1548.41,1239.19s0,.02-.02.04c.03,0,.05,0,.08,0-.03-.01-.04-.03-.06-.04Z"/>
        <path class="cls-2" d="m1563.03,1256.47c.28.01.56.03.84.05-.11-.14-.21-.28-.32-.41-.18.13-.34.21-.52.37Z"/>
        <path class="cls-2" d="m1553.61,1245.63c.11-2.2-1.99-4.11-2.83-6.2-.77-.13-1.54-.18-2.31-.21,3.78,1.87,1.27,4.54,5.14,6.4Z"/>
        <path class="cls-2" d="m1555.31,1245.41c5.01,3.22,5.71,7.34,8.25,10.69,1.62-1.17,2.84-1.19,4.31-1.9-2.4-2.75-2.87-9.29-12.56-8.8Z"/>
        <path class="cls-2" d="m1524.78,1303.01c1.55,2.71,4.76.37,6.72,1.89,5.01,1.43-3.84-4.15-6.72-1.89Z"/>
        <path class="cls-2" d="m1522.31,1295.64c2.05,1.24,2.27,5.52,6.63,4.64-4.15-.97-2.9-5.43-6.63-4.64Z"/>
        <path class="cls-2" d="m1471.86,1197.88c.74.96-1.54.92-2.35-.26-1.55,1.35-3.67,1.05-3.14,2.03,4.11-1.79.14,1.67.93,2.08,6.63.33,8.82-1.93,4.57-3.85Z"/>
        <path class="cls-2" d="m1441.14,1180.34c1.19,2.06,3.4,1.18,5.37.98-.59.38-.65,1.15.65.47.86-2.45-3.18-2.8-6.02-1.45Z"/>
        <path class="cls-2" d="m1559.51,944.39c-3.66-1.1-6.55-4.4-10.51-4.69-.16,3.89,6.83,4.31,10.51,4.69Z"/>
        <path class="cls-2" d="m1554.67,935.2c-6.69,3.53,1.74,3.59,3.07,5.06,1.46-1.09,4.11-2.31,3.57-3.16-6.26,4.01-5.33.07-6.64-1.9Z"/>
        <path class="cls-2" d="m1559.51,905.82c-.27-.52.12-1.1,1.46-1.81-4.32-.61-3.77-4.28-7.51-3.98.09,2.91.64,6.16,6.05,5.79Z"/>
        <path class="cls-2" d="m1515.36,915.51c3.7,1.36,3.05,3.07,8.35,1.71-1.47-.73-.25-1.78-1.54-2.53-2.73,2.84-7.04-1.22-6.81.82Z"/>
        <path class="cls-2" d="m1510.01,898.76c-4.55-2.11-7.37-7.61-15.21-5.24,7.42-.52,9.26,5.48,15.21,5.24Z"/>
        <path class="cls-2" d="m1513.68,888.53c.53-1.49-1-2.62-3.62-1.19.66.64,1.21,1.3-.84,2.28l-1.27-.94c-4.58,2.67,3.67,1.42,5.74-.15Z"/>
        <path class="cls-2" d="m852.74,1285.29c-1.99.47-1.86.44-8.97,2.12,3.9,1.46,7.87,2.69,13.33-.4-1.53-.33-2.19-3.25-4.36-1.72Z"/>
        <path class="cls-2" d="m872.41,1167.5c-1.54-.56-.1-2.22-1.96-1.43.2,2.93-3.98-.89-5.8.1.23,1.86,5.03,4.63,6.31,3.14-2.91-1.89-1.03-1.49,1.45-1.81Z"/>
        <path class="cls-2" d="m804.64,1108.06c-5.04-.94-1.15-5.68-4.82-4.95-.19,1.29,1.42,2.4-.56,3.91-3.52-2.01-2-9.18-6.54-4.76,3.59-.72,2.69,3.69,1.4,5.33,3.13-.94,12.66,1.66,10.52.48Z"/>
        <path class="cls-2" d="m795.49,1089.87c4.24-1.75-.38-2.52-1.13-3.71-5.23,2.84-12.29,3.52-13.4,7.52,1.9-1.45,2.99-.67,4.5-1.05.71-3.04,7.39-6.29,10.03-2.76Z"/>
        <path class="cls-2" d="m772.9,1086.34c1.06-3.12,6.83-3.91,5.47-6.09-2.33-.41-3.02,3.57-6.78,5.14l-2.6-1.91,5.31-3.33c-5.46.48-8.12-3.01-10.93.66.71-1.77-1.87-2.45-4.31-1.72,3.47,4.53,8.83,3.17,10.42,7.62,1.36-.76,2.69-1.43,3.42-.38Z"/>
        <path class="cls-2" d="m699.16,1090.08c-.4,1.87,4.4,3.17-2.05,5.71,5.19,3.14,7.26-6.77,2.05-5.71Z"/>
        <path class="cls-2" d="m730.34,1037.84c9.01,4.18,2.02-1.96.17-2.76.25.89.33,1.8-.17,2.76Z"/>
        <path class="cls-2" d="m728.38,1036.4c-2.74-3.03-6.39-3.55-9.94-4.38-1.66,3.68-5.81,1.1-5.96,2.84,2.29-.31,4.52,1.34,3.91,2.85,3.48-1.05,2.99-2.32,4.89-2.18-2.54,2.38-.41,5.07,2.02,5.81,1.82-1.81,1.02-4.51,5.08-4.95Z"/>
        <path class="cls-2" d="m727.6,1027.18c-.43.07-.97.06-1.45.1.45.07.92.07,1.45-.1Z"/>
        <path class="cls-2" d="m720.68,1023.55c-2.55,1.74-4.33,1.35-6.2,1.23,2.03-1.5-2.57-2.28-1.13-3.71-1.68.1-4.12,2.3-5.12.55-21.86-16.96-31.6-25.71-51.08-40.42-6.82,4.6-1.24-2.22-5.37-1.06-4.33,4.43-1.78,4.78-.56,8.28,4-1.72.53-2.61,2.32-4.08.85.68,1.93.72,3.01.76-5.49,2.2.21,4.37-5.09,4.94,11.58,5.55,25.91,11.63,37.58,23.29,1.8-1.18,3.22-1.34,4.49-1.05-1.09,2.81.71,1.9,3.48,4.01-3.86,1.4-4.33,2.18-4.02,4.27,1.35-.7,2.91-1.96,3.84-1.52,6.31,4.68,21.23,8.85,29.32,8.23-2.15-.33-3.46-2.99-5.47-3.72Z"/>
        <path class="cls-2" d="m732.85,902.34c-3.48-1.47-6.31-4.76-5.19-8.18,1.66-.83,2.85-.33,4.48-1.04-4.13-3.08-8.96-1.64-15.44-2.68,3.38,1.57,5.19,4.95.03,4.36.67,1.87,1.86,4.01,5.6,2.67.14,3.14-5.52,8.41-1,9.4-1.8,1.2-3.47,1.97-4.91,2.19,2.89,1.07,6.65-.25,9.84.02.81,1.18-3.61,2.95-.6,3.89,7.6-2.9,20.15,9.37,12.12,11.81,7.7,3.46,8.95,11.9,20.04,10.38-.26-.88-.33-1.78.18-2.75,2.65-.53,3.9,2.83,7.08.86-10.62-5.9-21.32-15.79-29.15-21.41,1.57-.55,3.11-1,4.5-1.04,2.18,1.25-1.02,4.97,3.89,2.86-2.13-1.4-1.81-3.08-2.42-4.66-7.81,3.16-8.98-3.99-14.37-3.35,2.22-.26,4.76-1.83,5.32-3.31Z"/>
        <path class="cls-2" d="m792.86,904.5c2.66.39,3.19,4.89,5.64,7.04,2.55-2.83-2.19-4.86-.51-7.6-1.33.32-6.06-.96-5.14.57Z"/>
        <path class="cls-2" d="m702.46,949.43c-5.35-2.01-6.4-4.08-11.86-5.81,4.42,2.98-3.7,1.76-5.54,1.7,5.64.87,10.48,1.69,10.79,6.48,1.49-.89,2.02-1.67,2.54-2.46,1.07.85,2.48.71,4.07.1Z"/>
        <path class="cls-2" d="m683.26,936.76c-1.21-.78-1.78-1.64-1.53-2.57-3.83,1.43-3.86,6.67-2.31,4.08-1.28-1.75,2.65-.31,3.85-1.52Z"/>
        <path class="cls-2" d="m651.68,951.15c-.95-1.52-3.52-2.83-5.4-5.43,1.61-1.08,3.79-2.23,1.92-2.94-8.08,4.16,3.61,6.18-.35,9.88l2.12-1.32c.46.25.93.47,1.71-.19Z"/>
        <path class="cls-2" d="m566.91,982.82c-1.54-1.29-.31-2.88-.04-4.37,1.22-.02,7-1.61,5.97-2.84-4.82,1.43-3.49-.98-7.5.26,1.17.79.84,1.73-.18,2.76-3.52-.6-2.41-1.45-4.54-3.33-2.16,1.14-1.62,2-3.62,3.13-.69-2.62-5.85-1.39-8.37-1.84,2.18,1.22-.42,2.97,1.75,4.19,6.03-1.33,6.66.78,12.03,3.07,1.91-1.45,2.99-.68,4.5-1.04Z"/>
        <path class="cls-2" d="m779.5,842.56c.62,1.94-1.16,4.14.25,5.99,2.3-1.17,1.26-1.96,1.91-2.94.35.27,1.59,0,1.07-.67-2.2,1.71-1.89-5.64-3.23-2.38Z"/>
        <path class="cls-2" d="m733.35,853.27c.35-.73,4.37-2.05,5.11-1.84-.68,3.23,12.6,3.43,4.73,4.94,1.98,2.08,5.21.76,8.15.2-7.61-2.48-10.47-7.44-17.83-7.34,4.98-7.64-16.35-8.29-3.75-14.34-6.05-.54-4.15-2.01-7.11-5.23-2.24,1.64-4.15,2.37-5.55,1.69-.8-2.95-1.51-4.87-4.97-6.56,4.12-3.04,1.62-7.7-1.74-4.18,7.06-.61-2.9,3.13-2.33,4.08,3.61,1.24,1.16,7.31,7.97,7.32.23,1.07-4,2.63-2.99,3.61,7.8-3.27,1.82,4.87,10.09,1.62-.85,5.84,8.65,12.72,10.19,16.02Z"/>
        <path class="cls-2" d="m638.33,893.53c4.16.62,8.65.34,12.04,3.06,2.83-1.4,1.13-2.31,4.66-3.78,1.66,1.5,3.57,2.24,6.02,1.52-3.48-3.2-9.18-.35-13.08-2.4,4.34-1.99,3.92-4.3.6-3.9-4.79,1.61,1.56,2.02-1.25,3.42-1.12-.69-3.23,1.32-4.08-.1,7.15-2.62-5.78-3.73-2.84-7.9,2.06-1.16,3.98-1.9,5.56-1.7,3.23,4.4,4.63.49,8.78.69,2.54,1.18-1.16,3.04.05,4.37,5.76-3.06,9.09-.42,10.72,2.11,8.9,1.91,24.02-1.26,29.78,1.67-3.43-4.51-12.48-5.12-8.02-11.7,4.47-.42,2.77,2.91,5.82,4.29,2.44-2.15,3.44-.39,5.57-1.7-3.01-.99-13.01-7.2-3.09-9.51-3.3-1.15-1.55-3.71-4.51-3.34-5.48,2.06,3.17,2.57.02,4.38-7.32-1.61-12.6.98-19.05.43,2.45,4.52,11.05,1.67,11.6,4.21-22.62,2.15-27.29-21.31-41.54-27.74,1.07.91-5.61-.17-5.59-2.67-4.56,5.5.76,11.99-3.75,18.99,2.42,2.28,2.49,4.83.5,7.6,1.04.88,2.26,1.33,3.65,1.25-7.82,6.18,9.44,15.69,1.42,18.44Z"/>
        <path class="cls-2" d="m754.87,840.35c-3.47.87-3.35.23-5.98,2.84,2.99.32.75,3.79,3.22,2.38-2.49-2.39,1.25-3.37,2.75-5.23Z"/>
        <path class="cls-2" d="m716.61,819.4c1.07,3.39,4.22,5.41,6.26,7.5,3.43-2.76-5.65-7-6.26-7.5Z"/>
        <path class="cls-2" d="m667.11,846.65c-.05,3.47,4.76,6.4,8.85,9.42-1.73-3.54.88-14.77-8.85-9.42Z"/>
        <path class="cls-2" d="m906.75,682.86c5.09-2.1,1.79-8.17,1.46-6.16,1.1,1.88-4.49,4.49-1.46,6.16Z"/>
        <path class="cls-2" d="m644.53,1002.31c3.35-7.26.78-17.73-13.08-18.29-7.89,5.81-13.8,6.23-19.04,4.81,5.51-3.16.1-5.12,2.91-7.99-4.36,3.03-5.25.13-7.25,1.89,1.16-1.22,1.58-2.37,1.24-3.42-5.07,3.41-7.35-.88-10.72-2.12-3.92,2.52-2.3,2.43-6.39,3.98-.37,4.33,5.8,9.31,6.34,11.9,11.66.72,5.15,16.22,15.69,20.2,7.06,2.67,19.25-1.2,30.32-10.97Z"/>
        <path class="cls-2" d="m850.21,1468.67c-1.98-.58-2.76-4.38-6-1.53,2.68,1.35,3.19,2.93,4.1,4.47,9.05-5.93,2.84,5.92,11.79,1.44-2.29-.62-7.52-1.87-2.4-4.65,5.47-.49,4.04,6.57,9.65,2.76-5.38-2.32-7.93-4.43-9.25-8.28-2.02,5.09-6.13,1.43-7.88,5.78Z"/>
        <path class="cls-2" d="m757.2,1458.06c-1.84-3.15-6.86,2.28-10.04,2.73.99,1.05,2.62.31,3.65,1.24,3.23-2.7,1.7-3.52,6.4-3.98Z"/>
        <path class="cls-2" d="m690.63,1491.54c-2.79-.98,1.68-2.73-1.1-3.71-5.85,2.82-2.24,4.2,1.1,3.71Z"/>
        <path class="cls-2" d="m643.05,1486.86c4.42-.54-.69-5.87-3.68-5.61-2.17,2.78-5.87,5.73-6.37,8.35,2.87-1.1,6.16-3.32,8.33-2.55-.7,1.34,4.05,6.72,7.53,4.1-.69-2.23-3.49-2.89-5.81-4.29Z"/>
        <path class="cls-2" d="m750.28,1408.01c-.88,1.42.22,5.38,4.1,4.47-1.87-1.12-.91-5.31-4.1-4.47Z"/>
        <path class="cls-2" d="m753.35,1379.81c3.13,1.18,6.82.82,10.07,1.64-1.65-2.26-4.35-5-10.07-1.64Z"/>
        <path class="cls-2" d="m904.65,1288.56l3.21-1.99c-1.69-.6-2.43-3.77-5.35-1.05-2.43,1.35,1.79,1.98,2.15,3.04Z"/>
        <path class="cls-2" d="m912.53,1278.42c-3.55-1.06.81-3-1.74-4.16-4.5.43-2.42,2.57-5.77,4.44,2.21.71,4.44,1.33,7.5-.28Z"/>
        <path class="cls-2" d="m798.88,1319.18c-1.64-1.46-.73-3.19-2.37-4.66-4.33,2.58.11,4.18,2.37,4.66Z"/>
        <path class="cls-2" d="m830.2,1285.77c-8.45-5.82-4.18-15.92-7.98-20.42-6.43,7.88-3.31,19.3,7.98,20.42Z"/>
        <path class="cls-2" d="m845.67,1242.06c-.47-2.67,1.54-5.62-1.09-8.06-2.8,2.39-3.83-.04-6.62,2.35-.94,1.78-4.69,6.66.23,5.98-1.6-.91-1.17-2.06,1.27-3.41,3.75,1.12,1.25,5.31,6.21,3.15Z"/>
        <path class="cls-2" d="m855.12,1495.45c.12,0,.17.05.26.06-.01-.07-.04-.13-.05-.2l-.22.14Z"/>
        <path class="cls-2" d="m815.63,1518.79h-10.94c.77-1.51,1.62-3.08,1.56-4.32-3.74,1.34-4.93-.8-5.6-2.66,5.15.58,3.34-2.8-.04-4.37,6.48,1.04,11.31-.4,15.44,2.68-1.63.71-2.82.21-4.48,1.04-1,3.04,1.12,5.99,4.06,7.63Z"/>
        <path class="cls-2" d="m863.42,1459.56c.62,1.94-1.16,4.14.25,5.99,2.3-1.17,1.26-1.96,1.91-2.94.35.27,1.59,0,1.07-.67-2.2,1.71-1.89-5.64-3.23-2.38Z"/>
        <path class="cls-2" d="m817.27,1470.27c.35-.73,4.37-2.05,5.11-1.84-.68,3.23,12.6,3.43,4.73,4.94,1.98,2.08,5.21.76,8.15.2-7.61-2.48-10.47-7.44-17.83-7.34,4.98-7.64-16.35-8.29-3.75-14.34-6.05-.54-4.15-2.01-7.11-5.23-2.24,1.64-4.15,2.37-5.55,1.69-.8-2.95-1.51-4.87-4.97-6.56,4.12-3.04,1.62-7.7-1.74-4.18,7.06-.61-2.9,3.13-2.33,4.08,3.61,1.24,1.16,7.31,7.97,7.32.23,1.07-4,2.63-2.99,3.61,7.8-3.27,1.82,4.87,10.09,1.62-.85,5.84,8.65,12.72,10.19,16.02Z"/>
        <path class="cls-2" d="m722.25,1510.53c4.16.62,8.65.34,12.04,3.06,2.83-1.4,1.13-2.31,4.66-3.78,1.66,1.5,3.57,2.25,6.02,1.52-3.48-3.2-9.18-.35-13.08-2.4,4.34-1.99,3.92-4.3.6-3.89-4.79,1.61,1.56,2.02-1.25,3.42-1.12-.69-3.23,1.32-4.08-.1,7.15-2.62-5.78-3.73-2.84-7.9,2.06-1.16,3.98-1.9,5.56-1.7,3.23,4.4,4.63.49,8.78.69,2.54,1.18-1.16,3.04.05,4.37,5.76-3.06,9.09-.42,10.72,2.11,8.9,1.91,24.02-1.26,29.78,1.67-3.43-4.51-12.48-5.12-8.02-11.7,4.47-.42,2.77,2.91,5.82,4.29,2.44-2.15,3.44-.39,5.57-1.7-3.01-.99-13.01-7.2-3.09-9.51-3.3-1.15-1.55-3.71-4.51-3.34-5.48,2.06,3.17,2.57.02,4.38-7.32-1.61-12.6.98-19.05.43,2.45,4.52,11.05,1.67,11.6,4.22-22.62,2.15-27.29-21.31-41.54-27.74,1.07.91-5.61-.17-5.59-2.67-4.56,5.5.76,11.99-3.75,18.99,2.42,2.28,2.49,4.83.5,7.6,1.04.88,2.26,1.33,3.65,1.25-7.82,6.18,9.44,15.69,1.42,18.44Z"/>
        <path class="cls-2" d="m838.78,1457.35c-3.47.87-3.35.23-5.98,2.84,2.99.32.75,3.79,3.22,2.38-2.49-2.39,1.25-3.37,2.75-5.23Z"/>
        <path class="cls-2" d="m800.53,1436.4c1.07,3.39,4.22,5.41,6.26,7.5,3.43-2.76-5.65-7-6.26-7.5Z"/>
        <path class="cls-2" d="m751.02,1463.65c-.05,3.47,4.76,6.4,8.85,9.42-1.73-3.54.88-14.77-8.85-9.42Z"/>
        <path class="cls-2" d="m990.66,1299.86c5.09-2.1,1.79-8.17,1.46-6.16,1.1,1.88-4.49,4.49-1.46,6.16Z"/>
        <path class="cls-2" d="m1563.87,1256.52c.52.63,1.09,1.24,1.81,1.8-4.01,1.63-3.07,1.59-4.54,3.86,3.27.93,4.23-5.16,7.94-4.29-1.34,1.8,2.77,2.35,5.09,4.11v-7.02c-3.25,2.11-6.73,1.74-10.3,1.54Zm-873.65,240.54c3.53,6.74,8.35,6.73,8.9,13.79,5.5,1.39,9.19,4.47,12.48,7.94h1.85c-7.87-7.83-16.01-16.98-23.23-21.73Zm140.13,7.68c2.82-1.41,1.13-2.32,4.68-3.8-8.28-2.6-10.3-8.53-10.59-13.6-7.91,4.1-3.12-5.49-8.83-5.05,1.28-1.13,1.04-1.69,3.21-1.99-11.67.55-1.38-10.32-11.02-12.45,1.99,2.51-8.18,1.85-2.74,5.21,3.3-.85,2.35-3.71,4.27-2.66-6.66,3.9.02,7.02-3.56,11.88,9.56-1.05,7.42,5.2,12.28,9.04-1.58,1.66-6.96,6.54-2.1,5.69-3.15-1.61,4.27-1.97,5.98-2.84,3.79,2.69,3.78,7.28,6.07,10.27-6.12,2.22-4.36,1.28-6-1.53-3.93,2.52-2.32,2.43-6.41,3.99,1.63,3.03,5.08,1.1,7.72,1.34-7.61,3.55,3.5,6.84,3.42,10.55,0,.19-.03.38-.1.57.31-.22.61-.41.9-.57,1.76-.98,3.17-.98,4.2,0h8.94c-2.47-4.24-2.67-10.35-10.32-14.05Zm743.82-715.91v.32c.22-.08.41-.17.58-.29-.2,0-.39,0-.58-.03Zm4.7,718.96c-2.34-.06-3.6-.75-4.7-1.5v4.19c.16.01.32.01.48,0-1.4-1.36,2.71-.51,4.22-2.68Zm-6.44-32.67c.6.14,1.18.26,1.74.37v-1.53l-1.74,1.16Zm-8.34,26.3c.21-.29.38-.57.51-.83-.17.25-.34.52-.51.83Zm-83.91-617c.21-.29.38-.57.51-.83-.17.25-.34.52-.51.83Zm-600.49,629.12c.32-.15.61-.32.87-.51-.2.07-.47.23-.87.51Zm-83.92-617.01c.32-.15.61-.32.87-.51-.2.07-.47.23-.87.51Zm-83.91-617c.32-.15.61-.32.87-.51-.2.07-.47.23-.87.51Z"/>
      </g>
      <g>
        <path class="cls-3" d="m94.42,42.45c7.31-2.7,2.33-10.66,9.55-20.44,4.48.63,8.93,1.25,13.46,1.88-10.65,16.03-3.64,16.79-17.15,36.78,1.62,5.72,3.44,11.2,3.93,18.03-7.26,7.27-4.99,10.21-9.56,20.47-6.44.22-18.53,26.53-19.08,32.15,4.48-3.12,8.93-5.23,13.38-15.51,3.45,13.72,12.44.77,24.93-18.24.69-5.81-1.32-8.9-1.98-13.37,17.53-4.55,25.17-41.1,40.23-51.07.32-3.66.09-8.24-.7-12.08h-12.09c-.24.46-.47.94-.72,1.44-.59-.28-.95-.78-1.14-1.44h-51.2c-.81,2.12-1.28,4.34-1.52,6.91,9.56-8.87,13.22,1.33,9.67,14.47Z"/>
        <path class="cls-3" d="m15.56,31.15c3.92,1.77-.65,11.48-5.65,16.53,3.97,3.91,3.75,8.6,15.37,2.2-3.69-10.89,9.24-12.05,11.37-28.74.86.44,1.73.38,2.59-.08H0v57.28c1.77-2.28,3.35-4.36,4.35-5.48-1.95-11.68,4.45-25.9,11.22-41.72Z"/>
        <path class="cls-3" d="m48.34,44.51c3.17-2.89,6.34-3.73,9.55-2.92,3.67-7.31,1.66-8.97,5.68-16.59,2.48,1.08,4.95-.49,7.42-3.93h-27.11c3.89,7.77,8.86,11.45,4.45,23.44Z"/>
        <path class="cls-3" d="m22.03,175.81c-5.75-9.67-7.11-15.71-13.5-23.89-2.82,10.12-5.68,6.34-8.53,9.41v41.66c3.39.46,3.4,4.25,0,11.42v21c.3-.52.61-1.05.91-1.61,6.5-16.29,4.03-38.53,21.12-58Z"/>
        <path class="cls-3" d="m595.44,1483.76c4.35-12.54,19.48-26.52,7.49-27.21-4.05,10.41-15.27,27.24-7.49,27.21Z"/>
        <path class="cls-3" d="m793.55,1169.48c4.7-10.69,10.64-22.49,4.26-22.94-4.45,10.4-8.52,20.51-4.26,22.94Z"/>
        <path class="cls-3" d="m825.02,1108.8l9.57-17.31c-4.49-.84-9.75,6.47-13.87,2.3-13.34,22.78-2.58,17.11-10.94,31.17,4.81-2.65,11.22-21.14,15.24-16.16Z"/>
        <path class="cls-3" d="m1225.34,23.98c.51-.51,1.39-1.59,2.44-2.91h-11.29c-.27.62-.54,1.23-.82,1.83,3.26.37,6.52.73,9.67,1.08Z"/>
        <path class="cls-3" d="m791.72,941.26c-.17.38-.34.79-.5,1.22.21-.45.36-.84.5-1.22Z"/>
        <path class="cls-3" d="m905.63,666.52c5.02-10.22,9.61-12.25,14.79-25.67-10.3,4.35-.68-11.07,4.91-22.49-17.5,2.26-21.62,32.98-33.38,50.72,4.48.79,9.34-6.59,13.67-2.56Z"/>
        <path class="cls-3" d="m1157.85,30.19c-.49,6.81,1.12,11.3-3.39,22.58,5.01-7.39,10.17-6.38,15-21.23,8.08-1.9,10.26,2.76,6.12,14.42,14.25-17.13,7.95-17.61,6.15-24.9h-7.63c-.51,1.55-1.4,3.52-2.8,6.05-1-1.97-1.79-4.03-2.49-6.05h-14.17c1.39,2.88-4.8,20.82,3.22,9.13Z"/>
        <path class="cls-3" d="m1121.12,21.07h-3.17c.52,1.04.92,2.56,1.2,4.7.65-1.56,1.31-3.13,1.97-4.7Z"/>
        <path class="cls-3" d="m1111.59,21.07h-10.73l-4.7,11.21c5.86-1.93,11.28-8.09,15.43-11.21Z"/>
        <path class="cls-3" d="m1134.65,27.52c-9.77,16.75-8.53,22.82-16.65,34.83-2.22,21.12,16.09-12.45,24.87-10.94,3.56-11.57,5.21-13.49,7.15-26.7,1.44-1.96,2.48-3.1,3.21-3.64h-26.16c-1.31,4.81-2.69,9.68-3.86,14.32,3.88.38,7.49-11.68,11.43-7.87Z"/>
        <path class="cls-3" d="m215.2,21.07c-2.68,3.87-5.21,7.58-7.42,11.01-3.28-2.5-3.08-6.52-1.04-11.01h-29.06c-1.8,4.31-3.88,8.59-6.09,12.99-4.76,9.17-9.89,18.87-13.6,30.47,7.47-1.48,10-15.08,13.41-24.33,5.83,5.14,11.49-11.44,17.24-6.32.34,3.55-17.39,35.96-5.66,25.48-8.74,12.97-13.72,20.35-24.9,44.61,10.76,11.67-9.8,42.16-11.46,64.17,12.77-15.53,5.06-20.75,19.18-41.13,7.32-.13-8.87,16.09.01,17.55-6.69,2.06-7.04,8.07,3.83,5-5.06,6.89-11.66,15.18-11.51,7.09-7.08,16.21-8.85,22.36-3.81,30.22-15.01,18.28-10.6,33.23-17.29,50.29,11.25-9.19,41.71-44.89,40.33-55.71,9.7-11.68,2.96,11.53,9.57,10.27,8.95-6.87,17.93-7.07,26.89-22.51,1.86-4.79-.82-2.63-1.9-.3-3.98-4.34,7.36-10.05,9.64-20.65,4.48-8.31-5.94.04-7.68,3.28-.52-5.05,15.25-30.06,21.17-32.17,1.77-12.79,10.61-35.55,18.42-56.38,6.44-17.8,11.93-34.28,11.99-41.92h-50.26Zm-60.9,187.83c.12-3.78-4.08-3.26-1.91-9.09,4.46-13.48,8.98-4.74,13.44-15.64,5.54,3.93-6.32,19.76-11.53,24.73Zm15.33-85.7c-4.6-7.12,9.12-32.53,11.49-46.62,9.22-13.17.74,9.2,7.73,5.48-14.5,9.78-12.65,22.24-19.22,41.14Zm19.24,20.35c-3.17-7.03-7.79-4.47-15.37,10.94-6.59,2.21,10.43-19.21,3.85-17.03,3.07-4.54,13.76.32,7.65-7.67,9.34-15.84,8.99,2.18,3.87,13.76Z"/>
        <path class="cls-3" d="m556.46,1494.7c3.09,3.44-5.68,16.9-10.03,26.59,8.27-5.97,14.01-15.15,19.87-25.54,5.87-10.4,11.92-21.99,20.24-33.01-4,3.39-8.03,6.96-12.08,10.68-4.13,3.69-8.34,7.51-12.54,11.45-8.41,7.88-16.89,16.2-25.39,24.69-9.47,12.72.17,9.26-9.34,22.01-1.84-.41-3.78-.83-5.67-1.25-12.08,16.9-2.92,15.9-17.18,34.66,6.71-18.27-6.93.83-13.23-2.88-16.3,24.27-.04,9.39-1.02,18.93-1.46,2.6-2.93,5.12-4.41,7.58h14.99c10.43-14.59,21.39-30.6,26.98-47.38,21.02-16.66,10.69-27.1,28.8-46.53Z"/>
        <path class="cls-3" d="m21.82,118.98c-15.18,29.08,10.24,4.34,5.82,22.75,10.17-19.63,2.82-21.8-5.82-22.75Z"/>
        <path class="cls-3" d="m79.19,75.14c-1.39-13.76-7.74-13.94-15.44-24.06-2.98,3.18-18.36,25.52-9.55,16.07,3.38-6.22,3.43-.13,1.94,4.67-11.62,14.26-11.31,20.51-15.21,36.98,12.77-14.31,25.53-18.3,38.26-33.65Z"/>
        <path class="cls-3" d="m42.58,48.03c-4.45,9.65-8.92,11.54-13.33,24.22,2.62,1.96,6.16,14,11.56,5.99-4.24-5.25,2.77-21.73,1.77-30.21Z"/>
        <path class="cls-3" d="m885.13,649.46c6.59-5.59,16.6-22.4,10.9-26.24-2.64,7.75-14.89,25.07-10.9,26.24Z"/>
        <path class="cls-3" d="m.53,81.03c9.99-4.81-1.53,11.72,5.79,9.57,3.75-10.3,4.19-17.28,5.6-25.26-3.74,11.31-7.59,7.6-11.39,15.69Z"/>
        <path class="cls-3" d="m623.88,1137.88c-1.91-.33-3.8-.69-5.68-1.07-6.17,10.53-8.82,17.86-7.99,22.01,5.08-12.34,8.8-10.54,13.67-20.94Z"/>
        <path class="cls-3" d="m60.21,129.08c3.82-13.61,7.66-2.23,11.47-15.77-2.5-.36-5.08-.74-7.72-1.12-3.23,7.56-5.07,13.8-3.75,16.89Z"/>
        <path class="cls-3" d="m635.14,1102.38c-3.93,7.09-7.86,14.18-11.8,21.29.11,4.82,4.73,5.48,4.85,10.29-.59-12.48,13.3-26.61,6.96-31.58Z"/>
        <path class="cls-3" d="m140.86,242.14c7.35-4.72-1.59,17.2,5.74,5.3-3.48-4.56,8.66-6.87,11.52-20.34-5.76-.57-11.5,8.37-17.26,15.05Z"/>
        <path class="cls-3" d="m200.38,198.12c.42,1.62-19.55-11.93-23.07,27.44,7.8-17.43,2.92.53,5.78.84,7.04-10.55,14.08-12.76,21.13-23.32-1.27-.22-2.57-.35-3.83-.58,1.07-2.53,1.98-4.94,0-4.39Z"/>
        <path class="cls-3" d="m135.15,201.59c8.68-9.41,6.82-8.32,13.39-24.35-5.35-5.69-19.1,23.34-13.39,24.35Z"/>
        <path class="cls-3" d="m154.2,90.33c-3.52-2.41,10.78-22.51,3.82-21.41-5.76,8.2-11.54,7.42-17.26,19.42,7.43-3.52,10.01,8.64,13.44,1.99Z"/>
        <path class="cls-3" d="m38.72,47.49c2.5-6.13,7.68-14.91,5.68-16.56-7.15,16.7-5.02,1.59-9.6,2.96-1.9,4.08-3.78,8.14-5.68,12.22,5.01.26,9.5-6.78,9.61,1.37Z"/>
        <path class="cls-3" d="m711.41,1097.57c-7.54,13.22-12.29,23.92-12.8,30.7,8.36-18.8,14.07-11.16,21.85-24.31-4.54-.7-1.56-8.35-9.05-6.38Z"/>
        <path class="cls-3" d="m624.55,1189.89c-.3,5.33-14.81,34.36-4.25,22.82.36-5.41,14.82-34.44,4.25-22.82Z"/>
        <path class="cls-3" d="m1233.71,57.16c6.33-17.19,16.48-27.12,9.09-31.27-5.57,18.13-18.75,29.99-9.09,31.27Z"/>
        <path class="cls-3" d="m1176.37,87.46c6.89-17.75,12.71-34.48,8.84-40.38-7.68,16.66-11.49,15.98-22.45,34.19,3.49,3.25,6.06,7.34,13.6,6.19Z"/>
        <path class="cls-3" d="m1058.22,137.73c-5.84,12.08-20.14,35.2-13.46,39.62,5.85-7.36,12.75-30.58,13.46-39.62Z"/>
        <path class="cls-3" d="m733.28,1092.18c7.05-10.4,12.14-22.84,17.06-34.62-6.77,9.24-13.25,15.97-20.4,29.28,2.74.27,3.08,2.79,3.33,5.34Z"/>
        <path class="cls-3" d="m690.49,1032.69c3.19-5.9,6.11-9.22,9.02-12.46-4.08,1.8-7.15-6.72-11.94,2.53,3.78.77-3.98,12.06,2.92,9.93Z"/>
        <path class="cls-3" d="m742.17,1041.97c-14.49,9.85,2.07-10.43-2.47-14.55-8.83,11.57-14.5,21.83-18.91,34.2.75-8.66-4.89,1.92-9.58-1.72,3.72-7.63,13.76-21.04,5.63-17.77-11.31,22.88-20.27,21.64-30.38,32.07,10.36-17.44,17.98-27.51,21.25-38.38-5.26.77-11.98,16.54-17.52,20.27.67-8.66,8.04-15.73,14.15-25.6-4.15.31-1.57-5.53-5.28-5.63-4.5,6.03-9.96,22.42-13.71,20.98.26-13.67-9.7,12.33-17.64,1.47-3.11,12.64-16.52,34.74-11.69,40.13-7.33,2.53-1.62-6.92-7.17-6.07-8.83,17.77-2.85-5.02-12.8,11.73,3.91,3.45,2.07,12.14,6.28,15.28,12.34-22.21,9.73-6.79,19.42-19.92.27-6.5,3.27-15.58,8.43-26.63,18.51-13.19-1.7,20.04,17.2,3.12-18.17,42.4-38.57,65.56-61.89,115.66,3.46,4.08,8.5-7.76,12.36-7.13-11.1,20-10.69,29.43-3.3,32.5,8.68-10.75,18.93-33.35,23.71-23.88,7.5-16.57,12.86-12.06,19.93-24.55-4.02-4.84-9.6,5.59-14.25,6.7,19.11-30.4,25.69-61.82,44.99-81.25,2.31.66-.4,5.97,3.35,5.35,7.75-6.96,6.09-12.64,9.94-21.77.1,5.3,2.12,5.47,8.09-3.19-1.86-1.14-5.81-.3-3.33-5.4,4.85-3.2,9.27-2.02,15.18-16.02Zm-68.88,67.47c-4.16-7.5,18.46-23.49,27.43-42.02-5.72,20.53-14.92,24.46-27.43,42.02Z"/>
        <path class="cls-1" d="m615.41,1330.17c.79-15.51,24.77-39.38,22.3-52.6,3.12.61,6.33,1.23,9.54,1.86-15.67,24.17-19.79,34.88-31.84,50.74Z"/>
        <path class="cls-1" d="m655.57,1290.59c-3.97,5.5-7.26,6.04-11.28,12.03-3.73-2.88,19.41-29.48,4.85-22.8,9.75-15.43,17.42-14.31,26.97-27.92,2.78,9.16-30.01,34.04-20.54,38.69Z"/>
        <path class="cls-1" d="m673.28,1109.44c12.51-17.56,21.72-21.5,27.44-42.02-8.98,18.53-31.59,34.51-27.44,42.02Z"/>
        <path class="cls-1" d="m799.73,1009.83c-4.97,6.12-9.49,5.13-14.2,6.91,6.83-9.98,13.17-19.63,19.08-20.21-5.41,5.84-7.57,10.17-4.88,13.3Z"/>
        <path class="cls-1" d="m728.7,950.4c-4.23.8-19.19,5.01-14.7,16.21-2.86,3.29-5.64,6.61-8.64,12.49-6.73-7.48,17.71-35.62,22.79-47.49,2.9,3.67-2.37,15.14.55,18.79Z"/>
        <path class="cls-1" d="m811.33,880.19c-6.63,12.54-16.16,8.37-15.66,2.04,10.43-12.7,7.06-1.31,15.66-2.04Z"/>
        <path class="cls-1" d="m871.45,773.14c-13.22,20.61-10.16-6.79-1.26-14.14,5.71-.52-6.77,16.98,1.26,14.14Z"/>
        <path class="cls-1" d="m983.57,617.69c-4.94,8.15-9.55,10.32-14.6,21.1-5.76-.83-7.43-7.4-10.9-15.54,6.47-13.24,12.99-28.74,18.64-25.2-10.01,21.72,1.41,8.35,7.49,5.78-1.24,12.28-14.01,20.04-.64,13.86Z"/>
        <path class="cls-1" d="m1005.44,606.94c-9.32,11.45-15.91-5.73-5.13-14.75,5.99.62-3.1,16.34,5.13,14.75Z"/>
        <path class="cls-1" d="m1136.96,499.57c2.06-4.41,4.08-8.72,6.16-13.15,3.15,2.05,6.46-.09,9.9-7.97,2.11,8.27-12.15,25.15-16.06,21.12Z"/>
        <path class="cls-1" d="m932.8,466.5c-.3-4.79,13.66-37.54,22.31-47.69.6,13.22-12.75,30.38-22.31,47.69Z"/>
        <path class="cls-1" d="m1146.07,449.48c-7.98,7.93-16.25,27.37-23.94,24.75,8.1-13.79,16.17-24.28,23.94-24.75Z"/>
        <path class="cls-1" d="m0,202.99v11.42c3.4-7.18,3.39-10.96,0-11.42Z"/>
        <path class="cls-1" d="m1180.12,221.7c-10.99,15.91-21.93,7.51-32.94,32.94-4.41,14.71,8.04.04,1.89,18.73-9.03,14.55-18.11,26.14-27.16,38.26-3.4-1.79,1.47-12.33-1.89-14.14-9.99,9.22-8.45,26.09-19.79,43.72-3.7-3.69,1.57-13.32,5.19-21.87,3.63-8.54,5.99-15.89-2.8-14.83,12.91-16.39,25.79-23.9,38.74-45.97-7.69-5.63-15.52,21.67-23.23,20.17,7.77-17.12,15.53-29.37,23.26-24.84,14.37-31.09,19.31-44.6,31.06-60.88,1.01,14.28-10.51,17.32-11.65,35.52,9.62-.43,13.52-16.47,19.32-6.81Z"/>
        <path class="cls-1" d="m152.38,199.81c-2.17,5.83,2.04,5.31,1.92,9.08,5.21-4.96,17.06-20.8,11.52-24.72-4.46,10.9-8.98,2.15-13.44,15.64Z"/>
        <path class="cls-1" d="m1120.19,186.64c-3.88,9.54-7.73,1.13-11.59,3.18,18.33-17.59-4.47-5.83,5.78-26.89,3.47,20.89,21.28-33.38,31.01-33.12-6.63,17.61-30.29,41.16-25.2,56.83Z"/>
        <path class="cls-1" d="m1149.23,167.13c-1.92-.97-3.87.57-5.81,3.91-1.32-11.76,6.52-12.2-7.75-10.14,9.17-17.94,24.18-15.5,13.56,6.23Z"/>
        <path class="cls-1" d="m1182.18,129.59c-.55,3.66-1.12,7.35-3.86,13.37-9.07.47-12.7-4.84-11.64-15.2,5.73-6.49,11.41,4.24,21.34-6.74,2.05,3.24-3.27,10.23-5.84,8.57Z"/>
        <path class="cls-1" d="m1230.18,75.25c-5.63,6.18-11.11,25.01-16.96,21.08,5.69-4.73,11.04-28.84,16.96-21.08Z"/>
        <path class="cls-1" d="m1174.1,21.07h-5.3c.71,2.02,1.5,4.09,2.49,6.05,1.4-2.54,2.29-4.5,2.8-6.05Z"/>
        <path class="cls-1" d="m1274.97,21.07h-47.2c-1.05,1.32-1.92,2.4-2.43,2.91-3.15-.35-6.41-.72-9.67-1.08.27-.6.55-1.22.81-1.83h-34.75c1.8,7.28,8.1,7.77-6.14,24.89,4.13-11.66,1.95-16.32-6.13-14.41-4.83,14.84-9.99,13.84-15,21.22,4.51-11.27,2.9-15.77,3.4-22.57-8.03,11.69-1.84-6.26-3.22-9.13h-1.4c-.74.54-1.79,1.68-3.22,3.64-1.94,13.21-3.58,15.13-7.14,26.7-8.79-1.51-27.1,32.07-24.87,10.94,8.12-12.01,6.88-18.07,16.65-34.83-3.95-3.81-7.55,8.25-11.43,7.87,1.17-4.64,2.55-9.52,3.86-14.32h-5.94c-.66,1.56-1.32,3.13-1.97,4.69-.29-2.13-.69-3.65-1.21-4.69h-6.36c-4.15,3.12-9.57,9.27-15.43,11.21l4.71-11.21H265.46c-.06,7.64-5.54,24.12-11.99,41.92-7.8,20.83-16.65,43.59-18.42,56.38-5.92,2.11-21.69,27.12-21.17,32.17,1.74-3.24,12.16-11.59,7.68-3.28-2.28,10.6-13.62,16.31-9.64,20.65,1.07-2.33,3.76-4.49,1.9.3-8.95,15.44-17.93,15.64-26.89,22.51-6.61,1.26.14-21.95-9.57-10.27,1.37,10.82-29.08,46.52-40.33,55.71,6.69-17.06,2.29-32.01,17.29-50.29-5.05-7.86-3.27-14.01,3.81-30.22-.15,8.09,6.46-.2,11.51-7.09-10.88,3.07-10.53-2.94-3.83-5-8.88-1.46,7.3-17.68-.01-17.55-14.12,20.38-6.41,25.6-19.18,41.13,1.66-22.01,22.23-52.5,11.46-64.17,11.18-24.26,16.16-31.64,24.9-44.61-11.74,10.48,5.99-21.93,5.66-25.48-5.76-5.12-11.41,11.46-17.24,6.32-3.41,9.25-5.94,22.85-13.41,24.33,3.71-11.6,8.84-21.3,13.6-30.47,2.21-4.4,4.3-8.68,6.09-12.99h-26.26c.79,3.84,1.01,8.41.7,12.08-15.06,9.97-22.7,46.52-40.23,51.07.66,4.47,2.67,7.56,1.99,13.37-12.5,19.01-21.49,31.96-24.94,18.24-4.45,10.27-8.89,12.38-13.37,15.5.55-5.62,12.64-31.93,19.08-32.15,4.58-10.26,2.31-13.2,9.57-20.47-.49-6.83-2.31-12.31-3.92-18.03,13.5-19.99,6.49-20.75,17.15-36.78-4.53-.64-8.98-1.26-13.46-1.89-7.23,9.78-2.25,17.74-9.55,20.44,3.55-13.14-.11-23.34-9.68-14.47.25-2.57.72-4.79,1.52-6.91h-15.27c-2.47,3.44-4.95,5.01-7.42,3.93-4.02,7.61-2.01,9.28-5.68,16.59-3.22-.81-6.39.04-9.55,2.92,4.4-11.99-.57-15.67-4.46-23.44h-4.66c-.86.46-1.72.52-2.59.08-2.14,16.69-15.06,17.85-11.36,28.74-11.63,6.4-11.4,1.7-15.37-2.2,5.01-5.06,9.58-14.76,5.66-16.54-6.77,15.82-13.16,30.04-11.21,41.72-1,1.12-2.57,3.19-4.35,5.48v82.98c2.85-3.07,5.71.71,8.53-9.41,6.38,8.18,7.75,14.22,13.5,23.89C4.94,195.28,7.41,217.52.92,233.81c-.31.56-.61,1.09-.91,1.61v1353.19h485.68c1.47-2.46,2.95-4.97,4.41-7.58.99-9.54-15.27,5.35,1.02-18.93,6.29,3.71,19.93-15.38,13.22,2.88,14.26-18.75,5.11-17.76,17.18-34.66,1.89.42,3.83.85,5.67,1.25,9.5-12.74-.14-9.29,9.34-22,8.49-8.49,16.97-16.81,25.39-24.69,4.2-3.94,8.42-7.76,12.54-11.46,4.05-3.72,8.08-7.29,12.08-10.67-8.32,11.02-14.36,22.61-20.23,33-5.86,10.4-11.6,19.58-19.87,25.55,4.35-9.7,13.11-23.16,10.03-26.59-18.11,19.42-7.79,29.86-28.81,46.52-5.58,16.78-16.55,32.79-26.97,47.38h17.94c9.75-9.84,16.55-18.07,15.9-24.93-1.01,5.79-13.25,21.45-15.33,18.93-.5-4.3-2.09-7.64,4.79-18.18,17.37-13.01,11.24-15.49,28.12-41.91-2.38,13.47,20.4-20.6,11.39,2.42,9.5-8.63,18.12-38.82,29.3-36.93-4.31,9.06-19.58,27.35-16.46,30.07,9.32-13.92-4.37,17.75,7.58,1.61,2.77-11.18,8.72-17.29,14.85-23.33,3.06-3.03,6.21-6.02,8.94-9.66,2.68-3.65,5.02-7.92,6.64-13.43,2.26.76-.62,6.07,3.16,5.49,5.74-13.84,5.72-11.47,14.45-20.99-4.41-6.03-12.44,15.45-17.01,10.86,26.96-46.86,31.42-60.09,57.17-79.36-2.66,5.06-7.48,12.1-5.61,13.19,3.91-5.2,7.57-8.23,10.69-7.37,13.24-19.98,13.79-28.73,16.87-39.66,19.47-25.38,42.97-54.42,66.41-87.47,22.76-33.25,45.78-70.42,65.55-111.58,3.75.82-4.13,12.29,2.85,10.07,10.5-21.45,11.78-40.7-5.24-24.72,4.99-10.55,8.68-8.74,13.87-21.23-3.83-.69-7.62-1.37-11.5-2.07,11.41-18.97,11.95-27.89,7.16-31.92-8.59,7.91-15.26-3.22-24.39,9.86-.86,12.86-5.52,20.88-17.15,34.8,4.48,2.2,17.51-3.48,4.3,15.01-3.31-14.34-4.86-4.73-16.67,11.16-6.13-5.77,2.78-30.28,18.11-44.13-2.57-.46-5.06-.91-7.64-1.38-13.65,25.49-19.28,37.49-23.38,57.41-2.77-4.5,2.33-16.24,2.42-23.35-12.99,19.9-33.82,57.82-53.91,88.96-9.89,15.63-20.28,29.34-29.13,38.34-8.87,8.99-16.36,13.22-21.33,9.62-13.92,16.52-29.07,34.76-38.77,58.95,3.91,4.95,10.45-10.29,15.12-11.31-7.51,19.83-19.17,36.05-32.57,41.11,7.78.43-8.42,28.2-15.58,30.21,4.93,4.78-6.68,25.06-15.6,30.22,1.49-3.36,1.32-5.28-1.27-5.04,3.4-6.46,9.88-15.58,8.07-17.42-9.13,12.34-12.08,14.97-15.67,15.84-2.07,8.54-8.55,14.34-6.81,22.5,5.59-7.37,4.83-18.82,12.5-21.29-.37,7.84,2.11,13.24-5.54,27.54-27.67,20.56-22.83,3.66,2.27-47.31,11.1-8.68,17.48-14.49,25.64-32.89-1.45-6.54-15.17,10.85-9.47-1.95,7.02-12.79,15.48-13.06,16.81-25.1-3.52-7.76-11.46,18.88-15.02,11.16.67-17.39,17.86-30.94,24.16-52.16,2.66-.25,4.98,1.79,8.2-3.13,3.35-12.15,9.85-24.29,18.33-38.58,8.45-14.31,19.14-30.68,29.61-51.65,3.98,4.95,10.39-13.62,14.69-11.35,7.92-24.5,27.16-50.19,31.38-60.48-5.18,18.96-15.65,41.93-27.91,63.69-6.13,10.88-12.7,21.46-19.29,31.09-6.77,9.56-13.66,18.14-20.02,25.14,5.96-3.37,12.49-11.26,19.04-19.35,6.52-8.11,12.74-16.54,18.69-20.77,8.77-12.95-.64-9.28,8.09-22.16,10.26-5.76,19.78-16.82,13.36,2.47,9.32-16.99,12.16-20.57,11.36-35.77-6.22,7.66-2.25,15.4-9.49,17.16-4.36-8.53,17.66-29.86,25.67-42.57-6.47-.05-14.72,17.49-21.39,19.7,11.38-17.33,10.89-18.11,21.35-38.61-3.16-.9-6.46-.15-10.03,2.87,9.24-28.21,35.9-65.68,33.15-78.86-6.86,3.63-14.52,15.69-21.4,19.66,5.39-10.59,14.66-21.54,24.13-32.69,9.42-11.15,19.27-22.42,24.99-33.85-.2,6.84-10.1,22.3-16.77,34.68,9.03-5.78,13.75-12.7,16.52-19.53,2.7-6.86,3.31-13.67,4.42-19.16,7.26-7.08,14.39-3.87,12.15-7.27,7.79-15.36-11.11,8.07-3.48-5.3l4.56-8.66c-.59,5.33,7.97,3.08,13.71-2.32-3.25-1.94,2.4-12.37-.86-14.3-5.42,10.86-3.42,14.15-10.96,16.98,7.13-19.29,15.76-27.17,21.05-48.18,5.68,3.27,23.1-17.22,23.45-28.89-5.29,10.73-10.6,21-15.11,20.95,10.64-16.62,16.05-41.19,19.74-57.69-6.22-3.08-13.51,7.67-20.5,15.32,4.93,3.09,12.84-14.04,11.84-2.71-13.89,21.56-23.36,34.03-27.42,56.37-9.7,10.37-20.8,2.06-25.79,13.15-.14.37-.29.77-.5,1.21.16-.43.32-.83.5-1.21,2.56-7.26-8.12-1.83-5.52-9.11-6.13,13.62-12.87,14.62-12.16,7.33-4.91,13.85-6.49,11.23-9.35,21.86-12.09,5.96-24.09,12.45-37.19,31.09,4.64,1.39,20.4-16.3,17.93-6.29-5.99,11.57-10.99,8.28-17.35,20.44,3.35,3.68,12.9-7.71,21.29-18.89,8.52-11.14,16.62-21.86,18.43-16.43-7.58,14.12-13.87,15.6-22.04,33.74-6.11-4.72-21.57,22.48-34.2,31.43,3.03-7.76,15.41-16.7,11.81-21.31-12.23,15.58,1.97-9.84-1.04-9.57-1.05-.67-11.81,8.73-10.01,2.93,4.63-7.73,9.15-15.93,12.95-24.36,3.8-8.43,7.23-16.98,10.26-25.22,6.06-16.49,10.51-31.77,13.06-42.51-10.8,16.07-23.26,65.75-36.88,77.92-2.68,4.95-15.25-1.27-15.3-2.7,1.14,12.31-12.8,13.53-17.97,24.83,2.8.95,6.94.64,1.01,9.59-2.53-.46-5.07-.92-7.65-1.38,5.16-12.06,11.48-23.24,16.93-32.79,2.73-4.77,5.24-9.13,7.29-12.98,1.99-3.87,3.46-7.24,4.27-10-2.91,4.73-5.62,6.29-8.3,7.89,5.05-13.71,10.81-13.48,9.65-26.41,22.2-5.07,35.98-55.1,59.53-73.94-8.93,19.32,3.28,13.77-1.01,13.87-.65-6.5,16.41-32.41,21.47-29.07-6.39,17.36-11,9.42-16.97,20.47,8.07,1.06,17.13-11.88,21.18-24.5-8.93,2.06-6.83-6.38-.61-18.75,5.69,1.69,12.36-10.36,17.88-6.33,15.72-33.1,16.65-19.83,23.43-28.86,12.15-19.74-8.04,5.1-1.27-9.49,16.52-30.49,34.88-41.77,44.58-67.51,3.52.18,5.48,1.89,5.57,5.51,6.67-15.72,23.21-30.3,22.46-24.52-2.85,11.26-14.14,9.12-10.53,17.08,3.5-5.36,6.88-8.49,10.08-7.81,3.9-14.71,8.87-21.56,16.65-25.37-2.01-7.12,19.9-40.67,29.63-51.46,6.94.46-5.07,19.75-1.07,23.13,4.32-9.53,8.37-13.57,12.18-12.11-2.22,5.11-6.43,12.24-4.51,13.27,5.54-10.65,10.66-20.87,10.98-26.34-24.13,13.54,1.85-29.71-2.12-37.51,9.93-11.63,12.26-17.28,19.08-34.41-9.29,5.73-9.57-1.32-5.12-14.69-14.64-.4-23.66-9.36-12.66-29.65-2.7,5.01-5.28,4.34-7.82,3.55-3.51,7.74-6.96,25.93-14.69,30.26.4-8.71,5.06-7.6,10.63-21.58-8.75,4.48,5.12-14.29-3.62-9.8-6.64,13.69-14,25.58-20.32,24.83-10.25,26.68-7.22,34.87-22.18,61.61-1.96-.24-.56-3.84-1.72-4.89-8.3,20.89-21.78,42.98-24.39,65.99-1.91-.32-4,3.13-5.98,3.73-5.94-9.41,3.01-12.57-2.96-19.09,13.06-9.97,2.81-13.98,16.45-20.67-3.38-1.07,5.74-14.47.64-13.85-5.69,7.28-14.79,22.66-14.1,11.8-9.2,17.68-9.04,27.32-18.99,34.22,8.43-13.5,6.39-16.56,6.83-22.16,7.28-3.93,17.23-24.77,4.23-8.6,10.61-17.53,14.61-25.86,17.08-34.51-2,5.32-12.92,14-7.9,3.41,7.06-13.22,13.47-12.15,20.29-20.1.65-8.65-8.88,4.98-3.43-9.81-.79,13.56,8.69-9.89,14.52-20.97-10.14,1.66-.86-7.87,4.68-17.83-4.82-4.65-10.34-10.59-13.8-19.03-3.6-8.47-5.19-19.44-2.05-34.09,6.86-10.3,4.96-9.17,14.07-25.7,2.34-7.66-9.27-.99-5.57-10.04,4.48,1.3,9.03-1.08,13.67-7.3,1.62-6.15-7.12-1.67-3.67-9.71,13.57-15.8,14.42.99,27.48-19.23-3.82-2.41-7.87,7.3-11.65,2.99,14.81-27.18,18.52-42.75,34.23-64.41,7.62,6.24,15.7-8.6,23.69-19.87,9.82,9.68-.37,11.4,17.47-2.27-2.72,6.54-8.17,15.94-6.18,17.62,6.01-9.14,11.94-14.7,17.67-11.47-2.68,6.55-8.18,15.97-6.19,17.63,9.54-21.98,18.17-2.62,27.66-24.02-10.95,7.52-15.58-8.26-15.01-24.97-2.67,5.06-5.41,12.36-8,12.72,11.78-28.49-6.08-26.92,12.01-62.91,3.87-5.88,7.73.29,11.59-7.69-7.55-8.09-5.26-26.69-1.96-46.25,7.08-9.68,14.17-13,21.27-20.35-1.39,5.32-2.32,10.14-1.94,13.53,8.6-24,21.17-31.19,19.29-15.97,9.24-19.03,4.41-23.06,11.6-39.93,4.51,4.55,8.99-10.8,13.5-12.12,6.12,8.41-11.24,32.01-11.55,39.94,18.08-11.58-18.14,54.57-15.46,67.1,17.83-4.14,11.23-28.08,23.21-52.38,5.66-10.21,15.52-17.22,15.48-7.33,8.63-27.25,12.54-49.35,30.97-69.84,2.15-11.02-9.35,7.16-5.84-5.26,3.2-5.05,6.47-9.72,9.68-12.67-3.43,7.52-3.45,11.35-1.94,13.57,2.88-5.87,6.14-12.02,9.95-17.31,3.73-5.31,7.97-9.77,13.02-12.19-4.7,1.66,2.22-20.89,7.28-22.21-2.42,5.85,1.69,4.45.19,9.24-10.8,24.73-19.33,45.92-11.03,49.33,17.58-16.35,34.49-31.29,51.49-53.94-7.7,20.36-15.71,26.42-18.84,25.52,1.85,3.15-1.4,8.26-4.15,12.83-2.8,4.56-5.19,8.56-1.36,9.56,9.13-10.3,17.57-28.12,26.62-29.18,7.84-3.19-.79,11.84,2.21,14.04,12.34-18.75,31.03-44.54,37.95-37.25,7.12-13.38-1.77-9.05,5.34-22.42,9.37-5.4,7.22,13.74,15.52,1.71-.11-1.41-.36-2.67-.67-3.87ZM6.32,90.6c-7.32,2.15,4.2-14.38-5.79-9.57,3.8-8.09,7.65-4.38,11.39-15.69-1.41,7.97-1.85,14.95-5.59,25.26Zm28.47-56.71c4.57-1.37,2.45,13.74,9.6-2.96,2.01,1.65-3.18,10.43-5.68,16.56-.11-8.16-4.6-1.12-9.6-1.37,1.9-4.09,3.78-8.14,5.68-12.23Zm-7.16,107.84c4.42-18.41-20.99,6.33-5.82-22.75,8.64.95,15.98,3.12,5.82,22.75Zm1.61-69.48c4.41-12.68,8.88-14.57,13.32-24.22,1,8.48-6.01,24.95-1.77,30.2-5.39,8.02-8.94-4.02-11.55-5.98Zm11.68,36.54c3.91-16.47,3.6-22.72,15.21-36.98,1.5-4.8,1.44-10.89-1.94-4.66-8.82,9.45,6.57-12.89,9.55-16.07,7.69,10.12,14.04,10.3,15.43,24.06-12.74,15.35-25.5,19.34-38.26,33.65Zm19.28,20.29c-1.32-3.09.51-9.32,3.75-16.89,2.65.39,5.22.76,7.73,1.12-3.82,13.54-7.65,2.16-11.48,15.77Zm97.81-60.16c6.97-1.1-7.34,19-3.82,21.41-3.43,6.65-6.01-5.51-13.44-1.99,5.72-11.99,11.5-11.22,17.26-19.42Zm-9.48,108.32c-6.57,16.03-4.72,14.94-13.39,24.35-5.71-1.01,8.04-30.04,13.39-24.35Zm-1.94,70.2c-7.33,11.9,1.6-10.02-5.74-5.3,5.76-6.68,11.5-15.61,17.26-15.05-2.86,13.48-15,15.79-11.51,20.35Zm36.48-21.03c-2.87-.32,2.02-18.28-5.78-.84,3.52-39.38,23.49-25.83,23.08-27.45,1.99-.55,1.06,1.86,0,4.39,1.26.23,2.56.36,3.83.58-7.06,10.56-14.1,12.76-21.13,23.32Zm637.64,867.39c4.12,4.16,9.38-3.14,13.87-2.3l-9.58,17.31c-4.02-4.99-10.43,13.5-15.23,16.15,8.35-14.06-2.4-8.38,10.94-31.16Zm-22.91,52.75c6.38.45.44,12.24-4.26,22.94-4.26-2.43-.19-12.54,4.26-22.94Zm-194.88,310.01c11.99.69-3.15,14.67-7.49,27.21-7.78.03,3.43-16.81,7.49-27.21Zm32.22-354.18c6.33,4.97-7.55,19.1-6.96,31.58-.12-4.81-4.75-5.47-4.86-10.29,3.95-7.11,7.88-14.2,11.81-21.29Zm-24.94,56.44c-.82-4.15,1.82-11.48,7.99-22.01,1.87.37,3.77.74,5.68,1.07-4.87,10.4-8.59,8.6-13.67,20.94Zm10.09,53.89c-10.55,11.54,3.95-17.49,4.25-22.82,10.58-11.62-3.88,17.41-4.25,22.82Zm78.31-84.44c.5-6.78,5.26-17.48,12.8-30.7,7.49-1.97,4.51,5.69,9.05,6.38-7.78,13.16-13.5,5.52-21.85,24.32Zm51.73-70.71c-4.92,11.78-10,24.22-17.06,34.62-.26-2.55-.6-5.08-3.33-5.34,7.14-13.32,13.64-20.04,20.39-29.28Zm-62.77-34.8c4.8-9.25,7.87-.73,11.95-2.53-2.92,3.24-5.83,6.56-9.03,12.46-6.89,2.13.86-9.16-2.92-9.93Zm-2.22,23.08c3.75,1.44,9.22-14.95,13.71-20.98,3.71.1,1.14,5.94,5.28,5.63-6.11,9.87-13.47,16.94-14.15,25.6,5.54-3.73,12.26-19.5,17.52-20.27-3.27,10.87-10.89,20.94-21.25,38.38,10.11-10.43,19.07-9.19,30.38-32.07,8.13-3.27-1.91,10.14-5.63,17.77,4.68,3.64,10.33-6.94,9.58,1.72,4.41-12.37,10.08-22.63,18.91-34.2,4.55,4.12-12.01,24.4,2.47,14.55-5.92,14-10.34,12.82-15.18,16.02-2.47,5.1,1.47,4.26,3.33,5.4-5.97,8.66-7.99,8.49-8.09,3.19-3.85,9.13-2.19,14.81-9.94,21.77-3.75.62-1.04-4.69-3.35-5.35-19.31,19.43-25.89,50.85-44.99,81.25,4.65-1.11,10.23-11.54,14.25-6.7-7.07,12.49-12.43,7.98-19.93,24.55-4.78-9.47-15.03,13.13-23.71,23.88-7.39-3.07-7.8-12.5,3.3-32.5-3.86-.63-8.9,11.21-12.36,7.13,23.31-50.1,43.72-73.26,61.89-115.66-18.89,16.92,1.31-16.31-17.2-3.12-5.16,11.05-8.15,20.13-8.43,26.63-9.69,13.13-7.08-2.29-19.42,19.92-4.21-3.14-2.37-11.83-6.28-15.28,9.95-16.75,3.97,6.04,12.8-11.73,5.54-.85-.16,8.6,7.17,6.07-4.83-5.39,8.58-27.49,11.69-40.13,7.94,10.86,17.91-15.14,17.64-1.47Zm239.98-427.48c-5.59,11.42-15.21,26.84-4.91,22.49-5.18,13.42-9.78,15.45-14.8,25.67-4.32-4.03-9.19,3.35-13.67,2.56,11.76-17.73,15.88-48.46,33.38-50.72Zm-29.3,4.86c5.69,3.84-4.31,20.65-10.9,26.24-3.98-1.17,8.25-18.49,10.9-26.24Zm148.74-445.87c-6.68-4.42,7.62-27.54,13.45-39.62-.71,9.04-7.6,32.25-13.45,39.62Zm131.6-89.89c-7.54,1.15-10.11-2.93-13.6-6.19,10.95-18.21,14.76-17.53,22.44-34.19,3.87,5.9-1.95,22.63-8.84,40.38Zm57.33-30.3c-9.67-1.27,3.52-13.13,9.09-31.26,7.39,4.14-2.76,14.08-9.09,31.26Z"/>
        <path class="cls-1" d="m138.61,22.51c.24-.51.48-.98.72-1.44h-1.85c.19.66.55,1.16,1.14,1.44Z"/>
        <path class="cls-1" d="m534.53,1563.68c-.06-.61-.16-1.22-.34-1.81.4.33.49.97.34,1.81Z"/>
        <path class="cls-1" d="m878.33,750.91c-7.22-2.49-32.18,14.78-41.2,40.09-8.84-2.11,2.58-10.17,9.63-26.46,4.38,2.15,9.42-8.23,14.3-16.35,3.02,14.42,16.9-19.72,26.3-23.86,1.01,4.84-7.03,18.72-9.03,26.58Z"/>
        <path class="cls-1" d="m726.32,1199.72c-7.48,12.98-16.18,26.37-25.51,39.8-9.25,13.46-19.9,26.72-30.14,39.8-.49-13.21,24.18-34.78,35.66-54.9,6.84-12.6,4.47-16.75,4.28-22.9,6.69-10.56,7.54,1.11.97,9.64,4.61-1.03,11.03-19.62,14.74-11.44Z"/>
        <path class="cls-1" d="m733.95,1182.15c-2.68-9.81-8.99-3.99-1.45-23.98,7.14,1.9,3.75,13.43,1.45,23.98Z"/>
        <path class="cls-1" d="m732.71,974.59c5.57-14.01,10.28-16.05,15.12-20.85.3,1.78-7.59,23.61-15.12,20.85Z"/>
        <path class="cls-1" d="m949.29,762.05c-2.45-12.49-11.71,10.13-20.34,20.24,16.11-32.34,19.56-36.18,38.09-64.37,11.11.64-8.07,34.34-17.74,44.13Z"/>
        <path class="cls-1" d="m1091.72,526.03c-4.03,6.31-8.03,10.61-12.08,16.97-.14-3.24-2.07-7.58-5.79-.8-1.6-3.82,13.32-20.29,17.87-16.17Z"/>
        <path class="cls-1" d="m969.32,388.46c-.96-10.06,11.24-19.66,12.27-30.63,3.65-1.16-1.85,19.9-12.27,30.63Z"/>
        <path class="cls-1" d="m177.35,137.46c6.58-2.18-10.44,19.24-3.85,17.03,7.58-15.41,12.2-17.96,15.37-10.94,5.12-11.57,5.47-29.6-3.87-13.75,6.11,7.98-4.59,3.13-7.65,7.66Z"/>
        <path class="cls-1" d="m181.12,76.57c-2.37,14.1-16.09,39.5-11.49,46.63,6.56-18.9,4.72-31.36,19.21-41.14-6.98,3.72,1.5-18.65-7.73-5.48Z"/>
        <path class="cls-1" d="m1066.06,221.4c-15.92,24.53-10.11-21.55-27.07,15.04-7.93-4.41,19.99-25.78,1.94-22.78,5.81-8.63,11.56-8.48,17.38-7.02-11.11,28.76,12.45-5.58,7.75,14.76Z"/>
        <path class="cls-1" d="m207.79,32.08c2.2-3.44,4.72-7.14,7.41-11.02h-8.44c-2.05,4.49-2.25,8.51,1.04,11.02Z"/>
        <path class="cls-1" d="m1155.05,112.59c-1.29,2.88-2.57,5.81-3.86,8.7-2.01.64-1.1-1.91-.02-4.57-2.6,1.76-5.17,3.41-7.74,8.29-1.19-1,.02-4.63-1.94-4.82l3.88-8.77c4.58,1.14,2.35,9.07,9.67-3.42,2.02-.63,1.09,1.88.01,4.59Z"/>
        <path class="cls-1" d="m611.25,1362.63c-3.17-.63-6.36-1.27-9.49-1.89,4.99-8.53,9.98-17.04,14.96-25.55,3.76,4.24-2.63,17.42-5.47,27.44Z"/>
      </g>
      <path class="cls-3" d="m659.12,253.1v.91h-18.09v-.91c0-13.54-11.02-24.56-24.56-24.56-13.55,0-24.56,11.02-24.56,24.56v.91h-18.09s0-.91,0-.91c0-23.52,19.14-42.66,42.66-42.66,23.52,0,42.66,19.14,42.66,42.66Zm-16.29-.91h14.47c-.49-22.1-18.62-39.94-40.83-39.94-22.22,0-40.35,17.83-40.83,39.94h14.47c.48-14.13,12.12-25.47,26.36-25.47,14.24,0,25.88,11.34,26.36,25.47Z"/>
      <path class="cls-3" d="m419.3,1126.89H162.1c-17.46,0-31.61-14.15-31.61-31.61h0c0-17.46,14.15-31.61,31.61-31.61h257.21c17.46,0,31.61,14.15,31.61,31.61h0c0,17.46-14.15,31.61-31.61,31.61Z"/>
    </g>
  </g>
</svg>